<?xml version="1.0" encoding="UTF-8"?>
<svg xmlns="http://www.w3.org/2000/svg" width="272" height="272" viewBox="0 0 272 272" fill="none">
  <path d="M39.2349 120.146L97.5054 53.922C100.475 50.5286 104.504 48.1957 108.958 47.2943C113.412 46.393 118.025 46.9762 122.107 48.938L207.419 90.2947C210.229 91.6733 212.721 93.6351 214.63 96.074C216.592 98.513 217.917 101.376 218.606 104.451L236.634 185.733C237.694 190.505 237.058 195.436 234.778 199.784C232.551 204.079 228.84 207.472 224.333 209.381L132.924 247.238C130.167 248.405 127.144 248.935 124.122 248.776C121.1 248.67 118.184 247.874 115.48 246.496L45.2793 210.229C41.8859 208.48 39.0758 205.828 37.114 202.594C35.1522 199.36 34.0918 195.648 34.0918 191.831V133.825C34.0918 128.788 35.9475 123.963 39.2349 120.146Z" fill="#C1D9FD"></path>
  <path d="M124.971 249.306C124.653 249.306 124.388 249.306 124.07 249.306C120.995 249.2 117.919 248.352 115.215 246.973L45.0679 210.707C41.6215 208.904 38.7053 206.2 36.6905 202.86C34.6757 199.519 33.6152 195.702 33.6152 191.831V133.826C33.6152 128.683 35.471 123.699 38.9174 119.775L97.1349 53.5512C100.21 50.1048 104.346 47.6658 108.906 46.7645C113.413 45.8631 118.184 46.4464 122.373 48.4612L207.685 89.8179C210.548 91.1964 213.093 93.2643 215.108 95.7563C217.069 98.2483 218.501 101.218 219.19 104.346L237.218 185.628C238.278 190.506 237.642 195.596 235.309 200.049C233.029 204.45 229.211 207.95 224.598 209.858L133.189 247.716C130.538 248.776 127.781 249.306 124.971 249.306ZM39.6597 120.517C36.4254 124.229 34.6226 128.948 34.6226 133.826V191.831C34.6226 195.543 35.63 199.148 37.5918 202.329C39.5006 205.511 42.2577 208.056 45.5451 209.752L115.745 246.019C118.343 247.345 121.26 248.14 124.176 248.246C127.092 248.352 130.061 247.822 132.765 246.708L224.121 208.904C228.522 207.101 232.128 203.761 234.301 199.572C236.475 195.384 237.112 190.506 236.104 185.893L218.077 104.611C217.441 101.642 216.062 98.8315 214.206 96.4456C212.351 94.0596 209.912 92.0978 207.154 90.8253L121.843 49.4686C117.919 47.5598 113.359 46.9766 109.065 47.8249C104.77 48.6732 100.793 51.0062 97.9302 54.2935L39.6597 120.517Z" fill="#121212"></path>
  <path d="M193.951 137.008C192.467 147.665 176.984 155.777 159.646 153.285C131.757 149.256 129.742 138.598 131.333 127.994C132.817 117.337 144.217 107.846 165.744 110.921C182.976 113.466 195.436 126.457 193.951 137.008Z" fill="#FCC018"></path>
  <path d="M166.009 154.239C163.889 154.239 161.715 154.08 159.541 153.762C146.073 151.8 137.537 148.195 133.401 142.681C129.849 137.856 130.114 132.288 130.75 127.941C131.439 123.063 134.144 118.556 138.385 115.375C142.945 111.981 151.322 108.323 165.691 110.391C183.878 113.042 195.86 126.668 194.376 137.06C193.793 141.037 191.354 144.802 187.324 147.824C181.863 152.012 174.175 154.239 166.009 154.239ZM157.791 110.868C148.459 110.868 142.574 113.625 139.128 116.223C135.098 119.245 132.553 123.434 131.864 128.047C131.227 132.182 130.962 137.538 134.303 142.044C138.226 147.347 146.551 150.846 159.7 152.755C169.88 154.239 180.007 152.065 186.794 146.975C190.611 144.112 192.891 140.666 193.421 136.901C194.853 126.986 183.241 113.996 165.638 111.398C162.775 111.027 160.177 110.868 157.791 110.868Z" fill="#121212"></path>
  <path d="M170.463 112.617C173.75 99.5209 168.342 95.0671 160.972 93.0523C153.602 91.0375 150.579 96.1806 149.89 98.1954C148.141 103.763 152.276 110.708 170.463 112.617Z" fill="#F8F9F9"></path>
  <path d="M170.834 113.147H170.356C157.419 111.769 152.329 107.951 150.314 104.982C148.936 102.861 148.565 100.475 149.307 98.0361C150.314 95.0669 153.92 90.6131 161.025 92.5749C170.727 95.226 173.75 101.429 170.887 112.776L170.834 113.147ZM157.737 93.1581C155.988 93.1581 154.503 93.6353 153.177 94.5897C151.64 95.7032 150.738 97.2938 150.367 98.4073C149.731 100.475 150.049 102.596 151.269 104.452C153.124 107.209 157.843 110.761 170.038 112.14C173.219 98.9375 167.175 95.385 160.812 93.6353C159.699 93.2642 158.692 93.1581 157.737 93.1581Z" fill="#121212"></path>
  <path d="M170.252 112.458C174.176 99.4674 182.023 98.513 190.4 100.634C198.777 102.755 198.884 108.746 198.565 110.814C198.247 112.988 191.938 123.062 170.252 112.458Z" fill="#F8F9F9"></path>
  <path d="M187.113 117.76C182.924 117.76 177.357 116.541 169.987 112.935L169.562 112.723L169.669 112.299C174.016 97.9302 183.03 98.2483 190.453 100.104C194.217 101.058 196.816 102.861 198.141 105.512C199.308 107.792 199.148 110.072 198.989 110.92C198.83 112.087 197.399 114.526 194.377 116.117C192.733 117.018 190.347 117.76 187.113 117.76ZM170.888 112.193C183.348 118.184 190.294 117.124 194.005 115.162C197.081 113.571 197.982 111.292 198.035 110.761C198.3 109.012 198.459 103.232 190.294 101.164C179.955 98.5664 174.122 101.854 170.888 112.193Z" fill="#121212"></path>
  <path d="M140.028 136.264C137.643 136.264 136.529 134.78 136.211 133.931C136.105 133.666 136.264 133.348 136.529 133.242C136.794 133.136 137.112 133.295 137.218 133.56C137.271 133.666 137.961 135.522 140.718 135.151C140.983 135.098 141.248 135.31 141.301 135.628C141.354 135.893 141.142 136.211 140.824 136.211C140.506 136.211 140.294 136.264 140.028 136.264Z" fill="#121212"></path>
  <path d="M142.52 125.077C142.361 125.077 142.202 125.024 142.096 124.865C140.134 122.055 137.695 123.168 137.589 123.221C137.324 123.327 137.006 123.221 136.9 122.956C136.794 122.691 136.9 122.373 137.165 122.267C137.218 122.267 140.505 120.729 142.997 124.281C143.157 124.547 143.104 124.865 142.891 125.024C142.732 125.024 142.626 125.077 142.52 125.077Z" fill="#121212"></path>
  <path d="M151.747 128.099C151.588 128.099 151.429 128.046 151.323 127.887C149.361 125.077 146.922 126.19 146.816 126.243C146.551 126.349 146.233 126.243 146.127 125.978C146.021 125.713 146.127 125.395 146.392 125.289C146.445 125.289 149.732 123.751 152.224 127.304C152.383 127.569 152.33 127.887 152.118 128.046C151.959 128.099 151.853 128.099 151.747 128.099Z" fill="#121212"></path>
  <path d="M189.233 124.335C192.415 128.471 194.005 132.977 193.422 136.954C192.892 140.666 190.612 144.165 186.794 147.028C186.37 147.346 185.946 147.664 185.469 147.93C189.286 142.362 191.407 131.705 189.233 124.335Z" fill="#121212"></path>
  <path d="M160.389 110.974C162.086 111.08 163.835 111.239 165.638 111.504C166.592 111.663 167.547 111.822 168.501 112.034C174.068 120.677 175.341 142.097 162.934 153.656C161.82 153.603 160.76 153.444 159.647 153.285C157.579 152.967 155.67 152.648 153.867 152.277C167.653 143.476 165.956 120.464 160.389 110.974Z" fill="#121212"></path>
  <path d="M173.007 113.253C176.772 114.578 180.324 116.434 183.347 118.661C187.96 127.94 185.892 143.263 178.893 151.64C176.083 152.595 173.06 153.231 169.826 153.549C180.377 140.771 180.218 121.524 173.007 113.253Z" fill="#121212"></path>
  <path d="M141.514 178.735C132.606 169.88 132.553 155.511 141.355 146.604C150.209 137.696 164.578 137.643 173.486 146.444C173.539 146.497 173.592 146.55 173.645 146.604C182.552 155.458 182.605 169.827 173.804 178.735C164.949 187.642 150.58 187.695 141.673 178.894C141.62 178.841 141.567 178.788 141.514 178.735Z" fill="white"></path>
  <path d="M157.526 140.931C163.252 140.931 168.66 143.157 172.796 147.187C172.796 147.187 172.796 147.187 172.849 147.24L172.902 147.293L172.955 147.346C181.439 155.724 181.492 169.509 173.114 177.993C169.032 182.128 163.57 184.408 157.738 184.408C152.012 184.408 146.603 182.181 142.468 178.152C142.468 178.152 142.468 178.152 142.415 178.099L142.362 178.046L142.309 177.993C133.825 169.615 133.772 155.83 142.15 147.346C146.232 143.21 151.694 140.931 157.526 140.931ZM157.526 139.87C151.694 139.87 145.808 142.097 141.407 146.604C132.606 155.511 132.659 169.88 141.566 178.735C141.619 178.788 141.672 178.841 141.725 178.894C146.179 183.295 151.959 185.469 157.738 185.469C163.57 185.469 169.456 183.242 173.856 178.735C182.658 169.827 182.605 155.458 173.697 146.604C173.644 146.551 173.591 146.498 173.538 146.445C169.085 142.044 163.305 139.87 157.526 139.87Z" fill="#15162E"></path>
  <path d="M145.226 175.023C138.334 168.237 138.281 157.102 145.12 150.262C151.907 143.37 163.042 143.317 169.881 150.156C169.934 150.209 169.934 150.209 169.987 150.262C176.88 157.049 176.933 168.184 170.093 175.023C163.307 181.916 152.172 181.969 145.332 175.13C145.279 175.13 145.226 175.077 145.226 175.023Z" fill="white"></path>
  <path d="M157.527 146.127C161.875 146.127 166.01 147.824 169.086 150.899L169.139 150.952L169.192 151.005C175.66 157.42 175.66 167.813 169.298 174.281C166.169 177.409 162.034 179.159 157.58 179.159C153.232 179.159 149.096 177.462 146.021 174.387L145.915 174.281C139.447 167.866 139.447 157.473 145.809 151.005C148.937 147.877 153.073 146.127 157.527 146.127ZM157.527 145.066C153.02 145.066 148.513 146.816 145.067 150.262C138.28 157.155 138.333 168.237 145.173 175.024C145.226 175.077 145.226 175.077 145.279 175.13C148.672 178.523 153.126 180.22 157.633 180.22C162.14 180.22 166.647 178.47 170.093 175.024C176.88 168.131 176.827 157.049 169.987 150.262C169.934 150.209 169.934 150.209 169.881 150.156C166.434 146.763 161.981 145.066 157.527 145.066Z" fill="#15162E"></path>
  <path d="M163.201 163.306C162.565 162.563 161.451 161.98 159.967 161.556L156.838 160.655C155.99 160.442 155.407 160.124 155.035 159.806C154.664 159.488 154.452 159.064 154.452 158.587C154.452 158.163 154.611 157.791 154.876 157.42C155.142 157.102 155.513 156.837 155.99 156.625C156.467 156.413 156.997 156.36 157.581 156.36C158.164 156.36 158.747 156.519 159.224 156.731C159.701 156.943 160.126 157.314 160.444 157.738C160.762 158.163 160.974 158.693 161.08 159.223L164.049 158.693C163.784 157.632 163.36 156.731 162.777 155.989C162.193 155.246 161.451 154.663 160.55 154.239C160.073 154.027 159.595 153.868 159.065 153.762V151.588H156.149V153.709C155.513 153.815 154.876 153.974 154.346 154.239C153.445 154.663 152.756 155.246 152.278 155.989C151.801 156.731 151.536 157.632 151.536 158.693C151.536 160.92 152.756 162.351 155.195 163.147L159.383 164.472C160.073 164.684 160.55 164.949 160.868 165.267C161.186 165.586 161.345 166.01 161.345 166.487C161.345 167.229 161.027 167.812 160.391 168.29C159.754 168.767 158.959 168.979 157.952 168.979C156.944 168.979 156.043 168.714 155.301 168.131C154.558 167.547 154.081 166.752 153.869 165.798L151.006 166.275C151.165 167.388 151.589 168.396 152.172 169.191C152.809 169.986 153.604 170.623 154.558 171.1C155.089 171.365 155.672 171.524 156.308 171.63V173.804H159.224V171.683C159.966 171.577 160.603 171.418 161.239 171.1C162.193 170.623 162.989 170.039 163.519 169.191C164.049 168.396 164.314 167.441 164.314 166.381C164.208 165.055 163.89 164.101 163.201 163.306Z" fill="#FCC018"></path>
  <path d="M159.171 174.281H156.254C155.936 174.281 155.724 174.069 155.724 173.751V172.001C155.194 171.895 154.717 171.736 154.293 171.524C153.232 171.047 152.384 170.358 151.748 169.456C151.111 168.555 150.634 167.495 150.475 166.328C150.422 166.063 150.634 165.745 150.899 165.745L153.762 165.268C154.027 165.215 154.293 165.427 154.346 165.692C154.558 166.593 154.929 167.23 155.618 167.76C156.254 168.237 157.05 168.502 157.951 168.502C158.799 168.502 159.542 168.29 160.072 167.919C160.602 167.548 160.814 167.124 160.814 166.54C160.814 166.169 160.708 165.904 160.496 165.692C160.231 165.427 159.807 165.215 159.277 165.056L155.088 163.73C152.437 162.882 151.058 161.238 151.058 158.799C151.058 157.686 151.323 156.678 151.907 155.83C152.437 154.982 153.232 154.345 154.24 153.868C154.664 153.656 155.194 153.497 155.724 153.391V151.694C155.724 151.376 155.936 151.164 156.254 151.164H159.171C159.489 151.164 159.701 151.376 159.701 151.694V153.444C160.125 153.55 160.496 153.656 160.867 153.868C161.822 154.292 162.67 154.929 163.306 155.724C163.942 156.519 164.42 157.527 164.685 158.64C164.738 158.799 164.685 158.905 164.632 159.064C164.526 159.17 164.42 159.276 164.261 159.276L161.291 159.807C161.026 159.86 160.708 159.647 160.655 159.382C160.549 158.905 160.39 158.481 160.072 158.11C159.807 157.739 159.436 157.474 159.011 157.262C158.587 157.049 158.11 156.943 157.58 156.943C157.05 156.943 156.625 156.996 156.201 157.155C155.83 157.315 155.512 157.527 155.3 157.792C155.088 158.057 154.982 158.322 154.982 158.587C154.982 158.905 155.088 159.17 155.353 159.382C155.671 159.647 156.201 159.913 156.944 160.125L160.072 161.026C161.663 161.503 162.829 162.139 163.571 162.935C163.571 162.935 163.624 162.988 163.624 163.041C164.314 163.889 164.685 164.95 164.685 166.275C164.685 167.442 164.367 168.502 163.783 169.403C163.2 170.305 162.352 170.994 161.291 171.471C160.761 171.683 160.231 171.895 159.595 172.001V173.698C159.701 174.016 159.436 174.281 159.171 174.281ZM156.785 173.221H158.64V171.63C158.64 171.365 158.852 171.153 159.117 171.1C159.807 170.994 160.443 170.835 160.973 170.57C161.875 170.146 162.511 169.616 163.041 168.873C163.518 168.131 163.73 167.283 163.73 166.328C163.73 165.215 163.465 164.366 162.882 163.73L162.829 163.677C162.246 163.041 161.238 162.511 159.86 162.139L156.732 161.238C155.83 160.973 155.141 160.655 154.717 160.231C154.239 159.807 153.974 159.223 153.974 158.64C153.974 158.11 154.133 157.58 154.505 157.155C154.823 156.731 155.247 156.413 155.83 156.201C156.36 155.989 156.944 155.883 157.633 155.883C158.322 155.883 158.958 156.042 159.489 156.307C160.019 156.572 160.496 156.943 160.92 157.474C161.185 157.845 161.397 158.269 161.556 158.693L163.465 158.322C163.253 157.58 162.882 156.89 162.458 156.36C161.928 155.671 161.238 155.141 160.443 154.77C160.019 154.557 159.542 154.451 159.064 154.345C158.799 154.292 158.64 154.08 158.64 153.815V152.171H156.785V153.762C156.785 154.027 156.572 154.239 156.307 154.292C155.671 154.398 155.141 154.557 154.664 154.77C153.868 155.141 153.232 155.671 152.808 156.36C152.384 157.049 152.172 157.845 152.172 158.746C152.172 160.708 153.232 161.98 155.459 162.67L159.648 163.995C160.39 164.207 160.973 164.525 161.344 164.897C161.769 165.321 161.981 165.851 161.981 166.487C161.981 167.389 161.609 168.131 160.814 168.714C160.072 169.244 159.171 169.509 158.057 169.509C156.944 169.509 155.883 169.191 155.088 168.502C154.399 167.919 153.868 167.23 153.603 166.328L151.748 166.646C151.96 167.495 152.278 168.184 152.702 168.82C153.285 169.562 153.974 170.146 154.876 170.57C155.353 170.782 155.936 170.941 156.466 171.047C156.732 171.1 156.891 171.312 156.891 171.577V173.221H156.785Z" fill="#121212"></path>
  <path d="M132.449 196.02L133.721 200.103C133.774 200.262 133.88 200.421 133.986 200.527C134.092 200.633 134.251 200.739 134.41 200.792L138.281 202.117C138.493 202.223 138.705 202.329 138.811 202.542C138.917 202.754 139.023 202.966 139.023 203.178C139.023 203.39 138.97 203.655 138.811 203.814C138.705 204.026 138.493 204.132 138.281 204.238L134.41 205.564C134.251 205.617 134.092 205.723 133.986 205.829C133.88 205.935 133.774 206.094 133.721 206.253L132.502 210.336C132.449 210.548 132.343 210.76 132.13 210.919C131.971 211.078 131.706 211.131 131.494 211.131C131.282 211.131 131.017 211.078 130.858 210.919C130.699 210.76 130.54 210.601 130.487 210.336L129.214 206.253C129.161 206.094 129.055 205.935 128.949 205.829C128.843 205.723 128.684 205.617 128.525 205.564L124.654 204.238C124.442 204.132 124.23 204.026 124.124 203.814C124.018 203.602 123.912 203.39 123.912 203.178C123.912 202.966 123.965 202.701 124.124 202.542C124.23 202.329 124.442 202.223 124.654 202.117L128.525 200.792C128.684 200.739 128.843 200.633 128.949 200.527C129.055 200.421 129.161 200.262 129.214 200.103L130.434 196.02C130.487 195.808 130.593 195.596 130.805 195.437C130.964 195.278 131.229 195.225 131.441 195.225C131.653 195.225 131.918 195.278 132.077 195.437C132.236 195.596 132.396 195.808 132.449 196.02Z" fill="#F8F9F9"></path>
  <path d="M131.441 195.277C131.653 195.277 131.918 195.33 132.077 195.489C132.236 195.648 132.395 195.807 132.448 196.073L133.721 200.155C133.774 200.314 133.88 200.473 133.986 200.579C134.092 200.685 134.251 200.791 134.41 200.844L138.281 202.17C138.493 202.276 138.705 202.382 138.811 202.594C138.917 202.806 139.023 203.018 139.023 203.23C139.023 203.443 138.97 203.708 138.811 203.867C138.705 204.079 138.493 204.185 138.281 204.291L134.41 205.616C134.251 205.669 134.092 205.775 133.986 205.882C133.88 205.988 133.774 206.147 133.721 206.306L132.501 210.388C132.448 210.6 132.342 210.813 132.13 210.972C131.971 211.131 131.706 211.184 131.494 211.184C131.282 211.184 131.017 211.131 130.858 210.972C130.698 210.813 130.539 210.653 130.486 210.388L129.214 206.306C129.161 206.147 129.055 205.988 128.949 205.882C128.843 205.775 128.684 205.669 128.525 205.616L124.654 204.291C124.442 204.185 124.23 204.079 124.124 203.867C124.018 203.655 123.912 203.443 123.912 203.23C123.912 203.018 123.965 202.753 124.124 202.594C124.23 202.382 124.442 202.276 124.654 202.17L128.525 200.844C128.684 200.791 128.843 200.685 128.949 200.579C129.055 200.473 129.161 200.314 129.214 200.155L130.433 196.073C130.486 195.86 130.592 195.648 130.804 195.489C130.964 195.33 131.176 195.277 131.441 195.277ZM131.441 194.217C130.964 194.217 130.486 194.376 130.168 194.641C129.797 194.906 129.532 195.33 129.426 195.754L128.206 199.837L124.336 201.163H124.283C123.859 201.322 123.541 201.587 123.275 201.958C123.01 202.329 122.904 202.753 122.904 203.23C122.904 203.655 123.063 204.079 123.275 204.45C123.541 204.821 123.859 205.086 124.283 205.245H124.336L128.206 206.571C128.206 206.571 128.206 206.571 128.206 206.624L129.426 210.706C129.532 211.131 129.797 211.555 130.168 211.82C130.539 212.085 131.017 212.244 131.441 212.244C131.918 212.244 132.395 212.085 132.713 211.82C133.084 211.555 133.35 211.131 133.456 210.706L134.675 206.624L133.933 205.882L134.728 206.624L138.546 205.298H138.599C139.023 205.139 139.341 204.821 139.606 204.503C139.871 204.132 139.977 203.708 139.977 203.283C139.977 202.859 139.818 202.382 139.606 202.064C139.341 201.693 139.023 201.428 138.599 201.269H138.546L134.675 199.943V199.89L133.456 195.807C133.35 195.383 133.084 194.959 132.713 194.694C132.342 194.323 131.865 194.217 131.441 194.217Z" fill="#121212"></path>
  <path d="M96.8177 87.0609L98.0902 91.1436C98.1432 91.3027 98.2493 91.4617 98.3553 91.5678C98.4614 91.6738 98.6204 91.7799 98.7795 91.8329L102.65 93.1584C102.862 93.2645 103.074 93.3705 103.18 93.5826C103.286 93.7947 103.392 94.0068 103.392 94.2188C103.392 94.4309 103.339 94.696 103.18 94.8551C103.074 95.0672 102.862 95.1732 102.65 95.2793L98.7795 96.6048C98.6204 96.6578 98.4614 96.7639 98.3553 96.8699C98.2493 96.976 98.1432 97.135 98.0902 97.2941L96.8707 101.377C96.8177 101.589 96.7117 101.801 96.4996 101.96C96.3405 102.119 96.0754 102.172 95.8633 102.172C95.6512 102.172 95.3861 102.119 95.2271 101.96C95.068 101.801 94.9089 101.642 94.8559 101.377L93.5834 97.2941C93.5304 97.135 93.4243 96.976 93.3183 96.8699C93.2122 96.7639 93.0532 96.6578 92.8941 96.6048L89.0235 95.2793C88.8115 95.1732 88.5994 95.0672 88.4933 94.8551C88.3873 94.643 88.2812 94.4309 88.2812 94.2188C88.2812 94.0068 88.3343 93.7417 88.4933 93.5826C88.5994 93.3705 88.8115 93.2645 89.0235 93.1584L92.8941 91.8329C93.0532 91.7799 93.2122 91.6738 93.3183 91.5678C93.4243 91.4617 93.5304 91.3027 93.5834 91.1436L94.8029 87.0609C94.8559 86.8489 94.962 86.6368 95.174 86.4777C95.3331 86.3187 95.5982 86.2656 95.8103 86.2656C96.0224 86.2656 96.2875 86.3187 96.4466 86.4777C96.6586 86.6368 96.7647 86.7958 96.8177 87.0609Z" fill="#F8F9F9"></path>
  <path d="M95.8099 86.2655C96.022 86.2655 96.2871 86.3185 96.4461 86.4776C96.6052 86.6367 96.7643 86.7957 96.8173 87.0608L98.0898 91.1435C98.1428 91.3025 98.2489 91.4616 98.3549 91.5677C98.461 91.6737 98.62 91.7797 98.7791 91.8328L102.65 93.1583C102.862 93.2643 103.074 93.3704 103.18 93.5825C103.286 93.7946 103.392 94.0066 103.392 94.2187C103.392 94.4308 103.339 94.6959 103.18 94.855C103.074 95.0671 102.862 95.1731 102.65 95.2792L98.7791 96.6047C98.62 96.6577 98.461 96.7638 98.3549 96.8698C98.2489 96.9758 98.1428 97.1349 98.0898 97.294L96.8703 101.377C96.8173 101.589 96.7112 101.801 96.4992 101.96C96.3401 102.119 96.075 102.172 95.8629 102.172C95.6508 102.172 95.3857 102.119 95.2267 101.96C95.0676 101.801 94.9085 101.642 94.8555 101.377L93.583 97.294C93.53 97.1349 93.4239 96.9758 93.3179 96.8698C93.2118 96.7638 93.0528 96.6577 92.8937 96.6047L89.0231 95.2792C88.8111 95.1731 88.599 95.0671 88.4929 94.855C88.3869 94.6429 88.2808 94.4308 88.2808 94.2187C88.2808 94.0066 88.3339 93.7415 88.4929 93.5825C88.599 93.3704 88.8111 93.2643 89.0231 93.1583L92.8937 91.8328C93.0528 91.7797 93.2118 91.6737 93.3179 91.5677C93.4239 91.4616 93.53 91.3025 93.583 91.1435L94.8025 87.0608C94.8555 86.8487 94.9615 86.6367 95.1736 86.4776C95.3327 86.3185 95.5978 86.2655 95.8099 86.2655ZM95.8099 85.2051C95.3327 85.2051 94.8555 85.3641 94.5374 85.6293C94.1662 85.8944 93.9011 86.3185 93.7951 86.7427L92.5756 90.8254L88.705 92.1509H88.652C88.2278 92.31 87.9097 92.5751 87.6446 92.9462C87.3795 93.3174 87.2734 93.7415 87.2734 94.2187C87.2734 94.6429 87.4325 95.0671 87.6446 95.4382C87.9097 95.8094 88.2278 96.0745 88.652 96.2335H88.705L92.5756 97.5591C92.5756 97.5591 92.5756 97.5591 92.5756 97.6121L93.7951 101.695C93.9011 102.119 94.1662 102.543 94.5374 102.808C94.9085 103.073 95.3857 103.232 95.8099 103.232C96.2871 103.232 96.7643 103.073 97.0824 102.808C97.4536 102.543 97.7187 102.119 97.8247 101.695L99.0442 97.6121L98.3019 96.8698L99.0972 97.6121L102.915 96.2866H102.968C103.392 96.1275 103.71 95.8094 103.975 95.4912C104.24 95.1201 104.346 94.6959 104.346 94.2717C104.346 93.8476 104.187 93.3704 103.975 93.0523C103.71 92.6811 103.392 92.416 102.968 92.2569H102.915L99.0442 90.9314V90.8784L97.8247 86.7957C97.7187 86.3715 97.4536 85.9474 97.0824 85.6823C96.7643 85.3641 96.2871 85.2051 95.8099 85.2051Z" fill="#121212"></path>
  <path d="M198.83 180.378L199.732 183.347C199.785 183.453 199.838 183.559 199.891 183.665C199.997 183.772 200.103 183.825 200.209 183.878L203.019 184.832C203.178 184.885 203.337 184.991 203.39 185.15C203.496 185.309 203.549 185.468 203.549 185.627C203.549 185.786 203.496 185.945 203.39 186.104C203.284 186.264 203.178 186.37 203.019 186.423L200.209 187.377C200.103 187.43 199.997 187.483 199.891 187.589C199.785 187.695 199.732 187.801 199.732 187.907L198.83 190.876C198.777 191.035 198.724 191.195 198.565 191.301C198.406 191.407 198.247 191.46 198.088 191.46C197.929 191.46 197.77 191.407 197.611 191.301C197.452 191.195 197.399 191.035 197.346 190.876L196.445 187.907C196.391 187.801 196.338 187.695 196.285 187.589C196.179 187.483 196.073 187.43 195.967 187.377L193.157 186.423C192.998 186.37 192.839 186.264 192.786 186.104C192.68 185.945 192.627 185.786 192.627 185.627C192.627 185.468 192.68 185.309 192.786 185.15C192.892 184.991 192.998 184.885 193.157 184.832L195.967 183.878C196.073 183.825 196.179 183.772 196.285 183.665C196.391 183.559 196.445 183.453 196.445 183.347L197.346 180.378C197.399 180.219 197.452 180.06 197.611 179.954C197.77 179.848 197.929 179.795 198.088 179.795C198.247 179.795 198.406 179.848 198.565 179.954C198.724 180.06 198.777 180.219 198.83 180.378Z" fill="#F8F9F9"></path>
  <path d="M198.088 179.795C198.247 179.795 198.406 179.848 198.565 179.954C198.724 180.06 198.777 180.219 198.83 180.378L199.732 183.347C199.785 183.453 199.838 183.559 199.891 183.665C199.997 183.771 200.103 183.824 200.209 183.877L203.019 184.832C203.178 184.885 203.337 184.991 203.39 185.15C203.496 185.309 203.549 185.468 203.549 185.627C203.549 185.786 203.496 185.945 203.39 186.104C203.284 186.263 203.178 186.369 203.019 186.422L200.209 187.377C200.103 187.43 199.997 187.483 199.891 187.589C199.785 187.695 199.732 187.801 199.732 187.907L198.83 190.876C198.777 191.035 198.724 191.194 198.565 191.3C198.406 191.406 198.247 191.46 198.088 191.46C197.929 191.46 197.77 191.406 197.611 191.3C197.452 191.194 197.399 191.035 197.346 190.876L196.444 187.907C196.391 187.801 196.338 187.695 196.285 187.589C196.179 187.483 196.073 187.43 195.967 187.377L193.157 186.422C192.998 186.369 192.839 186.263 192.786 186.104C192.68 185.945 192.627 185.786 192.627 185.627C192.627 185.468 192.68 185.309 192.786 185.15C192.892 184.991 192.998 184.885 193.157 184.832L195.967 183.877C196.073 183.824 196.179 183.771 196.285 183.665C196.391 183.559 196.444 183.453 196.444 183.347L197.346 180.378C197.399 180.219 197.452 180.06 197.611 179.954C197.77 179.848 197.929 179.795 198.088 179.795ZM198.088 178.734C197.664 178.734 197.293 178.893 196.975 179.106C196.656 179.371 196.444 179.689 196.338 180.06L195.49 182.87L192.839 183.771H192.786H192.733C192.362 183.93 192.097 184.143 191.885 184.461C191.672 184.779 191.566 185.15 191.566 185.521C191.566 185.892 191.672 186.263 191.885 186.582C192.097 186.9 192.415 187.112 192.733 187.271H192.786H192.839L195.49 188.172L196.338 190.982C196.444 191.353 196.656 191.725 196.975 191.937C197.293 192.202 197.717 192.308 198.088 192.308C198.512 192.308 198.883 192.149 199.202 191.937C199.52 191.672 199.732 191.353 199.838 190.982L200.686 188.172L203.337 187.271H203.39H203.443C203.814 187.112 204.079 186.9 204.292 186.582C204.504 186.263 204.61 185.892 204.61 185.521C204.61 185.15 204.504 184.779 204.292 184.461C204.079 184.143 203.761 183.93 203.443 183.771H203.39H203.337L200.686 182.87L199.838 180.06C199.732 179.689 199.52 179.318 199.202 179.106C198.883 178.893 198.512 178.734 198.088 178.734Z" fill="#121212"></path>
  <path d="M113.254 120.517L113.784 122.214C113.784 122.267 113.837 122.32 113.89 122.373C113.943 122.426 113.996 122.479 114.049 122.479L115.64 123.009C115.746 123.062 115.799 123.115 115.852 123.168C115.905 123.221 115.958 123.327 115.958 123.434C115.958 123.54 115.905 123.646 115.852 123.699C115.799 123.752 115.746 123.858 115.64 123.858L114.049 124.388C113.996 124.388 113.943 124.441 113.89 124.494C113.837 124.547 113.784 124.6 113.784 124.653L113.254 126.35C113.254 126.456 113.201 126.509 113.095 126.562C113.042 126.615 112.935 126.668 112.829 126.668C112.723 126.668 112.617 126.615 112.564 126.562C112.511 126.509 112.458 126.403 112.405 126.35L111.875 124.653C111.875 124.6 111.822 124.547 111.769 124.494C111.716 124.441 111.663 124.388 111.61 124.388L110.019 123.858C109.913 123.805 109.86 123.752 109.807 123.699C109.754 123.646 109.701 123.54 109.701 123.434C109.701 123.327 109.754 123.221 109.807 123.168C109.86 123.115 109.913 123.009 110.019 123.009L111.61 122.479C111.663 122.479 111.716 122.426 111.769 122.373C111.822 122.32 111.875 122.267 111.875 122.214L112.405 120.517C112.405 120.411 112.458 120.358 112.564 120.305C112.617 120.252 112.723 120.199 112.829 120.199C112.935 120.199 113.042 120.252 113.095 120.305C113.201 120.358 113.254 120.411 113.254 120.517Z" fill="#F8F9F9"></path>
  <path d="M112.83 120.199C112.936 120.199 113.042 120.252 113.095 120.305C113.148 120.358 113.201 120.464 113.254 120.517L113.784 122.214C113.784 122.267 113.837 122.32 113.89 122.373C113.943 122.426 113.996 122.479 114.049 122.479L115.64 123.009C115.746 123.062 115.799 123.115 115.852 123.168C115.905 123.221 115.958 123.327 115.958 123.433C115.958 123.539 115.905 123.645 115.852 123.699C115.799 123.752 115.746 123.858 115.64 123.858L114.049 124.388C113.996 124.388 113.943 124.441 113.89 124.494C113.837 124.547 113.784 124.6 113.784 124.653L113.254 126.35C113.254 126.456 113.201 126.509 113.095 126.562C113.042 126.615 112.936 126.668 112.83 126.668C112.724 126.668 112.618 126.615 112.564 126.562C112.511 126.509 112.458 126.403 112.405 126.35L111.875 124.653C111.875 124.6 111.822 124.547 111.769 124.494C111.716 124.441 111.663 124.388 111.61 124.388L110.019 123.858C109.913 123.805 109.86 123.752 109.807 123.699C109.754 123.645 109.701 123.539 109.701 123.433C109.701 123.327 109.754 123.221 109.807 123.168C109.86 123.115 109.913 123.009 110.019 123.009L111.61 122.479C111.663 122.479 111.716 122.426 111.769 122.373C111.822 122.32 111.875 122.267 111.875 122.214L112.405 120.517C112.405 120.411 112.458 120.358 112.564 120.305C112.671 120.252 112.724 120.199 112.83 120.199ZM112.83 119.139C112.511 119.139 112.193 119.245 111.928 119.457C111.663 119.669 111.504 119.934 111.398 120.252L110.974 121.631L109.648 122.055H109.595H109.542C109.277 122.161 109.012 122.373 108.853 122.638C108.694 122.903 108.588 123.221 108.588 123.486C108.588 123.805 108.694 124.07 108.853 124.335C109.012 124.6 109.277 124.759 109.542 124.918L110.868 125.342L111.292 126.721C111.398 127.039 111.557 127.304 111.822 127.516C112.087 127.728 112.405 127.834 112.724 127.834C113.042 127.834 113.36 127.728 113.625 127.516C113.89 127.304 114.049 127.039 114.155 126.721L114.579 125.342L115.905 124.918H115.958H116.011C116.276 124.812 116.541 124.6 116.7 124.388C116.859 124.123 116.965 123.805 116.965 123.539C116.965 123.221 116.859 122.903 116.7 122.691C116.541 122.426 116.276 122.267 116.011 122.161L114.685 121.737L114.261 120.358C114.155 120.04 113.996 119.775 113.731 119.563C113.519 119.245 113.148 119.139 112.83 119.139Z" fill="#121212"></path>
  <path d="M209.062 145.385L209.592 147.081C209.592 147.134 209.645 147.187 209.698 147.24C209.751 147.293 209.804 147.346 209.858 147.346L211.448 147.877C211.554 147.93 211.607 147.983 211.66 148.036C211.713 148.089 211.766 148.195 211.766 148.301C211.766 148.407 211.713 148.513 211.66 148.566C211.607 148.619 211.554 148.725 211.448 148.725L209.858 149.255C209.804 149.255 209.751 149.308 209.698 149.361C209.645 149.414 209.592 149.467 209.592 149.52L209.062 151.217C209.062 151.323 209.009 151.376 208.903 151.429C208.85 151.482 208.744 151.535 208.638 151.535C208.532 151.535 208.426 151.482 208.373 151.429C208.32 151.376 208.267 151.27 208.214 151.217L207.684 149.52C207.684 149.467 207.631 149.414 207.578 149.361C207.525 149.308 207.472 149.255 207.419 149.255L205.828 148.725C205.722 148.672 205.669 148.619 205.616 148.566C205.563 148.513 205.51 148.407 205.51 148.301C205.51 148.195 205.563 148.089 205.616 148.036C205.669 147.983 205.722 147.877 205.828 147.877L207.419 147.346C207.472 147.346 207.525 147.293 207.578 147.24C207.631 147.187 207.684 147.134 207.684 147.081L208.214 145.385C208.214 145.278 208.267 145.225 208.373 145.172C208.426 145.119 208.532 145.066 208.638 145.066C208.744 145.066 208.85 145.119 208.903 145.172C209.009 145.172 209.062 145.278 209.062 145.385Z" fill="#F8F9F9"></path>
  <path d="M208.638 145.014C208.744 145.014 208.85 145.067 208.903 145.12C208.956 145.173 209.009 145.279 209.062 145.332L209.593 147.028C209.593 147.081 209.646 147.134 209.699 147.187C209.752 147.24 209.805 147.293 209.858 147.293L211.448 147.824C211.554 147.877 211.607 147.93 211.66 147.983C211.713 148.036 211.766 148.142 211.766 148.248C211.766 148.354 211.713 148.46 211.66 148.513C211.607 148.566 211.554 148.672 211.448 148.672L209.858 149.202C209.805 149.202 209.752 149.255 209.699 149.308C209.646 149.361 209.593 149.414 209.593 149.467L209.062 151.164C209.062 151.27 209.009 151.323 208.903 151.376C208.85 151.429 208.744 151.482 208.638 151.482C208.532 151.482 208.426 151.429 208.373 151.376C208.32 151.323 208.267 151.217 208.214 151.164L207.684 149.467C207.684 149.414 207.631 149.361 207.578 149.308C207.525 149.255 207.472 149.202 207.419 149.202L205.828 148.672C205.722 148.619 205.669 148.566 205.616 148.513C205.563 148.46 205.51 148.354 205.51 148.248C205.51 148.142 205.563 148.036 205.616 147.983C205.669 147.93 205.722 147.824 205.828 147.824L207.419 147.293C207.472 147.293 207.525 147.24 207.578 147.187C207.631 147.134 207.684 147.081 207.684 147.028L208.214 145.332C208.214 145.226 208.267 145.173 208.373 145.12C208.479 145.067 208.532 145.014 208.638 145.014ZM208.638 143.953C208.32 143.953 208.002 144.059 207.737 144.271C207.472 144.483 207.313 144.748 207.207 145.067L206.782 146.445L205.457 146.869H205.404H205.351C205.086 146.975 204.821 147.187 204.662 147.453C204.503 147.718 204.396 148.036 204.396 148.301C204.396 148.619 204.503 148.937 204.662 149.149C204.821 149.414 205.086 149.573 205.351 149.732L206.676 150.157L207.101 151.535C207.207 151.853 207.366 152.118 207.631 152.331C207.896 152.543 208.214 152.649 208.532 152.649C208.85 152.649 209.168 152.543 209.434 152.331C209.699 152.118 209.858 151.853 209.964 151.535L210.388 150.157L211.713 149.732H211.766H211.819C212.085 149.626 212.35 149.414 212.509 149.202C212.668 148.937 212.774 148.619 212.774 148.354C212.774 148.036 212.668 147.718 212.509 147.506C212.35 147.24 212.085 147.081 211.819 146.975L210.494 146.551L210.07 145.173C209.964 144.854 209.805 144.589 209.54 144.377C209.327 144.112 208.956 143.953 208.638 143.953Z" fill="#121212"></path>
  <path d="M73.4856 138.916C70.6224 127.57 73.6977 121.313 83.3476 118.662C90.4524 116.753 94.0049 121.154 95.0123 124.07C95.7546 126.456 95.3834 128.842 94.0049 130.91C92.0431 133.879 86.9 137.75 73.9097 139.128L73.5916 139.181L73.4856 138.916Z" fill="#F8F9F9"></path>
  <path d="M73.1678 139.764L72.9557 139.022C70.0395 127.304 73.1678 120.888 83.1888 118.131C90.6648 116.117 94.4294 120.782 95.4898 123.911C96.2851 126.456 95.914 129.001 94.4294 131.228C92.3615 134.303 87.1654 138.279 73.9101 139.658L73.1678 139.764ZM86.6352 118.768C85.6808 118.768 84.6204 118.927 83.507 119.192C74.2282 121.737 71.259 127.728 73.9631 138.651C86.6882 137.272 91.6192 133.561 93.528 130.697C94.8005 128.736 95.1717 126.509 94.4824 124.282C93.7401 122.002 91.3011 118.768 86.6352 118.768Z" fill="#121212"></path>
  <path d="M48.7783 142.203C45.7561 140.613 44.3775 138.227 44.2184 137.113C43.052 129.266 51.1112 126.827 52.7549 126.403C60.1779 124.547 69.2446 124.229 73.5923 138.598L73.6984 138.863L73.4332 138.969C66.0102 142.574 60.39 143.794 56.2013 143.794C52.8609 143.847 50.475 143.105 48.7783 142.203Z" fill="#F8F9F9"></path>
  <path d="M56.0955 144.377C53.1793 144.377 50.6343 143.794 48.5134 142.68C45.3321 140.984 43.8475 138.439 43.6884 137.166C42.469 128.842 50.8994 126.297 52.596 125.872C55.7243 125.077 60.2842 124.229 64.4729 125.872C68.8736 127.622 72.0019 131.758 74.0167 138.386L74.2288 139.128L73.5395 139.446C66.9118 142.733 61.0265 144.377 56.0955 144.377ZM48.9906 141.726C50.9524 142.786 53.3384 143.316 56.0955 143.316C60.8144 143.316 66.4877 141.726 72.9563 138.598C68.7146 124.812 59.966 125.077 52.8081 126.933C51.2705 127.304 43.5824 129.637 44.6959 137.06C44.8549 137.908 46.0744 140.188 48.9906 141.726Z" fill="#121212"></path>
  <path d="M49.2029 163.517C50.7406 174.28 66.3819 182.499 83.932 179.954C112.139 175.871 114.154 165.055 112.617 154.397C111.079 143.634 99.5733 133.984 77.8345 137.112C60.2844 139.657 47.6653 152.807 49.2029 163.517Z" fill="#FCC018"></path>
  <path d="M77.4625 180.961C69.1911 180.961 61.45 178.682 55.8297 174.493C51.7471 171.418 49.2551 167.653 48.6718 163.623C47.1872 153.072 59.2761 139.287 77.6746 136.636C87.8017 135.204 96.6032 136.37 103.019 140.135C108.692 143.422 112.245 148.459 113.093 154.345C113.729 158.746 114.047 164.419 110.389 169.297C106.2 174.917 97.5576 178.576 83.9841 180.537C81.8102 180.802 79.6364 180.961 77.4625 180.961ZM49.7323 163.411C50.2625 167.176 52.5954 170.728 56.466 173.592C63.3057 178.735 73.5919 180.908 83.8781 179.424C97.1864 177.515 105.617 173.963 109.593 168.607C112.987 164.048 112.722 158.639 112.085 154.451C111.29 148.884 107.897 144.112 102.542 140.983C96.3381 137.378 87.8016 136.211 77.8866 137.59C60.0184 140.241 48.3007 153.39 49.7323 163.411Z" fill="#121212"></path>
  <path d="M105.669 153.256C106.585 152.797 106.658 151.088 105.832 149.438C105.006 147.789 103.593 146.824 102.677 147.283C101.76 147.742 101.687 149.451 102.514 151.101C103.34 152.75 104.753 153.715 105.669 153.256Z" fill="#121212"></path>
  <path d="M102.276 151.217C101.374 149.415 101.48 147.612 102.541 147.082C103.601 146.551 105.139 147.559 106.04 149.362C106.942 151.164 106.836 152.967 105.775 153.497C105.563 153.603 105.351 153.656 105.139 153.656C104.184 153.656 103.018 152.702 102.276 151.217ZM102.806 147.559C102.011 147.93 102.011 149.521 102.753 151.005C103.495 152.49 104.768 153.444 105.563 153.02C106.358 152.649 106.358 151.058 105.616 149.574C104.98 148.301 103.972 147.453 103.23 147.453C103.071 147.453 102.912 147.506 102.806 147.559Z" fill="#121212"></path>
  <path d="M105.415 150.602C105.677 150.471 105.698 149.982 105.462 149.511C105.225 149.04 104.822 148.764 104.56 148.895C104.298 149.026 104.277 149.515 104.513 149.986C104.749 150.457 105.153 150.733 105.415 150.602Z" fill="#F8F9F9"></path>
  <path d="M99.6853 155.853C100.587 155.366 100.608 153.655 99.7317 152.032C98.8554 150.409 97.4139 149.487 96.512 149.974C95.6101 150.461 95.5893 152.172 96.4656 153.795C97.3419 155.418 98.7834 156.34 99.6853 155.853Z" fill="#121212"></path>
  <path d="M97.9289 155.83C97.2927 155.406 96.7094 154.717 96.2322 153.921C95.8081 153.126 95.543 152.225 95.543 151.482C95.543 150.687 95.8611 150.051 96.3913 149.786C96.9215 149.521 97.5578 149.574 98.2471 150.051C98.8833 150.475 99.4666 151.164 99.9437 151.96C100.368 152.755 100.633 153.656 100.633 154.399C100.633 155.194 100.315 155.83 99.7847 156.095C99.5726 156.201 99.3605 156.254 99.1484 156.254C98.7773 156.201 98.3531 156.095 97.9289 155.83ZM96.6564 150.21C96.2853 150.422 96.1262 150.846 96.1262 151.482C96.1262 152.172 96.3383 152.914 96.7625 153.709C97.1866 154.452 97.7168 155.088 98.2471 155.406C98.7773 155.724 99.2545 155.83 99.5726 155.618C99.9437 155.406 100.103 154.982 100.103 154.346C100.103 153.656 99.8907 152.914 99.4666 152.119C99.0424 151.376 98.5122 150.74 97.982 150.422C97.6638 150.21 97.3457 150.104 97.0276 150.104C96.9215 150.104 96.7625 150.157 96.6564 150.21Z" fill="#121212"></path>
  <path d="M99.4436 153.263C99.7012 153.124 99.7072 152.635 99.4568 152.171C99.2065 151.707 98.7946 151.444 98.5369 151.583C98.2792 151.722 98.2733 152.211 98.5236 152.675C98.774 153.139 99.1859 153.402 99.4436 153.263Z" fill="#F8F9F9"></path>
  <mask id="mask0_4042_5918" style="mask-type:luminance" maskUnits="userSpaceOnUse" x="49" y="136" width="64" height="45">
    <path d="M49.2029 163.518C50.7406 174.281 66.3819 182.5 83.932 179.955C112.139 175.872 114.154 165.056 112.617 154.398C111.079 143.635 99.5733 133.985 77.8345 137.113C60.2844 139.658 47.6653 152.808 49.2029 163.518Z" fill="white"></path>
  </mask>
  <g mask="url(#mask0_4042_5918)">
    <path d="M73.5382 180.962C71.0462 180.75 68.7133 180.273 66.4334 179.69C56.8365 170.623 55.1398 150.687 62.4037 142.097C65.0018 140.507 67.8119 139.181 70.8341 138.174C60.1768 148.778 64.5776 170.464 73.5382 180.962Z" fill="#121212"></path>
    <path d="M73.5388 181.227C71.365 181.068 69.085 180.644 66.434 179.954H66.3809L66.3279 179.901C56.9431 171.047 54.7692 150.792 62.2453 141.938L62.2983 141.885C64.8963 140.294 67.7595 138.969 70.7817 137.908L71.8422 137.537L71.0468 138.332C60.1774 149.149 65.4796 171.047 73.7509 180.75L74.1751 181.227H73.5388ZM62.5634 142.309C55.2464 151.005 57.4203 170.729 66.593 179.477C68.979 180.113 70.9938 180.484 72.9556 180.644C68.5548 175.235 65.4796 167.441 64.6312 159.647C63.6768 151.058 65.5856 143.688 69.9864 138.81C67.2823 139.711 64.8433 140.877 62.5634 142.309Z" fill="#121212"></path>
  </g>
  <mask id="mask1_4042_5918" style="mask-type:luminance" maskUnits="userSpaceOnUse" x="49" y="136" width="64" height="45">
    <path d="M49.2029 163.518C50.7406 174.281 66.3819 182.5 83.932 179.955C112.139 175.872 114.154 165.056 112.617 154.398C111.079 143.635 99.5733 133.985 77.8345 137.113C60.2844 139.658 47.6653 152.808 49.2029 163.518Z" fill="white"></path>
  </mask>
  <g mask="url(#mask1_4042_5918)">
    <path d="M76.8802 136.53C76.8802 136.477 81.4401 136.105 83.2428 135.946C76.6682 145.861 75.1836 170.569 89.7644 179.53C87.9087 179.954 85.8939 180.325 83.72 180.643C83.1368 180.749 82.6596 180.749 82.0763 180.855C67.7075 169.032 69.6693 143.9 76.8802 136.53Z" fill="#121212"></path>
    <path d="M81.9164 181.121C73.2209 173.91 71.4182 163.041 71.153 157.208C70.7289 148.566 72.9558 140.188 76.7203 136.371C76.8263 136.265 77.3566 136.159 83.2419 135.735L83.7722 135.682L83.454 136.106C79.7425 141.673 77.2505 152.914 79.6365 163.571C81.2271 170.729 84.7796 176.19 89.9226 179.371L90.4529 179.689L89.8166 179.849C87.9608 180.273 85.893 180.644 83.7722 180.962C83.507 181.015 83.1889 181.068 82.9238 181.068C82.6587 181.121 82.3936 181.121 82.1285 181.174H82.0224L81.9164 181.121ZM79.1063 163.677C76.7733 153.179 79.1593 142.097 82.7117 136.265C80.7499 136.424 77.5156 136.689 76.9854 136.742C73.3269 140.507 71.2061 148.672 71.6302 157.155C71.9484 162.882 73.6981 173.539 82.1285 180.591C82.3936 180.538 82.6057 180.538 82.8178 180.485C83.0829 180.432 83.348 180.432 83.6131 180.379C85.5219 180.114 87.3246 179.742 89.0213 179.424C84.0903 176.19 80.6439 170.729 79.1063 163.677Z" fill="#121212"></path>
  </g>
  <mask id="mask2_4042_5918" style="mask-type:luminance" maskUnits="userSpaceOnUse" x="49" y="136" width="64" height="45">
    <path d="M49.2029 163.518C50.7406 174.281 66.3819 182.5 83.932 179.955C112.139 175.872 114.154 165.056 112.617 154.398C111.079 143.635 99.5733 133.985 77.8345 137.113C60.2844 139.658 47.6653 152.808 49.2029 163.518Z" fill="white"></path>
  </mask>
  <g mask="url(#mask2_4042_5918)">
    <path d="M59.1709 177.038C53.3915 173.645 49.468 168.926 48.7257 163.624C47.9834 158.587 50.1572 153.02 54.3459 148.142C50.3163 156.519 53.4976 171.736 59.1709 177.038Z" fill="#121212"></path>
    <path d="M59.0119 177.251C52.9675 173.698 49.203 168.873 48.4607 163.624C47.7714 158.64 49.7862 153.02 54.134 147.93L55.4065 146.445L54.5581 148.248C50.5285 156.731 53.8689 171.843 59.3301 176.88L61.0798 178.47L59.0119 177.251ZM48.9909 163.571C49.6271 168.184 52.7024 172.479 57.7394 175.819C53.2856 170.093 50.6876 157.739 53.4977 149.627C49.9453 154.239 48.3546 159.117 48.9909 163.571Z" fill="#121212"></path>
  </g>
  <path d="M68.4512 202.541C59.5436 193.687 59.4905 179.318 68.2921 170.41C77.1467 161.503 91.5155 161.45 100.423 170.251C100.476 170.304 100.529 170.357 100.582 170.41C109.49 179.265 109.543 193.634 100.741 202.541C91.8866 211.449 77.5178 211.502 68.6102 202.7C68.5572 202.647 68.5042 202.594 68.4512 202.541Z" fill="white"></path>
  <path d="M84.4106 164.737C90.1369 164.737 95.5451 166.964 99.6808 170.994C99.6808 170.994 99.6808 170.994 99.7338 171.047L99.7868 171.1L99.8399 171.153C108.323 179.53 108.376 193.316 99.9989 201.799C95.9163 205.935 90.4551 208.215 84.6227 208.215C78.8964 208.215 73.4882 205.988 69.3525 201.958C69.3525 201.958 69.3525 201.958 69.2995 201.905L69.2465 201.852L69.1935 201.799C60.71 193.422 60.657 179.636 69.0344 171.153C73.1171 167.017 78.5783 164.737 84.4106 164.737ZM84.4106 163.677C78.5783 163.677 72.6929 165.904 68.2921 170.41C59.4905 179.318 59.5436 193.687 68.4512 202.541C68.5042 202.594 68.5572 202.648 68.6102 202.701C73.064 207.101 78.8434 209.275 84.6227 209.275C90.4551 209.275 96.3404 207.048 100.741 202.541C109.543 193.634 109.49 179.265 100.582 170.41C100.529 170.357 100.476 170.304 100.423 170.251C95.9693 165.904 90.19 163.677 84.4106 163.677Z" fill="#121212"></path>
  <path d="M72.1092 198.883C65.2164 192.096 65.1633 180.962 72.0031 174.122C78.7899 167.229 89.9244 167.176 96.7641 174.016C96.8171 174.069 96.8171 174.069 96.8702 174.122C103.763 180.909 103.816 192.043 96.9762 198.883C90.1895 205.776 79.055 205.829 72.2152 198.989C72.2152 198.936 72.1622 198.936 72.1092 198.883Z" fill="white"></path>
  <path d="M84.4624 169.986C88.8102 169.986 92.9459 171.683 96.0211 174.758L96.1272 174.864C102.596 181.28 102.596 191.672 96.2332 198.141C93.1049 201.269 88.9693 203.019 84.5155 203.019C80.1677 203.019 76.032 201.322 72.9568 198.247L72.9038 198.194L72.8507 198.141C66.3821 191.725 66.3821 181.333 72.7447 174.864C75.873 171.736 80.0086 169.986 84.4624 169.986ZM84.4624 168.926C79.9556 168.926 75.4488 170.675 72.0024 174.122C65.2157 181.015 65.2687 192.096 72.1084 198.883C72.1615 198.936 72.1615 198.936 72.2145 198.989C75.6079 202.382 80.0617 204.079 84.5685 204.079C89.0753 204.079 93.5821 202.329 97.0285 198.883C103.815 191.99 103.762 180.909 96.9225 174.122C96.8695 174.069 96.8695 174.069 96.8164 174.016C93.37 170.622 88.9162 168.926 84.4624 168.926Z" fill="#121212"></path>
  <path d="M104.08 162.563C103.656 162.563 103.232 162.457 102.967 162.351C102.701 162.245 102.542 161.927 102.648 161.661C102.754 161.396 103.073 161.237 103.338 161.343C103.444 161.396 105.3 162.033 106.784 159.7C106.943 159.435 107.261 159.382 107.526 159.541C107.792 159.7 107.845 160.018 107.685 160.283C106.572 162.086 105.14 162.563 104.08 162.563Z" fill="#121212"></path>
  <path d="M87.4843 175.606L85.0454 180.431H85.9997V193.21C85.9997 194.27 85.2575 195.012 84.197 195.012C83.1366 195.012 82.3943 194.27 82.3943 193.21V184.885H83.3487L80.9097 180.007L78.4707 184.885H79.4251V193.528C79.4251 196.073 81.3339 197.663 84.25 197.663C85.6816 197.663 86.9011 197.292 87.7495 196.55C88.5978 195.808 89.075 194.747 89.075 193.528V180.431H90.0294L87.4843 175.606Z" fill="#406EF0"></path>
  <path d="M87.484 175.606L89.923 180.431H88.9686V193.528C88.9686 194.747 88.5445 195.807 87.6431 196.55C86.7948 197.292 85.5753 197.663 84.1437 197.663C81.1745 197.663 79.3187 196.02 79.3187 193.528V184.938H78.3644L80.8033 180.06L83.2423 184.938H82.2879V193.262C82.2879 194.323 83.0302 195.065 84.0907 195.065C85.1511 195.065 85.8934 194.323 85.8934 193.262V180.484H84.939L87.484 175.606ZM87.484 174.546C87.1129 174.546 86.7417 174.758 86.5827 175.076C86.5297 175.129 86.5297 175.182 86.4766 175.235L84.0376 180.007C83.8786 180.325 83.8786 180.749 84.0907 181.068C84.2497 181.333 84.5679 181.545 84.886 181.545V193.262C84.886 193.74 84.6209 194.005 84.1437 194.005C83.6665 194.005 83.4014 193.74 83.4014 193.262V185.999C83.7195 185.945 84.0377 185.786 84.1967 185.521C84.4088 185.203 84.4088 184.832 84.2497 184.461L81.8108 179.583C81.6517 179.212 81.2805 179 80.8564 179C80.4322 179 80.1141 179.212 79.902 179.583L77.463 184.461C77.3039 184.779 77.3039 185.203 77.516 185.521C77.6751 185.786 77.9932 185.999 78.3113 185.999V193.528C78.3113 196.656 80.6973 198.724 84.1967 198.724C85.8404 198.724 87.325 198.246 88.3854 197.345C89.4989 196.391 90.0821 195.065 90.0821 193.528V181.492C90.4002 181.439 90.7183 181.28 90.8774 181.015C91.0895 180.696 91.0895 180.325 90.9304 179.954L88.4914 175.182C88.4914 175.129 88.4384 175.076 88.4384 175.023C88.2263 174.758 87.8552 174.546 87.484 174.546Z" fill="#121212"></path>
</svg>
