<?xml version="1.0" encoding="UTF-8"?>
<svg xmlns="http://www.w3.org/2000/svg" width="272" height="272" viewBox="0 0 272 272" fill="none">
  <g clip-path="url(#clip0_4042_6319)">
    <path d="M39.2349 120.147L97.5054 53.923C100.475 50.5296 104.504 48.1967 108.958 47.2953C113.412 46.3939 118.025 46.9772 122.107 48.939L207.419 90.2957C210.229 91.6742 212.721 93.636 214.63 96.075C216.592 98.514 217.917 101.377 218.606 104.452L236.634 185.734C237.694 190.506 237.058 195.437 234.778 199.785C232.551 204.08 228.84 207.473 224.333 209.382L132.924 247.239C130.167 248.406 127.144 248.936 124.122 248.777C121.1 248.671 118.184 247.875 115.48 246.497L45.2793 210.23C41.8859 208.48 39.0758 205.829 37.114 202.595C35.1522 199.361 34.0918 195.649 34.0918 191.832V133.826C34.0918 128.789 35.9475 123.964 39.2349 120.147Z" fill="#C1D9FD"></path>
    <path d="M124.971 249.307C124.653 249.307 124.388 249.307 124.07 249.307C120.995 249.201 117.919 248.353 115.215 246.974L45.0679 210.708C41.6215 208.905 38.7053 206.201 36.6905 202.861C34.6757 199.52 33.6152 195.703 33.6152 191.832V133.827C33.6152 128.684 35.471 123.7 38.9174 119.776L97.1349 53.5522C100.21 50.1058 104.346 47.6668 108.906 46.7655C113.413 45.8641 118.237 46.4473 122.373 48.4621L207.685 89.8189C210.548 91.1974 213.093 93.2653 215.108 95.7573C217.069 98.2493 218.501 101.218 219.19 104.347L237.218 185.629C238.278 190.507 237.642 195.597 235.309 200.05C233.029 204.451 229.211 207.951 224.598 209.859L133.189 247.717C130.538 248.777 127.781 249.307 124.971 249.307ZM39.6597 120.518C36.4254 124.23 34.6226 128.949 34.6226 133.827V191.832C34.6226 195.544 35.63 199.149 37.5918 202.33C39.5006 205.512 42.2577 208.057 45.5451 209.753L115.745 246.02C118.343 247.346 121.26 248.141 124.176 248.247C127.092 248.353 130.061 247.823 132.765 246.709L224.121 208.905C228.522 207.102 232.128 203.762 234.301 199.573C236.475 195.385 237.112 190.507 236.104 185.894L218.077 104.612C217.441 101.643 216.062 98.8325 214.206 96.4465C212.351 94.0606 209.912 92.0988 207.154 90.8263L121.843 49.4696C117.919 47.5608 113.359 46.9775 109.065 47.8259C104.77 48.6742 100.793 51.0072 97.9302 54.2945L39.6597 120.518Z" fill="#121212"></path>
    <mask id="mask0_4042_6319" style="mask-type:luminance" maskUnits="userSpaceOnUse" x="12" y="9" width="226" height="240">
      <path d="M236.635 185.787L218.608 104.506C217.919 101.43 216.593 98.6202 214.631 96.1282C212.669 93.6892 210.23 91.6744 207.42 90.3488L186.212 80.0627V9.8623H12.1953V156.361H34.0932V191.885C34.0932 195.702 35.1536 199.414 37.1154 202.648C39.0772 205.883 41.9403 208.534 45.2807 210.283L115.481 246.55C118.132 247.929 121.101 248.724 124.124 248.83C127.146 248.936 130.115 248.406 132.925 247.292L224.334 209.435C228.841 207.579 232.552 204.186 234.779 199.838C237.006 195.49 237.696 190.506 236.635 185.787Z" fill="white"></path>
    </mask>
    <g mask="url(#mask0_4042_6319)">
      <path d="M182.499 249.254C185.257 287.058 187.908 342.095 188.067 359.274C188.279 383.929 188.438 459.537 188.491 469.346C188.491 469.929 188.014 470.407 187.43 470.46L150.74 471.679C150.103 471.679 149.626 471.202 149.626 470.619C149.573 457.363 148.831 330.695 145.49 300.791C145.331 299.518 143.529 299.465 143.317 300.738C141.62 312.085 144.006 454.659 142.362 472.846C142.309 473.429 141.779 473.906 141.196 473.853L103.073 470.725C102.49 470.672 102.013 470.141 102.066 469.558C103.179 453.281 98.2483 256.147 106.149 243.952C106.308 243.687 110.602 244.005 110.92 243.952C116.382 242.786 181.068 229.901 182.499 249.254Z" fill="#C6B8A5"></path>
      <path d="M141.249 474.33C141.196 474.33 141.143 474.33 141.09 474.33L102.968 471.202C102.067 471.149 101.43 470.354 101.483 469.452C101.801 464.839 101.642 445.221 101.43 420.301C100.847 353.441 99.9457 252.435 105.672 243.634C105.884 243.263 106.202 243.21 109.49 243.369C110.073 243.369 110.709 243.422 110.815 243.422C116.382 242.255 165.639 232.499 179.425 242.892C181.652 244.588 182.871 246.709 183.03 249.254C185.787 286.899 188.438 342.148 188.598 359.327C188.81 384.141 188.969 460.704 189.022 469.399C189.022 470.301 188.332 470.99 187.431 471.043L150.74 472.262C150.263 472.262 149.892 472.103 149.574 471.785C149.256 471.467 149.097 471.043 149.097 470.619C149.044 456.356 148.301 330.642 144.961 300.844C144.908 300.367 144.484 300.367 144.431 300.367C144.325 300.367 143.953 300.367 143.847 300.844C142.999 306.517 143.158 346.336 143.317 384.83C143.476 423.695 143.688 463.832 142.84 472.899C142.787 473.694 142.098 474.33 141.249 474.33ZM106.467 244.376C101.006 254.026 101.96 358.054 102.491 420.301C102.703 446.176 102.862 464.892 102.544 469.505C102.544 469.823 102.756 470.088 103.074 470.088L141.196 473.217C141.514 473.27 141.78 473.005 141.78 472.687C142.575 463.673 142.416 423.536 142.257 384.724C142.098 344.428 141.886 306.305 142.787 300.579C142.893 299.731 143.582 299.147 144.431 299.2C145.279 299.2 145.915 299.784 146.021 300.632C149.362 330.43 150.051 456.25 150.157 470.513C150.157 470.672 150.21 470.831 150.316 470.937C150.422 471.043 150.581 471.096 150.74 471.096L187.431 469.876C187.749 469.876 187.961 469.611 187.961 469.293C187.961 460.651 187.749 384.035 187.537 359.221C187.378 342.095 184.727 286.846 181.97 249.201C181.811 246.974 180.75 245.118 178.789 243.634C173.274 239.445 160.443 238.12 141.78 239.816C127.146 241.142 113.625 243.846 111.027 244.376C110.868 244.429 110.603 244.376 109.49 244.376C108.588 244.376 106.998 244.323 106.467 244.376Z" fill="#121212"></path>
      <path d="M213.518 186.689C213.518 186.689 200.58 158.959 198.884 155.194C194.377 144.961 184.727 125.025 175.925 117.072L175.872 117.019C175.713 116.913 175.607 116.807 175.448 116.648C175.289 116.541 175.183 116.382 175.024 116.276C174.918 116.17 174.812 116.117 174.706 116.011C174.653 115.958 174.653 115.958 174.6 115.905C164.473 107.846 154.505 108.588 154.505 108.588C147.294 122.904 137.856 120.995 132.448 117.072C128.312 114.049 126.403 109.808 126.403 109.808C126.403 109.808 109.383 111.717 99.4685 122.215C94.2724 127.676 88.1219 144.272 80.7519 157.103C74.2833 168.396 66.3301 176.35 66.3301 178.046C66.5952 186.795 76.8283 214.843 90.5609 204.928C94.3784 202.171 94.8026 201.323 97.2416 197.293C102.12 189.181 108.747 142.098 107.104 166.594C105.884 184.621 99.6806 259.116 99.6806 259.116L124.176 274.598L143.741 258.851L188.438 266.009C188.438 266.009 184.144 236.953 181.334 199.679C189.287 204.61 199.626 210.071 206.625 210.336C213.359 210.602 215.479 205.246 215.957 200.05C216.434 195.49 215.532 190.878 213.518 186.689ZM180.114 177.516L177.357 155.777L186.636 180.273L180.114 177.516Z" fill="#8AA23B"></path>
      <path d="M124.23 275.182C124.124 275.182 124.018 275.129 123.965 275.076L99.4694 259.594C99.3103 259.487 99.2043 259.275 99.2043 259.116C99.2573 258.374 105.408 184.409 106.627 166.594C106.733 164.685 106.839 163.36 106.839 162.352C106.309 164.42 105.673 167.601 104.984 170.677C102.916 180.326 100.106 193.582 97.7197 197.611L97.4546 198.036C95.2277 201.8 94.6975 202.648 90.8799 205.406C87.4866 207.845 84.0402 208.269 80.6468 206.572C71.7922 202.224 66.0129 184.621 65.8008 178.1C65.8008 177.198 66.8612 175.767 69.5653 172.32C72.5345 168.503 76.6172 163.307 80.2756 156.891C83.2448 151.695 85.9489 145.969 88.6 140.454C92.5236 132.289 95.917 125.184 99.0452 121.897C109.013 111.399 126.139 109.384 126.351 109.331C126.563 109.331 126.775 109.437 126.881 109.649C126.881 109.702 128.79 113.785 132.767 116.701C134.676 118.079 138.493 120.253 143 119.14C147.242 118.132 150.953 114.527 154.028 108.429C154.135 108.27 154.294 108.164 154.453 108.164C154.877 108.111 164.739 107.528 174.919 115.64L175.025 115.693C175.131 115.799 175.237 115.905 175.343 115.958C175.502 116.064 175.661 116.224 175.767 116.33L175.926 116.436C176.032 116.489 176.085 116.595 176.191 116.648C176.191 116.648 176.244 116.701 176.297 116.754C185.523 125.184 195.491 146.34 199.362 155.035C201.005 158.747 213.837 186.265 213.996 186.53C216.064 190.931 216.965 195.65 216.541 200.263C215.851 207.526 212.458 211.238 206.626 211.026C199.68 210.761 189.553 205.459 181.971 200.793C184.781 237.112 188.917 265.744 188.97 266.009C188.97 266.168 188.917 266.327 188.811 266.486C188.704 266.592 188.545 266.645 188.333 266.645L143.901 259.541L124.549 275.129C124.496 275.129 124.336 275.182 124.23 275.182ZM100.265 258.851L124.177 273.962L143.424 258.427C143.53 258.321 143.689 258.268 143.848 258.321L187.803 265.373C187.114 260.654 183.349 233.401 180.804 199.732C180.804 199.52 180.91 199.361 181.069 199.255C181.228 199.149 181.441 199.149 181.6 199.255C189.182 203.921 199.627 209.594 206.626 209.859C211.822 210.071 214.791 206.784 215.427 200.05C215.851 195.65 215.003 191.09 212.988 186.901C212.882 186.636 199.998 159.118 198.354 155.406C194.537 146.764 184.622 125.714 175.555 117.443L175.502 117.39C175.449 117.337 175.343 117.284 175.29 117.178L175.131 117.072C174.972 116.966 174.866 116.807 174.707 116.701C174.601 116.595 174.495 116.542 174.389 116.436L174.283 116.383C165.375 109.278 156.52 109.119 154.824 109.119C151.643 115.322 147.719 119.034 143.265 120.094C138.334 121.261 134.198 118.981 132.131 117.443C128.578 114.845 126.669 111.452 126.086 110.338C123.541 110.709 108.748 113.148 99.8406 122.533C96.8183 125.714 93.3189 133.084 89.6074 140.825C86.9563 146.393 84.1992 152.119 81.23 157.315C77.5185 163.784 73.2768 169.245 70.4667 172.85C68.717 175.077 66.9142 177.41 66.9142 177.94C67.0203 180.804 68.2928 186.636 70.9969 192.627C73.9131 199.149 77.5185 203.762 81.177 205.512C84.1992 206.996 87.2745 206.625 90.3497 204.398C93.9552 201.8 94.4324 201.058 96.6062 197.346L96.8713 196.922C99.2043 193.052 101.961 179.902 104.029 170.358C106.362 159.277 106.574 158.906 107.37 159.012C108.006 159.118 108.271 159.118 107.741 166.541C106.521 183.826 100.742 253.496 100.265 258.851ZM186.69 180.804C186.637 180.804 186.531 180.804 186.478 180.751L179.903 177.994C179.744 177.941 179.585 177.781 179.585 177.569L176.828 155.831C176.775 155.565 176.987 155.3 177.252 155.247C177.517 155.194 177.782 155.3 177.888 155.565L187.167 180.061C187.22 180.273 187.167 180.486 187.061 180.645C186.955 180.751 186.796 180.804 186.69 180.804ZM180.592 177.145L185.735 179.266L178.418 160.072L180.592 177.145Z" fill="#121212"></path>
      <path d="M80.8062 140.349C81.0713 143.053 81.3894 142.628 82.0787 144.908C82.9271 147.719 84.4647 153.551 85.313 156.944C86.0553 159.807 85.7372 162.883 84.1996 165.428C83.0331 167.443 81.0713 169.351 77.784 169.935C69.9368 171.366 68.1871 165.216 67.4448 162.565C66.8616 160.444 66.3844 148.514 66.5434 144.749C66.5965 143.848 65.8542 143.371 65.2709 142.682C64.1575 141.409 49.7356 128.949 48.7812 127.358C52.3337 121.314 61.0822 114.209 61.0822 114.209L61.1883 111.558C64.5286 110.975 70.6791 118.875 72.8 121.738C73.1711 122.215 73.9134 122.215 74.2315 121.685C74.7618 120.837 75.5571 119.617 76.0873 118.928C77.0417 117.496 78.3672 115.428 79.3746 113.52C80.9122 110.551 84.5177 108.271 86.6916 109.278C87.2748 109.543 87.4869 110.285 87.0627 110.816L84.6237 114.209C82.1848 118.451 82.5029 123.753 81.6545 130.009C81.4955 131.706 80.6471 138.334 80.8062 140.349Z" fill="#C68F79"></path>
      <path d="M75.6632 170.676C69.3006 170.676 67.71 165.003 67.0207 162.723C66.3845 160.496 65.9603 148.301 66.0663 144.749C66.0663 144.325 65.8012 143.954 65.324 143.476C65.165 143.317 65.0589 143.211 64.8999 143.052C64.5287 142.575 61.9837 140.348 59.3326 137.962C53.4472 132.713 48.9404 128.577 48.3041 127.623C48.1981 127.464 48.1981 127.252 48.3041 127.093C51.5915 121.472 59.2266 115.057 60.5521 113.943L60.6581 111.557C60.6581 111.292 60.8702 111.08 61.0823 111.08C64.5287 110.444 70.149 117.337 73.2242 121.473C73.3303 121.579 73.4363 121.632 73.4893 121.632C73.5424 121.632 73.6484 121.632 73.7544 121.473C74.3377 120.571 75.08 119.405 75.6632 118.662C76.5646 117.284 77.8901 115.269 78.8975 113.307C80.4882 110.232 84.3057 107.634 86.9568 108.8C87.3809 109.012 87.6991 109.384 87.8051 109.808C87.9112 110.285 87.8581 110.762 87.54 111.133L85.101 114.474C83.4043 117.443 83.0862 120.942 82.7151 125.025C82.556 126.616 82.3969 128.312 82.1848 130.062C81.9197 132.13 81.1244 138.439 81.2835 140.295C81.4425 141.939 81.6016 142.31 81.9197 142.999C82.0788 143.423 82.2909 143.901 82.556 144.749C83.4043 147.559 84.942 153.497 85.7903 156.785C86.5856 159.807 86.1615 163.041 84.6238 165.639C83.0862 168.237 80.8063 169.881 77.8371 170.411C77.1478 170.57 76.3525 170.676 75.6632 170.676ZM49.4706 127.305C50.6371 128.736 56.3104 133.773 60.0749 137.167C63.3092 140.03 65.271 141.833 65.6952 142.31C65.8012 142.469 65.9603 142.575 66.0663 142.734C66.5965 143.264 67.1268 143.848 67.1268 144.749C66.9677 148.566 67.4449 160.443 68.0281 162.405C68.8234 165.109 70.4141 170.729 77.731 169.404C80.3821 168.927 82.3969 167.495 83.7755 165.162C85.154 162.829 85.5252 159.86 84.7829 157.103C83.9345 153.816 82.3969 147.877 81.5486 145.12C81.2835 144.325 81.1244 143.848 80.9654 143.476C80.6472 142.787 80.4351 142.257 80.2761 140.454C80.064 138.121 81.1774 130.062 81.1774 129.956C81.4425 128.206 81.5486 126.563 81.7077 124.972C82.0788 120.73 82.3969 117.125 84.2527 113.943C84.2527 113.943 84.2527 113.89 84.3057 113.89L86.7447 110.497C86.8507 110.391 86.8507 110.232 86.7977 110.073C86.7977 109.967 86.6917 109.861 86.5326 109.755C84.6769 108.906 81.3365 110.921 79.9049 113.784C78.8975 115.746 77.519 117.867 76.5646 119.246C76.0344 119.935 75.239 121.101 74.7088 122.003C74.4437 122.374 74.0195 122.639 73.5954 122.639C73.1182 122.639 72.694 122.427 72.4289 122.056C68.8765 117.231 64.3166 112.194 61.7716 112.035L61.6655 114.209C61.6655 114.368 61.6125 114.527 61.4535 114.58C61.3474 114.633 53.0231 121.473 49.4706 127.305Z" fill="#121212"></path>
      <path d="M66.8086 144.483C66.8086 144.483 69.2476 145.597 70.6261 145.597Z" fill="#C68F79"></path>
      <path d="M70.6264 146.127C69.1418 146.127 66.7028 145.014 66.5968 144.961C66.3317 144.855 66.2256 144.537 66.3317 144.272C66.4377 144.006 66.7558 143.9 67.0209 144.006C67.6572 144.325 69.566 145.067 70.6264 145.067C70.9445 145.067 71.1566 145.332 71.1566 145.597C71.1566 145.915 70.8915 146.127 70.6264 146.127Z" fill="#121212"></path>
      <path d="M73.9121 145.279C73.9121 145.279 75.4497 145.173 76.8283 144.483Z" fill="#C68F79"></path>
      <path d="M73.913 145.809C73.6479 145.809 73.3828 145.597 73.3828 145.332C73.3828 145.014 73.5949 144.802 73.86 144.749C73.86 144.749 75.2916 144.643 76.6171 144.006C76.8822 143.9 77.2004 143.953 77.3064 144.218C77.4124 144.483 77.3594 144.802 77.0943 144.908C75.6097 145.703 74.0191 145.809 73.913 145.809Z" fill="#121212"></path>
      <path d="M66.1202 112.088L55.834 120.2C53.9783 121.631 53.7662 124.389 55.4098 126.032L55.3568 126.085C56.7354 127.464 60.659 126.456 62.1966 125.343L72.1116 117.761C72.1646 117.708 69.2484 111.08 66.1202 112.088Z" fill="#F8F9F9"></path>
      <path d="M57.53 127.252C56.5226 127.252 55.6213 127.04 55.038 126.456C54.985 126.403 54.932 126.297 54.879 126.244C54.0836 125.343 53.7125 124.229 53.8185 123.01C53.9246 121.737 54.5608 120.571 55.5682 119.776L65.8544 111.716C65.9074 111.663 65.9604 111.663 66.0135 111.61C67.0739 111.239 68.7706 111.451 70.7854 114.208C71.8988 115.799 72.6411 117.443 72.6942 117.496C72.8002 117.708 72.7472 117.973 72.5351 118.132L62.6201 125.714C61.4536 126.509 59.3328 127.252 57.53 127.252ZM55.9394 125.82C57.1589 126.668 60.4992 125.873 61.9308 124.866L71.5277 117.549C70.6263 115.693 68.3994 112.035 66.4376 112.565L56.2575 120.571C55.4622 121.154 54.985 122.056 54.932 123.01C54.879 123.964 55.1971 124.919 55.8864 125.608C55.8333 125.714 55.8864 125.767 55.9394 125.82Z" fill="#121212"></path>
      <path d="M86.1614 115.429C84.1466 120.254 77.678 123.541 72.5349 119.405L70.4671 117.337C62.2487 109.013 52.0156 102.969 40.775 99.7873L39.1844 99.3101L20.998 94.114L59.8628 55.5674L64.7938 73.3296L65.377 75.3974C68.5053 86.6379 74.4967 96.9241 82.715 105.248L84.7298 107.316C87.1158 109.808 87.2749 112.831 86.1614 115.429Z" fill="#F8F9F9"></path>
      <path d="M77.6773 121.791C75.7155 121.791 73.8597 121.101 72.2161 119.776C72.2161 119.776 72.1631 119.776 72.1631 119.723L70.0952 117.655C61.9299 109.437 51.7498 103.392 40.6153 100.211L39.0247 99.7338L20.8383 94.5377C20.6792 94.4847 20.5202 94.3256 20.4671 94.1665C20.4141 94.0075 20.4672 93.7954 20.6262 93.6363L59.4909 55.0897C59.65 54.9837 59.8091 54.9307 60.0211 54.9307C60.1802 54.9837 60.3393 55.1428 60.3923 55.3018L65.3233 73.064C65.3233 73.117 65.3233 73.117 65.3233 73.17L65.8535 75.1318C68.9287 86.2663 74.9202 96.4995 83.0325 104.718L85.0473 106.786C87.2742 109.278 87.8574 112.459 86.5319 115.534C85.3124 118.397 82.7143 120.677 79.6921 121.473C79.1089 121.685 78.4196 121.791 77.6773 121.791ZM72.9054 118.981C75.3974 120.995 77.8894 120.889 79.5861 120.465C82.2371 119.776 84.6231 117.708 85.7365 115.163C86.85 112.512 86.3728 109.702 84.464 107.528L82.4492 105.513C74.1779 97.1888 68.1334 86.7435 65.0052 75.45L64.4219 73.3821C64.4219 73.3291 64.4219 73.3291 64.4219 73.2761L59.756 56.4683L22.0578 93.8484L40.9334 99.2566C52.227 102.491 62.5662 108.641 70.8375 116.966L72.9054 118.981Z" fill="#121212"></path>
      <path d="M64.8992 73.2765C59.332 86.5319 48.6216 95.4925 39.2899 99.3101L21.1035 94.114L59.9682 55.5674L64.8992 73.2765Z" fill="#FCC018"></path>
      <path d="M39.2364 99.8402C39.1834 99.8402 39.1304 99.8402 39.0774 99.8402L20.891 94.6441C20.732 94.5911 20.5729 94.432 20.5199 94.273C20.4669 94.1139 20.5199 93.9018 20.6789 93.7428L59.5437 55.1962C59.7027 55.0901 59.8618 55.0371 60.0739 55.0371C60.2329 55.0901 60.392 55.2492 60.445 55.4083L65.376 73.1704C65.429 73.2765 65.376 73.3825 65.376 73.5416C59.4906 87.5392 48.1441 96.2878 39.4485 99.8402C39.3955 99.8402 39.3425 99.8402 39.2364 99.8402ZM22.0575 93.8488L39.1834 98.7798C47.6138 95.2804 58.5363 86.7969 64.2626 73.2765L59.5967 56.5747L22.0575 93.8488Z" fill="#121212"></path>
      <path d="M44.1945 78.5409C54.9241 67.902 61.9674 57.6086 59.9262 55.55C57.8851 53.4914 47.5323 60.4471 36.8027 71.0861C26.0731 81.725 19.0297 92.0184 21.0709 94.077C23.1121 96.1356 33.4649 89.1798 44.1945 78.5409Z" fill="#FCC018"></path>
      <path d="M22.111 95.0147C21.4748 95.0147 20.9976 94.8557 20.6795 94.4845C18.0284 91.8334 26.8299 80.2748 36.4268 70.7309C46.0237 61.187 57.6884 52.4915 60.3395 55.1956C62.9906 57.8467 54.189 69.4054 44.5921 78.9492C39.396 84.1453 34.0939 88.5991 29.6931 91.5683C26.2467 93.8483 23.7017 95.0147 22.111 95.0147ZM37.1691 71.4732C25.3453 83.191 20.0432 92.3106 21.4218 93.7422C22.005 94.3255 24.3379 93.8483 29.0568 90.667C33.4046 87.7508 38.6537 83.297 43.7968 78.2069C55.6206 66.4892 60.9227 57.3695 59.5442 55.9379C58.1656 54.5063 48.9929 59.7555 37.1691 71.4732Z" fill="#121212"></path>
      <mask id="mask1_4042_6319" style="mask-type:luminance" maskUnits="userSpaceOnUse" x="20" y="54" width="41" height="41">
        <path d="M43.9197 78.2164C54.6493 67.5774 61.7428 57.3346 59.7635 55.3384C57.7842 53.3422 47.4815 60.3485 36.7519 70.9874C26.0223 81.6264 18.9288 91.8692 20.9081 93.8654C22.8875 95.8616 33.1901 88.8553 43.9197 78.2164Z" fill="white"></path>
      </mask>
      <g mask="url(#mask1_4042_6319)">
        <path d="M37.9644 80.805L39.9792 82.8728C42.3121 85.2588 46.1827 85.2588 48.5156 82.9258C50.9016 80.5929 50.9016 76.7223 48.5686 74.3894L46.5538 72.3215C44.2209 69.9356 40.3503 69.9356 38.0174 72.2685C35.6314 74.6015 35.5784 78.419 37.9644 80.805Z" fill="#4396F9"></path>
        <path d="M44.2731 85.206C42.4703 85.206 40.8267 84.5167 39.6072 83.2442L37.5924 81.1764C36.3729 79.9038 35.6836 78.2602 35.6836 76.5105C35.6836 74.7608 36.3729 73.1171 37.6454 71.8446C40.2434 69.2995 44.3791 69.2996 46.9772 71.8976L48.992 73.9654C50.2115 75.2379 50.9007 76.8816 50.9007 78.6313C50.9007 80.381 50.2115 82.0247 48.939 83.2972C47.6664 84.5167 46.0228 85.206 44.2731 85.206ZM42.2582 71.0493C40.8267 71.0493 39.4481 71.5795 38.3877 72.6399C37.3273 73.7003 36.744 75.0789 36.744 76.5635C36.744 78.0481 37.3273 79.4266 38.3347 80.4871L40.3495 82.5549C41.4099 83.6153 42.7885 84.1986 44.2731 84.1986C45.7577 84.1986 47.1362 83.6153 48.1436 82.6079C49.2041 81.5475 49.7873 80.1689 49.7873 78.6843C49.7873 77.1997 49.2041 75.8212 48.1967 74.7608L46.1818 72.6929C45.1214 71.5795 43.6898 71.0493 42.2582 71.0493Z" fill="#121212"></path>
      </g>
      <path d="M51.6959 124.018C54.1879 126.404 60.4975 129.744 60.4975 129.744C61.3988 130.38 62.6183 130.327 63.3076 129.585C63.9439 128.843 63.7848 127.729 62.8834 127.04C62.8834 127.04 56.7329 121.155 55.0893 120.094C52.4382 118.45 49.8401 122.268 51.6959 124.018Z" fill="#C68F79"></path>
      <path d="M61.8764 130.751C61.2932 130.751 60.7099 130.592 60.2328 130.221C59.6495 129.903 53.8172 126.774 51.3252 124.441C50.1587 123.328 50.4238 121.631 51.2721 120.518C52.1205 119.404 53.7641 118.715 55.4078 119.723C57.0515 120.783 62.7778 126.244 63.255 126.668C63.7852 127.093 64.1563 127.729 64.2094 128.365C64.2624 128.948 64.1033 129.532 63.6791 129.956C63.255 130.486 62.5657 130.751 61.8764 130.751ZM53.7111 120.253C53.0218 120.253 52.4386 120.624 52.0675 121.154C51.4842 121.896 51.3252 122.957 52.0144 123.646C54.4534 125.979 60.6569 129.266 60.71 129.319L60.763 129.372C61.3992 129.85 62.3536 129.85 62.8308 129.319C63.0959 129.054 63.0959 128.736 63.0959 128.524C63.0429 128.153 62.8308 127.835 62.5127 127.57L62.4597 127.517C62.4066 127.464 56.3622 121.684 54.7185 120.677C54.4534 120.359 54.0823 120.253 53.7111 120.253Z" fill="#121212"></path>
      <path d="M54.6131 119.034C56.8931 121.685 63.3086 126.404 63.3086 126.404C64.104 127.146 65.3235 127.199 66.0127 126.51C66.702 125.82 66.649 124.654 65.8537 123.912C65.8537 123.912 60.0213 116.913 58.3246 115.163C56.734 113.36 52.9164 117.072 54.6131 119.034Z" fill="#C68F79"></path>
      <path d="M64.7941 127.57C64.1578 127.57 63.5215 127.358 62.9913 126.881C62.4611 126.51 56.4697 122.056 54.1898 119.405C53.0763 118.079 53.7656 116.277 55.0381 115.163C56.3106 113.997 57.8482 113.838 58.8026 114.792C60.4463 116.542 65.9075 123.063 66.3317 123.541C66.8089 124.018 67.127 124.654 67.127 125.29C67.127 125.874 66.9149 126.457 66.4907 126.881C65.9605 127.305 65.3773 127.57 64.7941 127.57ZM55.0381 118.716C57.265 121.314 63.6276 125.98 63.6806 126.033L63.7336 126.086C64.3169 126.616 65.2182 126.669 65.6954 126.192C65.9075 125.98 66.0135 125.661 66.0135 125.343C66.0135 124.972 65.8545 124.601 65.5364 124.336L65.4833 124.283C65.4303 124.23 59.651 117.284 58.0073 115.534C57.3711 114.845 56.2576 115.481 55.7274 115.959C54.879 116.701 54.3488 117.92 55.0381 118.716Z" fill="#121212"></path>
      <path d="M48.8328 127.358C51.3778 130.486 57.2632 132.66 59.119 132.024C59.5431 131.918 59.8613 131.705 60.0734 131.387C60.2854 131.069 60.2854 130.698 60.1794 130.38C60.0203 130.062 59.7552 129.797 59.3311 129.585C55.7786 127.835 54.8773 126.615 51.696 124.335C50.1053 123.222 47.6663 125.926 48.8328 127.358Z" fill="#C68F79"></path>
      <path d="M58.3236 132.659C55.6725 132.659 50.6885 130.433 48.4086 127.675C47.7193 126.827 47.9314 125.555 48.8858 124.494C49.8402 123.487 51.1127 123.222 52.0141 123.858C53.0215 124.6 53.8168 125.183 54.5061 125.767C55.9907 126.933 57.2102 127.887 59.5961 129.054C60.0733 129.266 60.4975 129.637 60.6566 130.114C60.8686 130.592 60.8156 131.175 60.5505 131.599C60.2854 132.023 59.8082 132.341 59.278 132.5C58.9599 132.606 58.6948 132.659 58.3236 132.659ZM49.2039 126.986C51.5899 129.955 57.2632 132.023 58.9068 131.493C59.225 131.387 59.4371 131.281 59.5961 131.069C59.7022 130.857 59.7022 130.645 59.6491 130.539C59.5431 130.326 59.384 130.167 59.1189 130.008C56.6269 128.736 55.4074 127.781 53.8698 126.615C53.1805 126.085 52.3852 125.448 51.4308 124.759C50.9006 124.388 50.1583 124.706 49.6811 125.236C49.1509 125.767 48.8328 126.509 49.2039 126.986Z" fill="#121212"></path>
      <path d="M59.2271 115.11C60.9768 118.079 66.2789 123.328 66.2789 123.328C66.9152 124.177 68.1347 124.389 68.93 123.806C69.7253 123.222 69.8314 122.003 69.1951 121.155C69.1951 121.155 64.4232 113.838 63.1507 112.406C61.0298 110.073 57.9015 112.883 59.2271 115.11Z" fill="#C68F79"></path>
      <path d="M67.8693 124.654C67.127 124.654 66.3847 124.282 65.8545 123.646C65.4303 123.222 60.4993 118.291 58.7496 115.375C57.9012 113.943 58.5905 112.353 59.6509 111.557C60.6584 110.815 62.249 110.656 63.4685 112.035C64.794 113.466 69.3539 120.518 69.566 120.836C69.9371 121.366 70.1492 122.056 70.0432 122.692C69.9371 123.275 69.672 123.805 69.1948 124.176C68.8237 124.495 68.3465 124.654 67.8693 124.654ZM61.3476 112.035C60.8704 112.035 60.4463 112.3 60.2872 112.406C59.5979 112.936 59.1207 113.89 59.6509 114.792C61.3476 117.708 66.5437 122.851 66.5968 122.904L66.6498 122.957C67.127 123.593 67.9753 123.752 68.5586 123.328C68.8237 123.169 68.9827 122.851 69.0357 122.533C69.0888 122.162 68.9827 121.737 68.7176 121.419C68.6646 121.313 63.9457 114.102 62.7262 112.724C62.249 112.194 61.7718 112.035 61.3476 112.035Z" fill="#121212"></path>
      <path d="M150.795 102.914L158.43 115.056L140.031 120.73L124.178 115.215L130.805 101.96C131.071 101.96 150.795 102.914 150.795 102.914Z" fill="#C68F79"></path>
      <path d="M140.031 121.207C139.978 121.207 139.924 121.207 139.871 121.154L124.018 115.64C123.859 115.587 123.753 115.48 123.7 115.321C123.647 115.162 123.647 115.003 123.7 114.897L130.328 101.642C130.434 101.43 130.646 101.324 130.858 101.377C131.176 101.377 144.06 102.013 150.847 102.384C151.006 102.384 151.165 102.49 151.271 102.649L158.906 114.791C159.012 114.95 159.012 115.109 158.959 115.268C158.906 115.427 158.8 115.534 158.641 115.587L140.243 121.26C140.137 121.207 140.084 121.207 140.031 121.207ZM124.919 114.897L140.031 120.146L157.581 114.738L150.476 103.445C147.719 103.286 133.562 102.596 131.07 102.49L124.919 114.897Z" fill="#121212"></path>
      <path d="M164.05 74.8669C164.05 74.8669 165.694 66.5425 171.739 68.6103C177.783 70.6782 176.669 76.2985 175.874 77.9951C175.079 79.6918 172.693 81.8127 170.095 82.555C167.497 83.3503 164.475 83.1912 164.475 83.1912C160.551 99.5218 153.764 104.718 138.812 104.347C120.361 103.87 118.929 83.1912 118.929 83.1912C107.264 82.9261 103.659 72.3749 109.969 69.0875C116.278 65.8002 119.724 75.0259 119.724 75.0259" fill="#C68F79"></path>
      <path d="M140.243 104.877C139.766 104.877 139.289 104.877 138.811 104.877C121.685 104.453 118.822 86.8497 118.451 83.7214C111.452 83.4033 107.423 79.4797 106.574 75.6622C105.885 72.693 107.105 69.9889 109.756 68.6634C111.399 67.815 113.043 67.6559 114.581 68.2392C118.239 69.6177 120.201 74.6548 120.254 74.8669C120.36 75.132 120.201 75.4501 119.936 75.5561C119.671 75.6622 119.353 75.5031 119.246 75.238C119.246 75.185 117.391 70.4661 114.156 69.2466C112.884 68.7694 111.558 68.8754 110.18 69.6177C107.953 70.7842 106.999 72.9581 107.582 75.4501C108.377 78.9495 112.248 82.555 118.928 82.714C119.193 82.714 119.406 82.9261 119.459 83.1912C119.459 83.2443 119.83 88.3343 122.428 93.4244C125.874 100.158 131.388 103.658 138.811 103.87C153.763 104.241 160.126 98.9916 163.944 83.1382C163.997 82.8731 164.209 82.714 164.474 82.714C164.527 82.714 167.443 82.8201 169.935 82.0778C172.48 81.3355 174.707 79.3207 175.396 77.783C175.82 76.8287 176.404 74.4957 175.502 72.4279C174.866 70.8903 173.54 69.7768 171.579 69.1405C170.253 68.6634 169.034 68.7694 167.973 69.3526C165.428 70.8372 164.58 74.9729 164.58 75.0259C164.527 75.291 164.262 75.5031 163.944 75.4501C163.678 75.3971 163.466 75.132 163.519 74.8138C163.572 74.6018 164.474 70.148 167.39 68.4513C168.715 67.709 170.2 67.6029 171.844 68.1331C174.124 68.8754 175.661 70.201 176.404 72.0037C177.464 74.4427 176.775 77.1468 176.298 78.2072C175.502 79.9039 173.116 82.1838 170.2 83.0852C168.079 83.7214 165.799 83.7745 164.845 83.7745C161.08 99.1507 154.506 104.877 140.243 104.877Z" fill="#121212"></path>
      <path d="M166.435 80.1688C166.116 80.1688 165.904 79.9037 165.904 79.6386C165.904 79.0023 166.116 73.223 168.343 71.7384C168.98 71.3142 169.722 71.2612 170.464 71.5263C170.729 71.6323 170.888 71.9505 170.782 72.2156C170.676 72.4807 170.358 72.6398 170.093 72.5337C169.669 72.3746 169.298 72.3746 168.927 72.6398C167.389 73.6472 166.965 78.0479 166.965 79.6916C166.965 79.9567 166.7 80.1688 166.435 80.1688Z" fill="#121212"></path>
      <path d="M119.723 74.9725C119.723 74.9725 117.443 56.8922 127.04 52.8626C136.637 48.8329 143.795 46.8181 153.551 47.9846C170.57 50.1055 164.049 74.8135 164.049 74.8135" fill="#C68F79"></path>
      <path d="M119.724 75.5031C119.459 75.5031 119.246 75.291 119.193 75.0259C119.193 74.8138 118.61 70.36 119.246 65.3229C120.095 58.5362 122.693 54.0824 126.828 52.3327C136.637 48.197 143.795 46.2352 153.604 47.4547C157.687 47.9319 160.762 49.7346 162.83 52.8099C165.11 56.1502 166.064 60.9222 165.746 66.9666C165.481 71.4204 164.58 74.8668 164.58 74.9728C164.527 75.238 164.209 75.45 163.944 75.344C163.678 75.291 163.466 74.9728 163.572 74.7077C163.625 74.5487 167.125 60.9752 161.982 53.3931C160.126 50.636 157.263 48.9923 153.498 48.5152C143.954 47.3487 136.903 49.3105 127.253 53.3401C118.133 57.1576 120.254 74.7077 120.254 74.9198C120.307 75.1849 120.095 75.45 119.777 75.5031C119.777 75.5031 119.777 75.5031 119.724 75.5031Z" fill="#121212"></path>
      <path d="M169.829 77.5709C169.564 77.5709 169.299 77.3588 169.299 77.0937C169.299 76.7756 169.511 76.5635 169.776 76.5105C171.261 76.4044 171.42 74.4957 171.42 74.3896C171.42 74.0715 171.685 73.8594 172.003 73.9124C172.321 73.9124 172.533 74.1775 172.48 74.4957C172.427 75.5031 171.791 77.4649 169.829 77.5709Z" fill="#121212"></path>
      <path d="M117.125 79.2141C116.913 79.2141 116.701 79.055 116.648 78.8429C116.118 77.3053 114.262 73.2757 112.512 72.7985C112.141 72.6925 111.77 72.7985 111.399 73.0636C111.187 73.2757 110.816 73.2227 110.656 73.0106C110.444 72.7985 110.497 72.4274 110.71 72.2683C111.346 71.7381 112.035 71.579 112.777 71.7911C115.375 72.4804 117.39 77.8886 117.602 78.4718C117.708 78.7369 117.549 79.055 117.284 79.1611C117.284 79.2141 117.231 79.2141 117.125 79.2141Z" fill="#121212"></path>
      <path d="M112.565 77.942C111.08 77.942 110.073 76.5634 109.755 75.7681C109.649 75.503 109.755 75.1849 110.073 75.0788C110.338 74.9728 110.656 75.0788 110.762 75.397C110.815 75.45 111.557 77.2527 112.989 76.8816C113.254 76.8285 113.572 76.9876 113.625 77.2527C113.678 77.5178 113.519 77.8359 113.254 77.889C112.989 77.889 112.777 77.942 112.565 77.942Z" fill="#121212"></path>
      <path d="M119.777 75.1848C117.285 67.8148 112.301 68.0799 112.301 68.0799C111.612 65.694 110.869 51.007 112.301 48.8862C112.99 47.8788 113.944 46.023 115.535 44.6445C117.285 43.1068 118.875 41.4102 120.148 39.4484C122.905 35.1006 125.821 33.3509 132.502 30.1166C138.122 27.3595 142.788 26.246 144.909 25.8218C145.598 25.7158 146.234 26.14 146.341 26.8293L146.606 28.738C146.765 29.8515 147.719 30.7528 148.886 30.7528C152.226 30.8589 159.013 30.7528 164.315 28.2608C164.898 27.9957 165.587 28.1548 165.958 28.685C166.542 29.5333 167.178 31.071 167.178 33.4569C167.178 33.4569 167.443 34.0402 168.61 33.9871C169.776 33.9341 171.473 34.7825 171.632 39.3423C171.791 43.9022 168.875 68.186 168.875 68.186C164.792 69.7236 163.997 74.9727 163.997 74.9727L163.201 66.6484C163.201 66.6484 159.278 66.8604 159.172 63.1489C159.066 59.4374 159.066 56.9454 159.066 56.9454C159.066 56.9454 159.278 54.0293 157.104 52.5447C154.93 51.0601 151.961 49.3634 146.765 49.3634C141.622 49.3634 137.857 48.2499 133.509 52.3856C129.162 56.5213 127.942 57.1045 127.942 57.1045C127.942 57.1045 125.238 58.0589 124.284 61.4523C123.329 64.8456 120.042 65.3759 120.042 68.9813C120.042 72.5337 119.777 75.1848 119.777 75.1848Z" fill="#121212"></path>
      <path d="M119.776 75.7148C119.564 75.7148 119.352 75.5558 119.299 75.3437C116.966 68.3979 112.406 68.6099 112.353 68.6099C112.088 68.6099 111.876 68.4509 111.823 68.2388C111.133 65.7998 110.338 50.9538 111.876 48.6209C111.982 48.4088 112.141 48.1967 112.3 47.9846C112.989 46.9242 113.891 45.4396 115.216 44.2731C117.125 42.6294 118.609 40.9858 119.723 39.2361C122.533 34.7823 125.555 32.9795 132.289 29.6922C137.909 26.9351 142.575 25.7686 144.855 25.3445C145.332 25.2384 145.809 25.3445 146.181 25.6626C146.552 25.9277 146.817 26.3519 146.87 26.8291L147.135 28.7378C147.241 29.6392 147.983 30.2754 148.885 30.3285C152.331 30.4345 158.959 30.2754 164.102 27.8895C164.95 27.5183 165.905 27.7304 166.382 28.5257C166.965 29.4271 167.654 30.9647 167.707 33.4037C167.813 33.4567 168.078 33.6158 168.609 33.5628C169.139 33.5628 169.881 33.6688 170.57 34.3051C171.578 35.2064 172.108 36.9562 172.161 39.4482C172.32 44.008 169.51 67.3905 169.404 68.3979C169.404 68.61 169.245 68.769 169.086 68.822C165.321 70.2536 164.526 75.1316 164.526 75.1846C164.473 75.4497 164.261 75.6618 163.996 75.6088C163.731 75.6088 163.519 75.3967 163.466 75.1316L162.723 67.2844C162.034 67.2314 160.761 67.0193 159.807 66.1179C159.065 65.4287 158.641 64.4743 158.641 63.3078C158.535 59.7024 158.535 57.1043 158.535 57.1043C158.535 57.0513 158.694 54.4532 156.785 53.1277C154.558 51.5901 151.642 50.0524 146.764 50.0524C145.809 50.0524 144.908 49.9994 144.007 49.9994C140.242 49.8404 137.22 49.7343 133.88 52.9156C129.638 56.9983 128.312 57.6345 128.206 57.6875H128.153C128.047 57.7406 125.661 58.5889 124.813 61.6641C124.336 63.3078 123.381 64.3682 122.48 65.2696C121.473 66.33 120.571 67.2844 120.571 69.0341C120.571 72.5866 120.359 75.2376 120.359 75.2907C120.359 75.5558 120.147 75.7148 119.882 75.7678C119.829 75.7148 119.829 75.7148 119.776 75.7148ZM112.724 67.5495C113.891 67.6556 117.125 68.3448 119.405 72.8517C119.458 71.7912 119.511 70.4657 119.511 68.9811C119.511 66.8072 120.624 65.6408 121.685 64.4743C122.533 63.5729 123.328 62.7246 123.753 61.293C124.707 57.8466 127.358 56.7332 127.729 56.6271C127.888 56.5741 129.161 55.8318 133.137 52.0142C136.849 48.4618 140.189 48.6209 144.06 48.7799C144.908 48.833 145.809 48.833 146.764 48.833C151.96 48.833 155.088 50.4766 157.421 52.1203C159.807 53.7639 159.648 56.8922 159.595 56.9983C159.595 56.9983 159.595 59.5433 159.701 63.1487C159.701 64.0501 160.019 64.7394 160.549 65.2166C161.557 66.171 163.2 66.1179 163.2 66.1179C163.466 66.1179 163.731 66.33 163.731 66.5951L164.261 72.2684C164.95 70.6778 166.223 68.769 168.397 67.8146C168.715 64.9515 171.26 43.5308 171.154 39.3421C171.048 36.585 170.411 35.4185 169.881 34.9413C169.563 34.6232 169.139 34.4641 168.715 34.5172C167.23 34.5702 166.806 33.7749 166.753 33.7218C166.7 33.6688 166.7 33.5628 166.7 33.5098C166.7 31.2298 166.064 29.8513 165.533 29.056C165.321 28.7378 164.95 28.6318 164.579 28.8439C159.224 31.3359 152.437 31.4949 148.885 31.3889C147.453 31.3359 146.34 30.2754 146.128 28.8969L145.862 26.9881C145.862 26.776 145.756 26.617 145.597 26.5109C145.438 26.4049 145.279 26.3519 145.067 26.4049C142.84 26.8291 138.28 27.9425 132.766 30.6466C126.032 33.9339 123.275 35.5246 120.571 39.7663C119.405 41.622 117.867 43.3717 115.905 45.0684C114.686 46.1289 113.838 47.5074 113.201 48.5148C113.042 48.7799 112.883 48.992 112.777 49.2041C111.558 51.0068 112.088 64.3682 112.724 67.5495Z" fill="#121212"></path>
      <path d="M154.347 64.4215C154.188 64.4215 154.029 64.3685 153.923 64.2094C153.817 64.1034 151.908 61.8235 148.992 63.6792C148.727 63.8383 148.409 63.7853 148.25 63.5202C148.091 63.255 148.144 62.9369 148.409 62.7779C152.173 60.3919 154.718 63.5202 154.771 63.5732C154.93 63.7853 154.93 64.1564 154.665 64.3155C154.559 64.3685 154.453 64.4215 154.347 64.4215Z" fill="#121212"></path>
      <path d="M135.736 64.4215C135.577 64.4215 135.418 64.3685 135.312 64.2094C135.206 64.1034 133.297 61.8235 130.381 63.6792C130.115 63.8383 129.797 63.7853 129.638 63.5202C129.479 63.255 129.532 62.9369 129.797 62.7779C133.562 60.3919 136.107 63.5202 136.16 63.5732C136.319 63.7853 136.319 64.1564 136.054 64.3155C135.948 64.3685 135.842 64.4215 135.736 64.4215Z" fill="#121212"></path>
      <path d="M142.895 95.8631C142.735 95.8631 142.576 95.8631 142.364 95.8631C135.79 95.545 133.987 90.667 133.881 90.4549C133.775 90.1898 133.934 89.8717 134.199 89.7656C134.464 89.6596 134.782 89.8187 134.888 90.0838C134.941 90.2428 136.532 94.5376 142.417 94.8027C148.25 95.0678 150.371 90.4549 150.477 90.2428C150.583 89.9777 150.901 89.8717 151.166 89.9777C151.431 90.0838 151.537 90.4019 151.431 90.667C151.431 90.72 149.098 95.8631 142.895 95.8631Z" fill="#121212"></path>
      <path d="M133.191 80.169C134.392 80.169 135.365 78.2699 135.365 75.9273C135.365 73.5846 134.392 71.6855 133.191 71.6855C131.991 71.6855 131.018 73.5846 131.018 75.9273C131.018 78.2699 131.991 80.169 133.191 80.169Z" fill="#121212"></path>
      <path d="M151.643 80.169C152.843 80.169 153.817 78.2699 153.817 75.9273C153.817 73.5846 152.843 71.6855 151.643 71.6855C150.442 71.6855 149.469 73.5846 149.469 75.9273C149.469 78.2699 150.442 80.169 151.643 80.169Z" fill="#121212"></path>
      <path d="M143 85.418C142.841 85.418 142.682 85.312 142.576 85.1529C142.417 84.8878 142.47 84.5697 142.735 84.4106C144.962 82.979 146.075 81.5474 145.969 80.2749C145.757 78.3131 142.576 77.0936 142.576 77.0406C142.311 76.9346 142.152 76.6165 142.258 76.3513C142.364 76.0862 142.682 75.9272 142.947 76.0332C143.106 76.0862 146.765 77.4648 147.03 80.1159C147.189 81.8126 145.969 83.5092 143.318 85.2589C143.212 85.418 143.106 85.418 143 85.418Z" fill="#121212"></path>
      <path d="M140.242 132.819C140.447 132.819 140.613 132.653 140.613 132.448C140.613 132.243 140.447 132.077 140.242 132.077C140.037 132.077 139.871 132.243 139.871 132.448C139.871 132.653 140.037 132.819 140.242 132.819Z" fill="#121212"></path>
      <path d="M141.727 132.819C141.932 132.819 142.098 132.653 142.098 132.448C142.098 132.243 141.932 132.077 141.727 132.077C141.522 132.077 141.355 132.243 141.355 132.448C141.355 132.653 141.522 132.819 141.727 132.819Z" fill="#121212"></path>
      <path d="M140.984 134.94C139.606 134.94 138.492 133.827 138.492 132.448C138.492 131.07 139.606 129.956 140.984 129.956C142.363 129.956 143.476 131.07 143.476 132.448C143.476 133.827 142.363 134.94 140.984 134.94ZM140.984 130.963C140.189 130.963 139.553 131.6 139.553 132.395C139.553 133.19 140.189 133.827 140.984 133.827C141.78 133.827 142.416 133.19 142.416 132.395C142.416 131.653 141.78 130.963 140.984 130.963Z" fill="#121212"></path>
      <path d="M140.242 153.975C140.447 153.975 140.613 153.809 140.613 153.604C140.613 153.399 140.447 153.232 140.242 153.232C140.037 153.232 139.871 153.399 139.871 153.604C139.871 153.809 140.037 153.975 140.242 153.975Z" fill="#121212"></path>
      <path d="M141.727 153.975C141.932 153.975 142.098 153.809 142.098 153.604C142.098 153.399 141.932 153.232 141.727 153.232C141.522 153.232 141.355 153.399 141.355 153.604C141.355 153.809 141.522 153.975 141.727 153.975Z" fill="#121212"></path>
      <path d="M140.984 156.095C139.606 156.095 138.492 154.982 138.492 153.603C138.492 152.225 139.606 151.111 140.984 151.111C142.363 151.111 143.476 152.225 143.476 153.603C143.476 154.982 142.363 156.095 140.984 156.095ZM140.984 152.172C140.189 152.172 139.553 152.808 139.553 153.603C139.553 154.399 140.189 155.035 140.984 155.035C141.78 155.035 142.416 154.399 142.416 153.603C142.416 152.808 141.78 152.172 140.984 152.172Z" fill="#121212"></path>
      <path d="M140.242 169.987C140.447 169.987 140.613 169.821 140.613 169.616C140.613 169.411 140.447 169.245 140.242 169.245C140.037 169.245 139.871 169.411 139.871 169.616C139.871 169.821 140.037 169.987 140.242 169.987Z" fill="#121212"></path>
      <path d="M141.727 169.987C141.932 169.987 142.098 169.821 142.098 169.616C142.098 169.411 141.932 169.245 141.727 169.245C141.522 169.245 141.355 169.411 141.355 169.616C141.355 169.821 141.522 169.987 141.727 169.987Z" fill="#121212"></path>
      <path d="M140.984 172.161C139.606 172.161 138.492 171.047 138.492 169.669C138.492 168.29 139.606 167.177 140.984 167.177C142.363 167.177 143.476 168.29 143.476 169.669C143.476 171.047 142.363 172.161 140.984 172.161ZM140.984 168.184C140.189 168.184 139.553 168.82 139.553 169.616C139.553 170.411 140.189 171.047 140.984 171.047C141.78 171.047 142.416 170.411 142.416 169.616C142.416 168.82 141.78 168.184 140.984 168.184Z" fill="#121212"></path>
      <path d="M142.045 202.118C142.25 202.118 142.416 201.952 142.416 201.747C142.416 201.542 142.25 201.376 142.045 201.376C141.84 201.376 141.674 201.542 141.674 201.747C141.674 201.952 141.84 202.118 142.045 202.118Z" fill="#121212"></path>
      <path d="M143.529 202.118C143.734 202.118 143.9 201.952 143.9 201.747C143.9 201.542 143.734 201.376 143.529 201.376C143.324 201.376 143.158 201.542 143.158 201.747C143.158 201.952 143.324 202.118 143.529 202.118Z" fill="#121212"></path>
      <path d="M142.787 204.239C141.408 204.239 140.295 203.125 140.295 201.747C140.295 200.368 141.408 199.255 142.787 199.255C144.165 199.255 145.279 200.368 145.279 201.747C145.279 203.125 144.165 204.239 142.787 204.239ZM142.787 200.315C141.992 200.315 141.355 200.952 141.355 201.747C141.355 202.542 141.992 203.178 142.787 203.178C143.582 203.178 144.219 202.542 144.219 201.747C144.219 200.952 143.582 200.315 142.787 200.315Z" fill="#121212"></path>
      <path d="M140.879 186.265C141.084 186.265 141.25 186.099 141.25 185.894C141.25 185.689 141.084 185.522 140.879 185.522C140.674 185.522 140.508 185.689 140.508 185.894C140.508 186.099 140.674 186.265 140.879 186.265Z" fill="#121212"></path>
      <path d="M142.363 186.265C142.568 186.265 142.735 186.099 142.735 185.894C142.735 185.689 142.568 185.522 142.363 185.522C142.158 185.522 141.992 185.689 141.992 185.894C141.992 186.099 142.158 186.265 142.363 186.265Z" fill="#121212"></path>
      <path d="M141.621 188.385C140.242 188.385 139.129 187.272 139.129 185.893C139.129 184.515 140.242 183.401 141.621 183.401C142.999 183.401 144.113 184.515 144.113 185.893C144.113 187.272 142.999 188.385 141.621 188.385ZM141.621 184.462C140.826 184.462 140.189 185.098 140.189 185.893C140.189 186.689 140.826 187.325 141.621 187.325C142.416 187.325 143.052 186.689 143.052 185.893C143.052 185.098 142.416 184.462 141.621 184.462Z" fill="#121212"></path>
      <path d="M142.947 216.698C143.152 216.698 143.318 216.532 143.318 216.327C143.318 216.122 143.152 215.956 142.947 215.956C142.742 215.956 142.576 216.122 142.576 216.327C142.576 216.532 142.742 216.698 142.947 216.698Z" fill="#121212"></path>
      <path d="M144.432 216.698C144.637 216.698 144.803 216.532 144.803 216.327C144.803 216.122 144.637 215.956 144.432 215.956C144.227 215.956 144.061 216.122 144.061 216.327C144.061 216.532 144.227 216.698 144.432 216.698Z" fill="#121212"></path>
      <path d="M143.689 218.873C142.311 218.873 141.197 217.759 141.197 216.381C141.197 215.002 142.311 213.889 143.689 213.889C145.068 213.889 146.181 215.002 146.181 216.381C146.181 217.759 145.068 218.873 143.689 218.873ZM143.689 214.896C142.894 214.896 142.258 215.532 142.258 216.328C142.258 217.123 142.894 217.759 143.689 217.759C144.485 217.759 145.121 217.123 145.121 216.328C145.121 215.532 144.485 214.896 143.689 214.896Z" fill="#121212"></path>
      <path d="M143.424 233.136C143.629 233.136 143.795 232.97 143.795 232.765C143.795 232.56 143.629 232.394 143.424 232.394C143.219 232.394 143.053 232.56 143.053 232.765C143.053 232.97 143.219 233.136 143.424 233.136Z" fill="#121212"></path>
      <path d="M144.908 233.136C145.113 233.136 145.279 232.97 145.279 232.765C145.279 232.56 145.113 232.394 144.908 232.394C144.703 232.394 144.537 232.56 144.537 232.765C144.537 232.97 144.703 233.136 144.908 233.136Z" fill="#121212"></path>
      <path d="M144.166 235.257C142.787 235.257 141.674 234.143 141.674 232.764C141.674 231.386 142.787 230.272 144.166 230.272C145.544 230.272 146.658 231.386 146.658 232.764C146.658 234.143 145.544 235.257 144.166 235.257ZM144.166 231.333C143.371 231.333 142.734 231.969 142.734 232.764C142.734 233.56 143.371 234.196 144.166 234.196C144.961 234.196 145.597 233.56 145.597 232.764C145.597 231.969 144.961 231.333 144.166 231.333Z" fill="#121212"></path>
      <path d="M143.848 249.36C144.053 249.36 144.219 249.194 144.219 248.989C144.219 248.784 144.053 248.618 143.848 248.618C143.643 248.618 143.477 248.784 143.477 248.989C143.477 249.194 143.643 249.36 143.848 249.36Z" fill="#121212"></path>
      <path d="M145.332 249.36C145.537 249.36 145.703 249.194 145.703 248.989C145.703 248.784 145.537 248.618 145.332 248.618C145.127 248.618 144.961 248.784 144.961 248.989C144.961 249.194 145.127 249.36 145.332 249.36Z" fill="#121212"></path>
      <path d="M144.59 251.481C143.211 251.481 142.098 250.368 142.098 248.989C142.098 247.611 143.211 246.497 144.59 246.497C145.968 246.497 147.082 247.611 147.082 248.989C147.082 250.368 145.968 251.481 144.59 251.481ZM144.59 247.504C143.794 247.504 143.158 248.141 143.158 248.936C143.158 249.731 143.794 250.368 144.59 250.368C145.385 250.368 146.021 249.731 146.021 248.936C146.021 248.194 145.385 247.504 144.59 247.504Z" fill="#121212"></path>
      <path d="M165.746 110.762L163.36 109.86C160.974 109.171 158.96 108.747 156.468 108.588H154.506C152.756 112.352 147.507 119.881 140.455 120.041C140.455 120.041 147.189 129.372 152.12 132.023C155.036 128.948 165.375 113.731 165.746 110.762Z" fill="#F8F9F9"></path>
      <path d="M152.12 132.554C152.014 132.554 151.961 132.554 151.855 132.501C146.924 129.849 140.296 120.73 140.031 120.359C139.925 120.2 139.925 119.987 139.978 119.828C140.084 119.669 140.243 119.563 140.455 119.51C147.136 119.351 152.226 112.14 154.029 108.376C154.135 108.164 154.294 108.058 154.506 108.058H156.468C158.801 108.164 160.869 108.588 163.52 109.33L165.959 110.231C166.171 110.338 166.33 110.55 166.277 110.815C165.906 113.943 155.46 129.213 152.491 132.394C152.385 132.501 152.279 132.554 152.12 132.554ZM141.463 120.518C143.159 122.745 148.09 129.054 152.014 131.387C155.195 127.782 164.103 114.526 165.163 111.133L163.202 110.391C160.657 109.648 158.695 109.277 156.468 109.171H154.877C154.294 110.391 152.65 113.36 149.893 116.064C147.189 118.662 144.379 120.147 141.463 120.518Z" fill="#121212"></path>
      <path d="M138.388 119.723C129.958 117.761 126.458 109.808 126.458 109.808C121.633 110.232 114.688 112.83 114.688 112.83C116.702 117.549 130.011 132.183 130.011 132.183C136.161 128.259 140.297 120.041 140.297 120.041C139.395 119.935 139.289 119.935 138.388 119.723Z" fill="#F8F9F9"></path>
      <path d="M130.01 132.713C129.851 132.713 129.745 132.66 129.639 132.554C129.109 131.971 116.225 117.761 114.21 113.042C114.157 112.883 114.157 112.777 114.21 112.618C114.263 112.459 114.369 112.406 114.528 112.353C114.793 112.247 121.633 109.702 126.458 109.277C126.67 109.277 126.882 109.383 126.988 109.595C127.041 109.648 130.487 117.337 138.547 119.245C139.448 119.457 139.501 119.457 140.402 119.564C140.561 119.564 140.72 119.67 140.826 119.829C140.932 119.988 140.932 120.147 140.826 120.306C140.667 120.624 136.532 128.683 130.328 132.66C130.222 132.713 130.116 132.713 130.01 132.713ZM115.376 113.148C117.762 117.761 128.154 129.372 130.063 131.493C134.835 128.259 138.334 122.48 139.448 120.518C139.077 120.465 138.812 120.412 138.228 120.253C130.54 118.45 126.882 111.981 126.086 110.391C122.269 110.762 117.073 112.512 115.376 113.148Z" fill="#121212"></path>
      <path d="M92.1514 185.841L86.0009 152.649L63.4668 154.346L67.0192 182.288" fill="#8AA23B"></path>
      <path d="M92.152 186.371C91.8869 186.371 91.6748 186.212 91.6218 185.947L85.5774 153.233L64.1037 154.876L67.5501 182.288C67.6031 182.553 67.391 182.819 67.0729 182.872C66.7548 182.925 66.5427 182.713 66.4896 182.394L62.9902 154.452C62.9902 154.293 62.9902 154.187 63.0963 154.028C63.2023 153.922 63.3084 153.869 63.4674 153.816L86.0015 152.119C86.2666 152.119 86.5318 152.278 86.5848 152.543L92.7353 185.735C92.7883 186 92.5762 186.318 92.3111 186.371C92.205 186.371 92.152 186.371 92.152 186.371Z" fill="#121212"></path>
      <path d="M65.5345 145.915C65.5345 145.915 66.807 151.801 74.177 152.755C80.0093 153.497 81.3879 150.74 81.759 149.096C81.9711 148.248 82.2893 145.173 82.2893 145.173C84.3571 146.18 87.3263 157.368 84.7813 160.602C82.2362 163.836 77.8355 166.806 67.9204 162.882C60.9216 160.178 65.5345 145.915 65.5345 145.915Z" fill="white"></path>
      <path d="M82.3423 145.225C84.4101 146.233 87.3793 157.42 84.8343 160.655C83.1376 162.776 80.6456 164.79 76.2979 164.79C74.071 164.79 71.3138 164.26 67.9735 162.935C60.9216 160.178 65.5875 145.915 65.5875 145.915C65.5875 145.915 66.86 151.8 74.23 152.755C74.9193 152.861 75.5025 152.861 76.0858 152.861C80.3805 152.861 81.494 150.528 81.8651 149.096C81.9711 148.248 82.3423 145.225 82.3423 145.225ZM82.3423 144.165C82.1832 144.165 81.9712 144.218 81.8121 144.271C81.494 144.43 81.2819 144.748 81.2819 145.066C81.1758 146.233 80.9107 148.248 80.7517 148.831C80.2745 150.846 78.6838 151.8 76.0327 151.8C75.5025 151.8 74.9193 151.747 74.3361 151.694C67.8674 150.846 66.648 145.915 66.5949 145.703C66.4889 145.225 66.0647 144.907 65.5875 144.854H65.5345C65.0573 144.854 64.6862 145.119 64.5271 145.597C64.315 146.233 59.6491 160.867 67.5493 163.942C70.7836 165.215 73.7528 165.851 76.2448 165.851C80.1154 165.851 83.1906 164.366 85.6296 161.291C87.5914 158.799 86.6901 153.55 86.2129 151.429C86.0008 150.422 84.7283 145.225 82.7665 144.218C82.6604 144.165 82.5014 144.165 82.3423 144.165Z" fill="#121212"></path>
      <path d="M77.1998 162.299C75.7682 162.299 74.7608 161.875 74.7608 161.822C74.4957 161.716 74.3897 161.398 74.4957 161.133C74.6018 160.868 74.9199 160.762 75.185 160.868C75.3441 160.974 79.4267 162.723 82.7671 157.792C82.9261 157.527 83.2443 157.474 83.5094 157.633C83.7745 157.792 83.8275 158.111 83.6684 158.376C81.4945 161.61 79.0025 162.299 77.1998 162.299Z" fill="#121212"></path>
      <path d="M201.748 186.954C201.695 186.954 201.642 186.954 201.589 186.954C199.521 186.424 172.798 175.13 171.685 174.653C171.42 174.547 171.313 174.229 171.42 173.964C171.526 173.699 171.844 173.593 172.109 173.699C181.706 177.728 200.263 185.523 201.854 185.947C202.119 186 202.331 186.318 202.225 186.583C202.225 186.795 202.013 186.954 201.748 186.954Z" fill="#121212"></path>
      <path d="M184.834 202.436C184.728 202.436 184.621 202.436 184.568 202.383L170.571 193.953C170.306 193.794 170.253 193.476 170.412 193.21C170.571 192.945 170.889 192.892 171.154 193.051L185.152 201.482C185.417 201.641 185.47 201.959 185.311 202.224C185.205 202.33 185.046 202.436 184.834 202.436Z" fill="#121212"></path>
      <path d="M147.296 173.275L133.563 173.063C131.23 173.009 129.428 171.154 129.428 168.821L129.852 140.401C129.905 138.068 131.761 136.266 134.094 136.266L147.826 136.478C150.159 136.531 151.962 138.386 151.962 140.719L151.538 169.139C151.538 171.472 149.629 173.328 147.296 173.275Z" fill="#4F94F6"></path>
      <path d="M134.04 137.379L147.825 137.591C148.674 137.591 149.416 137.962 149.999 138.545C150.582 139.128 150.901 139.924 150.901 140.772L150.476 169.192C150.476 170.888 149.045 172.267 147.348 172.267H147.295L133.563 172.055C132.714 172.055 131.972 171.684 131.389 171.1C130.805 170.517 130.487 169.722 130.487 168.874L130.911 140.454C130.965 138.757 132.343 137.379 134.04 137.379ZM134.04 136.318C131.76 136.318 129.904 138.174 129.851 140.454L129.427 168.874C129.374 171.206 131.23 173.062 133.563 173.115L147.295 173.327H147.348C149.628 173.327 151.484 171.472 151.537 169.192L151.961 140.772C152.014 138.439 150.158 136.583 147.825 136.53L134.093 136.318C134.093 136.318 134.093 136.318 134.04 136.318Z" fill="#121212"></path>
      <path d="M140.719 154.451C142.769 154.451 144.431 152.79 144.431 150.74C144.431 148.69 142.769 147.028 140.719 147.028C138.67 147.028 137.008 148.69 137.008 150.74C137.008 152.79 138.67 154.451 140.719 154.451Z" fill="#8FBFFE"></path>
      <path d="M140.719 148.141C142.204 148.141 143.37 149.308 143.37 150.793C143.37 152.277 142.204 153.444 140.719 153.444C139.288 153.444 138.068 152.277 138.068 150.793C138.068 149.308 139.235 148.141 140.719 148.141ZM140.719 147.081C138.651 147.081 137.008 148.725 137.008 150.793C137.008 152.86 138.651 154.504 140.719 154.504C142.787 154.504 144.431 152.86 144.431 150.793C144.431 148.725 142.734 147.081 140.719 147.081Z" fill="#121212"></path>
      <path d="M162.14 172.214C162.14 172.214 160.178 169.987 159.648 169.139C159.118 168.29 153.657 158.375 152.861 157.262L151.748 155.406L151.589 160.019L146.499 159.33C146.499 159.33 139.235 157.315 137.326 155.936C135.417 154.611 132.183 153.179 131.494 153.179C130.805 153.179 129.479 153.02 129.373 154.293C129.267 155.565 129.479 156.201 129.479 156.201C129.479 156.201 127.994 156.095 127.623 156.52C127.252 156.944 126.51 157.633 126.51 158.163C126.51 158.693 126.775 160.39 127.305 160.814C127.835 161.238 129.055 162.034 129.055 162.034C129.055 162.034 127.517 162.352 127.411 162.882C127.305 163.412 126.881 164.049 127.146 164.844C127.464 165.639 127.305 166.382 128.896 167.601L131.494 169.086C131.494 169.086 129.903 168.927 129.479 169.404C129.055 169.934 128.578 170.57 128.843 170.941C129.108 171.26 129.267 171.79 130.168 172.638C131.07 173.486 136.743 176.827 136.743 176.827C136.743 176.827 143.954 180.75 145.438 181.228C146.976 181.705 158.535 186.265 158.535 186.265L162.405 172.585L162.14 172.214Z" fill="#C68F79"></path>
      <path d="M164.155 173.646C164.102 173.646 163.996 173.646 163.943 173.593C163.466 173.381 162.989 173.168 162.564 173.009C161.239 172.373 159.913 170.517 159.065 169.086C157.845 167.071 156.626 164.791 155.406 162.511C153.816 159.542 152.278 156.732 151.165 155.194C151.006 154.982 151.059 154.611 151.271 154.452C151.483 154.293 151.854 154.346 152.013 154.558C153.18 156.149 154.717 159.012 156.361 162.034C157.58 164.261 158.8 166.594 159.966 168.556C161.08 170.411 162.14 171.631 162.989 172.055C163.413 172.267 163.837 172.426 164.314 172.638C164.579 172.744 164.738 173.062 164.579 173.327C164.526 173.487 164.367 173.646 164.155 173.646Z" fill="#121212"></path>
      <path d="M145.332 165.427C145.279 165.427 145.173 165.427 145.12 165.374C144.696 165.162 134.887 160.708 132.13 159.065C129.161 157.315 128.79 155.883 128.631 155.194C128.524 154.77 128.631 153.815 129.373 153.232C130.698 152.225 133.137 152.808 136.743 154.929C143.583 158.958 151.43 159.754 151.536 159.754C151.801 159.807 152.066 160.019 152.013 160.337C151.96 160.655 151.748 160.814 151.43 160.814C151.112 160.761 143.211 159.966 136.213 155.83C131.918 153.285 130.433 153.762 130.009 154.081C129.638 154.346 129.638 154.823 129.638 154.929C129.797 155.459 130.115 156.626 132.66 158.163C135.364 159.807 145.438 164.367 145.544 164.42C145.809 164.526 145.916 164.844 145.809 165.109C145.756 165.268 145.544 165.427 145.332 165.427Z" fill="#121212"></path>
      <path d="M142.523 170.412C142.417 170.412 142.364 170.412 142.258 170.359C141.833 170.146 131.706 164.526 129.32 162.936C127.041 161.398 125.556 160.231 126.086 157.792C126.563 155.778 128.472 155.566 129.426 155.725C129.692 155.778 129.904 156.043 129.851 156.361C129.798 156.626 129.533 156.838 129.214 156.785C129.055 156.732 127.465 156.52 127.094 158.005C126.722 159.648 127.412 160.444 129.851 162.034C132.184 163.572 142.576 169.351 142.682 169.404C142.947 169.563 143.053 169.881 142.894 170.146C142.894 170.306 142.682 170.412 142.523 170.412Z" fill="#121212"></path>
      <path d="M139.819 174.388C139.712 174.388 139.659 174.388 139.553 174.335C139.5 174.282 132.077 170.252 129.691 168.768C127.252 167.283 126.192 166.117 126.51 163.731C126.616 162.936 126.934 162.405 127.465 162.034C128.26 161.504 129.214 161.769 129.32 161.822C129.585 161.928 129.744 162.193 129.691 162.511C129.585 162.776 129.32 162.936 129.055 162.883C129.055 162.883 128.472 162.723 128.048 162.989C127.783 163.148 127.624 163.466 127.571 163.89C127.358 165.587 127.889 166.382 130.275 167.867C132.608 169.298 139.978 173.381 140.084 173.381C140.349 173.54 140.455 173.858 140.296 174.123C140.19 174.282 140.031 174.388 139.819 174.388Z" fill="#121212"></path>
      <path d="M158.747 186.848C158.693 186.848 158.587 186.848 158.534 186.795C157.58 186.423 154.929 185.363 152.066 184.25C148.195 182.765 144.166 181.174 143.158 180.697C141.355 179.902 134.039 176.031 131.334 174.016C128.789 172.161 127.729 171.365 128.736 169.563C129.001 169.032 129.426 168.714 129.956 168.555C130.857 168.29 131.759 168.767 131.865 168.82C132.13 168.979 132.183 169.298 132.077 169.563C131.918 169.828 131.6 169.881 131.334 169.775C131.122 169.669 130.168 169.191 129.638 170.093C129.161 170.941 129.054 171.1 131.918 173.221C134.569 175.183 141.833 179 143.582 179.796C144.59 180.273 148.778 181.864 152.437 183.295C155.3 184.409 157.951 185.416 158.906 185.84C159.171 185.946 159.33 186.264 159.171 186.529C159.171 186.742 158.959 186.848 158.747 186.848Z" fill="#121212"></path>
      <path d="M170.412 195.173L176.563 173.275L163.042 170.518L158.164 188.333L170.412 195.173Z" fill="#F8F9F9"></path>
      <path d="M170.412 195.703C170.306 195.703 170.253 195.703 170.147 195.65L157.952 188.81C157.74 188.704 157.634 188.439 157.687 188.227L162.565 170.412C162.618 170.146 162.883 169.987 163.202 170.04L176.722 172.798C176.881 172.851 176.987 172.904 177.093 173.063C177.199 173.222 177.199 173.328 177.146 173.487L170.996 195.332C170.943 195.491 170.837 195.597 170.678 195.703C170.519 195.65 170.466 195.703 170.412 195.703ZM158.801 188.068L170.094 194.377L175.927 173.699L163.467 171.154L158.801 188.068Z" fill="#121212"></path>
      <path d="M171.685 181.387C171.632 181.387 171.579 181.387 171.526 181.387C171.261 181.281 171.102 181.016 171.155 180.751L173.17 174.017C173.276 173.752 173.541 173.593 173.806 173.646C174.071 173.752 174.23 174.017 174.177 174.282L172.162 181.016C172.109 181.228 171.897 181.387 171.685 181.387Z" fill="#221F1F"></path>
    </g>
    <path d="M124.971 249.307C124.653 249.307 124.388 249.307 124.07 249.307C120.995 249.2 117.919 248.352 115.215 246.974L45.0679 210.707C41.6215 208.904 38.7053 206.2 36.6905 202.86C34.6757 199.519 33.6152 195.702 33.6152 191.831V133.826C33.6152 128.683 35.471 123.699 38.9174 119.775L47.984 109.489L48.7794 110.178L39.7127 120.464C36.4784 124.176 34.6757 128.895 34.6757 133.773V191.778C34.6757 195.49 35.6831 199.095 37.6449 202.276C39.5536 205.458 42.3108 208.003 45.5981 209.699L115.745 246.019C118.343 247.345 121.26 248.14 124.176 248.246C127.092 248.352 130.061 247.822 132.765 246.708L224.121 208.904C228.522 207.101 232.128 203.761 234.301 199.572C236.475 195.384 237.112 190.506 236.104 185.893L218.077 104.611C217.441 101.642 216.062 98.8317 214.206 96.4457C212.351 94.0597 209.912 92.0979 207.154 90.8254L200.474 87.5911L200.951 86.6367L207.632 89.871C210.495 91.2496 213.04 93.3174 215.055 95.8094C217.016 98.3014 218.448 101.271 219.137 104.399L237.165 185.681C238.225 190.559 237.589 195.649 235.256 200.103C232.976 204.503 229.158 208.003 224.545 209.912L133.136 247.769C130.538 248.776 127.781 249.307 124.971 249.307Z" fill="#121212"></path>
  </g>
  <defs>
    <clipPath id="clip0_4042_6319">
      <rect width="272" height="272" fill="white"></rect>
    </clipPath>
  </defs>
</svg>
