<svg width="376" height="376" viewBox="0 0 376 376" fill="none" xmlns="http://www.w3.org/2000/svg">
<g clip-path="url(#clip0_14543_1084)">
<path d="M52.5436 196.496L61.9436 265.43C62.1846 266.755 62.3654 268.141 62.8475 269.467C62.968 269.708 63.0885 270.009 63.0885 270.25C63.3295 270.792 63.45 271.274 63.6308 271.817C63.8718 272.239 64.0526 272.841 64.2936 273.263C67.0654 278.626 72.0064 282.663 77.7308 284.471L246.087 337.376C251.812 339.183 257.837 338.701 263.2 336.05C263.562 335.93 263.742 335.689 264.104 335.628C264.526 335.387 265.128 335.086 265.55 334.724C265.912 334.483 266.213 334.303 266.574 334.062C267.9 333.037 269.165 331.953 270.25 330.687L270.371 330.567C270.732 330.145 271.033 329.783 271.395 329.362C271.515 329.241 271.636 329.121 271.756 328.94C272.118 328.518 272.419 328.036 272.66 327.614L328.759 237.772C330.205 235.301 331.35 232.65 331.892 229.818C331.892 229.577 332.013 229.276 332.013 229.035C332.254 227.89 332.254 226.805 332.254 225.66C332.254 225.419 332.254 225.118 332.254 224.877C332.133 220.297 330.687 215.899 327.976 212.223L259.886 115.572C259.344 114.789 258.741 114.005 258.078 113.342C257.717 112.981 257.415 112.68 257.054 112.318C256.813 112.197 256.692 111.956 256.512 111.896C256.15 111.535 255.849 111.233 255.487 110.992C254.945 110.571 254.342 110.089 253.8 109.787C252.655 109.004 251.45 108.341 250.124 107.799C249.703 107.558 249.221 107.437 248.799 107.256C248.377 107.136 247.895 106.895 247.473 106.835C245.244 106.172 242.894 105.81 240.544 105.81L137.385 107.256C129.672 107.377 122.381 110.51 116.897 115.873L60.5577 172.153C55.9782 176.732 53.0257 182.697 52.2423 189.024C52.1218 189.567 52.1218 190.169 52.1218 190.712C52.2423 192.58 52.3628 194.628 52.5436 196.496Z" fill="#C1D9FD"/>
<path d="M253.077 339.063C250.667 339.063 248.317 338.701 245.967 337.978L77.6104 285.013C71.7052 283.145 66.6437 278.987 63.8116 273.504C63.6911 273.263 63.5706 273.022 63.4501 272.721C63.3296 272.48 63.2091 272.238 63.1488 271.997C63.0283 271.636 62.9078 271.395 62.8475 271.154C62.7873 270.913 62.6668 270.672 62.6065 270.431L62.5463 270.31V270.19C62.5463 270.13 62.486 269.889 62.3655 269.647L62.3052 269.587C61.8232 268.201 61.5822 266.815 61.4014 265.49L52.0014 196.617C51.7604 194.809 51.7001 192.941 51.5796 191.073V190.772C51.5796 190.169 51.5796 189.567 51.7001 188.964C52.4834 182.517 55.4963 176.431 60.136 171.731L116.476 115.451C122.14 109.908 129.612 106.774 137.385 106.654L240.544 105.087C243.014 105.087 245.364 105.449 247.654 106.112C247.895 106.172 248.136 106.232 248.377 106.353C248.618 106.413 248.799 106.533 248.98 106.533L249.1 106.594C249.281 106.714 249.522 106.774 249.703 106.835C249.944 106.895 250.185 107.015 250.426 107.136C251.751 107.678 253.077 108.401 254.222 109.185C254.764 109.546 255.367 109.968 255.909 110.45C256.21 110.691 256.572 110.992 256.933 111.354C257.054 111.474 257.174 111.535 257.295 111.655C257.355 111.715 257.416 111.776 257.416 111.776L257.476 111.836L258.56 112.921C259.283 113.644 259.826 114.427 260.428 115.21L328.518 211.862C331.23 215.597 332.796 220.117 332.857 224.817V225.6C332.857 226.685 332.857 227.89 332.616 229.035C332.616 229.155 332.555 229.336 332.555 229.456C332.555 229.577 332.495 229.637 332.495 229.758V229.878C331.953 232.59 330.868 235.301 329.301 238.013L273.142 327.855C272.901 328.277 272.6 328.759 272.239 329.181C272.118 329.422 271.937 329.603 271.817 329.723C271.636 329.964 271.455 330.145 271.335 330.326C271.154 330.506 271.033 330.687 270.853 330.928L270.672 331.109C269.527 332.314 268.262 333.519 266.936 334.544L265.912 335.206C265.49 335.508 264.887 335.869 264.405 336.11L264.345 336.171C264.224 336.231 264.164 336.291 264.044 336.351C263.923 336.412 263.742 336.532 263.501 336.592C260.248 338.219 256.692 339.063 253.077 339.063ZM63.6911 270.13C63.8116 270.371 63.8719 270.612 63.9322 270.853C63.9924 271.094 64.1129 271.335 64.1732 271.576C64.2937 271.756 64.354 271.997 64.4745 272.299C64.595 272.54 64.7155 272.781 64.7757 273.022C67.4873 278.144 72.2475 282.121 77.8514 283.928L246.328 336.833C251.932 338.581 257.837 338.099 263.019 335.508L263.08 335.447C263.2 335.387 263.26 335.327 263.381 335.267C263.501 335.206 263.682 335.086 263.923 335.026C264.345 334.785 264.887 334.483 265.249 334.182L266.273 333.519C267.539 332.555 268.744 331.471 269.889 330.265L270.009 330.145C270.19 329.904 270.371 329.723 270.491 329.542C270.672 329.362 270.792 329.181 270.973 328.94L271.033 328.88C271.154 328.759 271.214 328.699 271.274 328.578L271.335 328.458C271.636 328.036 271.998 327.614 272.178 327.192L328.337 237.29C329.844 234.759 330.868 232.168 331.41 229.577C331.41 229.456 331.471 229.276 331.471 229.155C331.471 229.035 331.531 228.974 331.531 228.854V228.733C331.772 227.649 331.772 226.624 331.772 225.48V224.696C331.651 220.237 330.205 215.959 327.614 212.404L259.524 115.692C258.982 114.969 258.44 114.186 257.777 113.523L256.813 112.559C256.692 112.439 256.572 112.378 256.451 112.258C256.391 112.197 256.331 112.137 256.331 112.137L256.271 112.077L256.21 112.017C255.909 111.715 255.608 111.414 255.307 111.173C254.704 110.691 254.162 110.269 253.68 109.968C252.535 109.185 251.33 108.522 250.064 107.98C249.823 107.859 249.642 107.799 249.401 107.739C249.16 107.678 248.98 107.558 248.739 107.437C248.498 107.377 248.257 107.317 248.076 107.196C247.895 107.136 247.654 107.015 247.473 107.015C245.244 106.353 243.014 106.051 240.664 106.051L137.385 107.859C129.913 107.98 122.742 110.992 117.319 116.295L60.9796 172.574C56.5206 177.033 53.6283 182.938 52.845 189.145C52.7245 189.687 52.7245 190.23 52.7245 190.772V191.073C52.845 192.881 52.9655 194.749 53.1463 196.556L62.5463 265.49C62.7873 266.755 62.9681 268.081 63.3898 269.346C63.5104 269.406 63.6911 269.768 63.6911 270.13Z" fill="#121212"/>
<mask id="mask0_14543_1084" style="mask-type:luminance" maskUnits="userSpaceOnUse" x="52" y="37" width="281" height="302">
<path d="M328.036 212.163L259.946 115.512C259.404 114.728 258.801 113.945 258.139 113.282C257.777 112.921 257.476 112.619 257.114 112.258C256.873 112.137 256.753 111.896 256.572 111.836C256.21 111.474 255.909 111.173 255.547 110.932C255.005 110.51 254.403 110.028 253.86 109.727C252.715 108.944 251.51 108.281 250.185 107.739C249.763 107.497 249.281 107.377 248.859 107.196C248.437 107.076 247.955 106.835 247.533 106.774C245.304 106.112 242.954 105.75 240.604 105.75L228.914 105.931V37.5398H132.142V107.799C126.418 108.944 121.115 111.715 116.897 115.873L60.5577 172.153C55.9782 176.732 53.0257 182.697 52.2423 189.024C52.1218 189.567 52.1218 190.169 52.1218 190.712C52.2423 192.64 52.3628 194.628 52.5436 196.556L61.9436 265.49C62.1846 266.815 62.3654 268.201 62.8475 269.527C62.968 269.768 63.0885 270.069 63.0885 270.31C63.3295 270.853 63.45 271.335 63.6308 271.877C63.8718 272.299 64.0526 272.901 64.2936 273.323C67.0654 278.686 72.0064 282.723 77.7308 284.531L246.087 337.436C251.812 339.244 257.837 338.762 263.2 336.11C263.562 335.99 263.742 335.749 264.104 335.689C264.526 335.447 265.128 335.146 265.55 334.785C265.912 334.544 266.213 334.363 266.574 334.122C267.9 333.098 269.165 332.013 270.25 330.747L270.371 330.627C270.732 330.205 271.033 329.844 271.395 329.422C271.515 329.301 271.636 329.181 271.756 329C272.118 328.578 272.419 328.096 272.66 327.674L328.759 237.832C330.205 235.362 331.35 232.71 331.892 229.878C331.892 229.637 332.013 229.336 332.013 229.095C332.254 227.95 332.254 226.865 332.254 225.721C332.254 225.48 332.254 225.178 332.254 224.937C332.194 220.237 330.747 215.899 328.036 212.163Z" fill="white"/>
</mask>
<g mask="url(#mask0_14543_1084)">
<path d="M227.347 341.774C233.313 392.932 240.061 467.469 241.267 490.789C243.135 526.641 248.317 641.55 248.317 641.55L195.652 645.587C195.652 645.587 184.686 413.962 178.058 405.586C178.058 405.586 172.092 432.942 170.526 472.531C169.019 510.794 167.392 626.606 166.187 649.022L111.354 646.853C111.354 646.853 118.645 349.427 129.31 338.762C129.37 338.882 224.154 314.418 227.347 341.774Z" fill="#B3C2F2"/>
<path d="M166.79 649.745L110.751 647.576V646.973C111.053 634.801 118.223 349.186 128.888 338.46L129.009 338.34L129.19 338.28C132.202 337.496 202.522 319.54 222.647 333.399C225.72 335.508 227.528 338.34 227.95 341.714C233.855 392.51 240.664 467.409 241.869 490.789C243.737 526.219 248.859 640.405 248.919 641.55V642.153L195.05 646.31V645.708C191.435 569.122 183.481 425.531 178.299 407.695C176.973 414.504 172.454 439.39 171.128 472.712C170.345 491.994 169.561 530.437 168.838 567.676C168.115 603.89 167.392 638.055 166.85 649.142L166.79 649.745ZM112.017 646.371L165.645 648.48C166.247 636.79 166.91 603.167 167.633 567.615C168.417 530.377 169.2 491.873 169.923 472.591C171.49 433.364 177.455 405.767 177.455 405.526L177.756 404.26L178.54 405.285C185.108 413.6 195.472 629.077 196.195 645.045L247.654 641.068C247.232 632.15 242.411 525.014 240.664 490.849C239.459 467.469 232.65 392.631 226.745 341.835C226.383 338.762 224.817 336.291 221.985 334.363C202.763 321.167 133.649 338.4 129.672 339.424C126.719 342.98 122.14 373.469 116.958 496.935C114.005 568.218 112.197 639.14 112.017 646.371Z" fill="#121212"/>
<path d="M174.864 44.3488C172.273 45.0116 170.646 45.6142 170.646 45.6142C170.646 45.6142 140.518 46.1565 141.181 69.0539C141.844 91.9513 141.361 150.942 141.361 150.942H184.806C205.414 161.005 210.897 142.205 210.897 142.205C210.897 142.205 216.742 95.8078 214.211 68.3308C213.79 63.9924 212.464 59.7142 210.054 56.0385C202.883 45.0719 190.531 43.1437 181.492 43.3244C179.263 43.4449 177.033 43.8065 174.864 44.3488Z" fill="#E8BC86"/>
<path d="M195.954 154.497C192.519 154.497 188.783 153.533 184.686 151.545H141.362C141.181 151.545 141.06 151.485 140.94 151.364C140.819 151.244 140.759 151.123 140.759 150.942C140.759 150.34 141.241 91.7103 140.578 69.0539C140.397 63.1488 142.205 58.2078 145.941 54.2911C150.4 49.5911 156.908 47.3013 161.547 46.2167C166.187 45.1321 169.923 44.9513 170.526 44.9513C170.887 44.8308 172.454 44.2885 174.744 43.7462C177.033 43.1437 179.263 42.8424 181.492 42.7821C190.712 42.5411 203.245 44.5898 210.536 55.7372C212.886 59.2924 214.332 63.6308 214.754 68.2706C217.285 95.5065 211.5 141.783 211.44 142.265C211.44 142.326 211.44 142.326 211.44 142.386C211.319 142.687 209.15 150.159 202.16 153.232C200.292 154.076 198.183 154.497 195.954 154.497ZM141.964 150.34H184.806C184.927 150.34 184.987 150.34 185.047 150.4C191.555 153.594 197.099 154.136 201.678 152.147C207.824 149.436 210.054 142.687 210.235 142.085C210.476 140.277 215.959 95.0847 213.488 68.3911C213.067 63.9321 211.681 59.8347 209.451 56.4001C202.401 45.7347 190.35 43.7462 181.432 43.9872C179.323 44.0475 177.154 44.3488 174.985 44.8911C172.454 45.5539 170.827 46.0962 170.767 46.0962C170.706 46.0962 170.646 46.1565 170.586 46.1565C170.405 46.1565 154.919 46.518 146.724 55.1347C143.23 58.8103 141.542 63.4501 141.723 68.9937C142.386 90.4449 142.024 144.013 141.964 150.34Z" fill="#121212"/>
<path d="M195.954 121.718L200.111 145.459L181.372 165.886L161.547 153.413L166.97 120.272C167.392 120.332 195.954 121.718 195.954 121.718Z" fill="#F4C8BD"/>
<path d="M181.492 166.669L160.885 153.714L160.945 153.292L166.488 119.609L167.031 119.669C167.452 119.669 186.132 120.633 196.014 121.115H196.496L196.617 121.597L200.835 145.64L200.654 145.881L181.492 166.669ZM162.21 153.112L181.311 165.103L199.509 145.278L195.532 122.321C191.917 122.14 171.249 121.115 167.573 120.935L162.21 153.112Z" fill="#121212"/>
<path d="M158.655 143.531C158.655 143.531 181.553 151.244 201.196 145.097C220.9 139.012 186.735 210.777 186.735 210.777C186.735 210.777 159.318 180.89 157.751 143.531" fill="#FCC018"/>
<path d="M186.735 211.38C186.554 211.38 186.433 211.319 186.313 211.199C186.012 210.898 158.776 180.709 157.149 143.591C157.149 143.23 157.39 142.989 157.751 142.989C157.932 142.989 158.113 143.049 158.233 143.169C158.414 142.989 158.655 142.928 158.896 142.989C159.137 143.049 181.794 150.581 201.076 144.555C203.486 143.832 205.294 144.133 206.499 145.459C214.151 154.317 188.422 208.728 187.337 211.018C187.277 211.199 187.096 211.319 186.855 211.38C186.795 211.38 186.795 211.38 186.735 211.38ZM158.414 144.073C160.041 177.455 182.637 205.053 186.614 209.692C188.12 206.439 193.785 194.206 198.665 181.372C208.065 156.606 207.644 148.653 205.595 146.303C204.751 145.339 203.365 145.158 201.437 145.76C181.794 151.846 158.715 144.254 158.535 144.194C158.474 144.133 158.414 144.133 158.414 144.073Z" fill="#121212"/>
<path d="M205.896 73.6937C198.726 66.1616 189.386 63.9321 181.613 63.6911C177.093 67.7885 170.525 72.127 161.186 74.718C158.113 75.5616 156.124 77.4296 154.799 79.9001C154.136 81.2257 153.834 82.6719 153.834 84.118V93.3975C153.834 98.459 154.558 103.46 156.124 108.281C158.956 116.717 165.102 126.96 178.419 127.382C194.929 127.864 203.365 122.019 208.487 104.123C209.15 101.833 209.813 97.1334 210.234 93.5783C210.717 89.6616 210.536 85.5039 209.572 81.6475C208.065 75.5616 205.896 73.6937 205.896 73.6937Z" fill="#F4C8BD"/>
<path d="M180.347 127.985C179.745 127.985 179.142 127.985 178.54 127.985C164.861 127.563 158.535 117.139 155.642 108.522C154.076 103.822 153.292 98.7603 153.292 93.4578V84.2385C153.292 82.6116 153.654 81.1052 154.317 79.7796C155.763 76.9475 158.052 75.0796 161.065 74.236C168.899 72.0667 175.708 68.3911 181.251 63.3296C181.372 63.2091 181.492 63.1488 181.673 63.1488C191.796 63.5103 200.292 66.945 206.258 73.2116L206.318 73.2719C206.438 73.3321 208.608 75.3206 210.235 81.527C211.199 85.2629 211.44 89.4808 210.897 93.6385C210.476 97.1937 209.813 101.954 209.15 104.244C204.269 121.356 196.376 127.985 180.347 127.985ZM181.854 64.2937C176.19 69.4155 169.32 73.0911 161.367 75.3206C158.715 76.0437 156.667 77.7309 155.401 80.2014C154.799 81.3462 154.497 82.6719 154.497 84.118V93.3975C154.497 98.5796 155.281 103.521 156.787 108.1C159.559 116.415 165.585 126.358 178.54 126.78C195.17 127.262 203.124 121.055 208.005 104.003C208.668 101.773 209.27 97.0732 209.752 93.5783C210.235 89.5411 210.054 85.5039 209.09 81.8885C207.764 76.827 206.077 74.7783 205.655 74.2962C205.595 74.2962 205.535 74.236 205.535 74.1757C199.69 67.9693 191.736 64.6552 181.854 64.2937Z" fill="#121212"/>
<path d="M171.55 98.0372C173.177 98.0372 174.503 95.4462 174.442 92.3129C174.442 89.1193 173.117 86.5885 171.49 86.5885C169.863 86.5885 168.537 89.1795 168.597 92.3129C168.597 95.4462 169.923 98.0372 171.55 98.0372Z" fill="#121212"/>
<path d="M196.556 97.977C198.183 97.977 199.509 95.386 199.449 92.2526C199.449 89.059 198.123 86.5283 196.496 86.5283C194.869 86.5283 193.544 89.1193 193.604 92.2526C193.604 95.4462 194.929 97.977 196.556 97.977Z" fill="#121212"/>
<path opacity="0.27" d="M182.999 82.8526L207.282 82.1898C207.282 82.1898 210.355 99.9655 198.424 100.508C193.724 100.749 191.917 100.869 189.808 100.146C189.145 99.9052 188.783 99.2424 188.964 98.4591C189.205 97.5552 188.723 96.2296 188.301 95.5668C187.879 94.8437 186.554 93.8193 185.409 93.3975C184.746 93.0962 183.963 92.9757 183.842 92.1924C182.336 85.0821 182.938 82.8526 182.999 82.8526Z" fill="#ACDFF2"/>
<path opacity="0.27" d="M158.294 83.5757L182.577 82.9129C182.577 82.9129 185.65 100.689 173.719 101.231C162.873 101.773 160.704 100.689 159.258 93.5783C157.751 86.468 158.294 83.5757 158.294 83.5757Z" fill="#ACDFF2"/>
<path d="M169.863 101.954C161.969 101.954 159.981 100.146 158.655 93.6988C157.149 86.5282 157.631 83.5757 157.691 83.4552C157.751 83.1539 157.992 82.9731 158.294 82.9731L182.577 82.3103C182.878 82.3103 183.119 82.4911 183.179 82.7923C183.24 83.2141 184.927 93.1565 180.588 98.5193C178.962 100.568 176.672 101.653 173.779 101.833C172.333 101.894 171.068 101.954 169.863 101.954ZM158.836 84.1782C158.776 85.2629 158.776 88.1552 159.86 93.4577C161.306 100.206 163.114 101.171 173.719 100.628C176.25 100.508 178.238 99.5436 179.624 97.7962C183.059 93.518 182.336 85.6244 182.035 83.5154L158.836 84.1782Z" fill="#121212"/>
<path d="M194.749 101.231C192.097 101.231 190.591 100.99 189.085 100.387C188.783 100.267 188.663 99.9654 188.723 99.7244C189.627 95.627 184.445 93.8193 184.264 93.759C184.143 93.6988 184.023 93.6385 183.963 93.518C183.963 93.4577 183.36 92.5539 183.179 91.5898C181.733 84.6 182.276 82.8526 182.456 82.6116C182.517 82.4911 182.577 82.3706 182.697 82.3103C182.758 82.25 182.878 82.25 182.999 82.25L207.282 81.5872C207.583 81.5872 207.824 81.768 207.885 82.0693C207.945 82.4911 209.632 92.4334 205.293 97.7962C203.667 99.8449 201.377 100.93 198.485 101.11C197.038 101.231 195.833 101.231 194.749 101.231ZM189.988 99.4834C191.796 100.086 193.845 100.206 198.364 99.9654C200.895 99.8449 202.883 98.8808 204.269 97.1334C207.704 92.8552 206.981 84.9616 206.679 82.8526L183.36 83.5154C183.24 84.2385 183.179 86.3475 184.264 91.409C184.385 91.9513 184.626 92.4936 184.806 92.7949C187.036 93.518 190.47 95.8077 189.988 99.4834Z" fill="#121212"/>
<path d="M185.108 104.063C184.927 104.063 184.746 103.942 184.626 103.762C184.445 103.46 184.505 103.099 184.806 102.918C187.578 101.11 188.964 99.3629 188.783 97.7962C188.542 95.7475 185.65 94.2411 184.565 93.8193C184.264 93.6988 184.083 93.3372 184.204 93.0359C184.324 92.7347 184.686 92.5539 184.987 92.6744C185.168 92.7347 189.627 94.4218 189.988 97.6154C190.229 99.6641 188.723 101.773 185.469 103.882C185.349 104.063 185.228 104.063 185.108 104.063Z" fill="#121212"/>
<path d="M201.979 79.5385C201.799 79.5385 201.678 79.4783 201.558 79.3577C201.437 79.2372 198.243 75.7424 193.845 78.8757C193.543 79.0565 193.182 78.9962 193.001 78.7552C192.82 78.4539 192.881 78.0924 193.122 77.9116C198.424 74.1154 202.401 78.5142 202.401 78.5744C202.642 78.8154 202.582 79.177 202.341 79.418C202.281 79.5385 202.16 79.5385 201.979 79.5385Z" fill="#121212"/>
<path d="M166.971 79.5988C166.79 79.5988 166.609 79.5385 166.488 79.3577C166.308 79.1167 166.308 78.6949 166.549 78.5141C171.55 74.4167 175.828 78.5141 175.888 78.5141C176.13 78.7552 176.13 79.1167 175.888 79.3577C175.647 79.5987 175.286 79.5987 175.045 79.3577C174.924 79.2372 171.49 75.9834 167.332 79.418C167.212 79.5385 167.091 79.5988 166.971 79.5988Z" fill="#121212"/>
<path d="M182.758 118.223C182.396 118.223 182.035 118.223 181.613 118.163C178.841 117.982 176.431 117.259 174.322 115.933C174.02 115.753 173.96 115.391 174.141 115.09C174.322 114.789 174.683 114.728 174.985 114.909C176.913 116.114 179.142 116.777 181.673 116.958C185.047 117.199 188 116.355 190.47 114.427C190.712 114.246 191.133 114.306 191.314 114.548C191.495 114.789 191.435 115.21 191.194 115.391C188.783 117.259 185.951 118.223 182.758 118.223Z" fill="#121212"/>
<path d="M154.497 240.544C134.793 247.051 121.718 238.374 122.019 232.409C122.381 225.48 132.142 199.991 132.745 199.087C133.95 197.28 135.396 195.231 135.095 202.221C134.673 212.524 132.323 265.731 132.323 265.731C128.225 332.254 113.282 437.221 113.282 437.221L178.479 438.064L181.492 329.663L188.723 438.064L247.834 436.799L232.891 280.795C232.529 275.854 231.023 191.435 232.831 200.473L237.832 237.772L234.578 248.076C234.578 248.076 260.428 295.859 262.658 245.183C264.284 208.487 251.872 179.082 244.942 165.645C242.472 160.945 239.338 156.606 235.663 152.75C235.663 152.75 235.663 152.75 235.602 152.69C229.818 146.604 214.513 137.505 198.786 134.673C198.786 134.673 186.192 205.956 184.987 208.668C183.3 208.849 164.982 136.782 163.234 137.144C147.327 140.096 139.795 145.821 139.373 146.242C129.069 156.727 101.833 199.027 98.6998 236.868C94.4819 287.242 170.586 252.595 170.586 252.595" fill="#F8F9F9"/>
<path d="M178.479 438.607L113.282 437.823C113.101 437.823 112.92 437.763 112.86 437.642C112.74 437.522 112.679 437.341 112.74 437.16C112.86 436.136 127.683 331.471 131.781 265.731C131.781 265.671 131.781 265.249 131.841 264.465C120.754 265.731 112.318 264.285 106.533 260.248C100.086 255.728 97.2538 247.835 98.1576 236.868C101.351 198.846 128.647 156.365 139.011 145.881C139.072 145.821 146.363 139.735 163.174 136.662C164.259 136.481 165.042 137.987 174.924 173.358C178.841 187.337 183.179 202.883 184.867 207.222C186.855 198.665 195.05 152.991 198.244 134.673C198.244 134.492 198.364 134.372 198.485 134.312C198.605 134.191 198.786 134.191 198.906 134.191C215.356 137.144 230.541 146.604 236.024 152.389C239.82 156.365 243.014 160.764 245.424 165.464C252.776 179.624 264.827 208.789 263.2 245.304C262.537 260.187 259.826 267.96 255.005 269.045C246.268 271.033 234.458 249.401 233.976 248.437C233.915 248.317 233.855 248.136 233.915 247.955L237.109 237.772L232.65 204.33C232.108 220.358 233.132 276.517 233.433 280.855L248.437 436.799C248.437 436.98 248.377 437.16 248.317 437.281C248.196 437.401 248.076 437.462 247.895 437.462L188.783 438.727C188.482 438.727 188.181 438.486 188.181 438.185L181.794 342.498L179.082 438.064C179.082 438.365 178.841 438.607 178.479 438.607ZM114.005 436.618L177.937 437.462L180.95 329.663C180.95 329.362 181.191 329.06 181.552 329.06C181.854 329.06 182.155 329.301 182.155 329.603L189.386 437.401L247.292 436.196L232.349 280.855C232.168 278.505 231.746 258.621 231.565 238.615C231.445 227.649 231.445 218.369 231.445 211.862C231.565 199.328 231.867 199.268 232.529 199.208C233.192 199.148 233.373 199.871 233.433 200.353L238.435 237.712C238.435 237.772 238.435 237.892 238.435 237.953L235.301 248.015C235.904 249.1 238.676 253.981 242.17 258.56C247.292 265.309 251.691 268.503 254.885 267.78C260.127 266.574 261.694 254.824 262.176 245.123C263.802 208.909 251.811 179.986 244.52 165.886C242.11 161.306 239.037 156.968 235.361 153.112L235.301 153.051C229.938 147.448 215.356 138.349 199.449 135.336C198.123 142.687 186.855 206.198 185.71 208.849C185.65 209.03 185.469 209.21 185.228 209.21C184.144 209.331 183.481 207.945 173.84 173.539C169.682 158.535 164.5 140.036 163.174 137.746C147.026 140.819 140.036 146.544 139.976 146.604C129.732 157.028 102.617 199.148 99.4833 236.868C98.5794 247.353 101.231 254.885 107.317 259.163C113.523 263.501 122.622 264.164 131.961 263.08C132.142 259.223 132.504 251.269 132.865 242.351C129.792 241.508 127.322 240.303 125.454 238.856C122.863 236.868 121.417 234.458 121.537 232.289C121.899 225.299 131.781 199.569 132.323 198.665C133.046 197.581 133.829 196.376 134.733 196.677C135.517 196.918 135.938 197.942 135.758 202.16C135.517 207.704 134.733 225.901 134.01 241.387C139.313 242.592 146.182 242.532 154.317 239.821C154.618 239.7 154.979 239.881 155.1 240.182C155.22 240.483 155.04 240.845 154.738 240.965C146.544 243.677 139.433 243.798 134.01 242.592C133.649 251.269 133.287 258.922 133.106 262.899C151.304 260.549 170.164 252.053 170.465 251.932C170.767 251.812 171.128 251.932 171.249 252.233C171.369 252.535 171.249 252.896 170.947 253.017C170.827 253.077 159.499 258.199 146.061 261.633C141.422 262.839 137.083 263.682 133.046 264.164C132.986 265.068 132.986 265.61 132.986 265.671C129.069 328.759 115.27 427.459 114.005 436.618ZM134.311 198.063C134.07 198.244 133.709 198.726 133.287 199.449C132.745 200.353 123.044 225.721 122.682 232.469C122.561 234.217 123.887 236.265 126.117 238.013C127.804 239.278 130.094 240.423 132.865 241.206C133.528 225.781 134.372 207.764 134.553 202.221C134.673 199.328 134.432 198.364 134.311 198.063Z" fill="#121212"/>
<path d="M144.796 194.568C143.892 194.568 143.41 194.026 143.23 193.664C143.109 193.363 143.23 193.001 143.531 192.881C143.832 192.76 144.194 192.881 144.314 193.182C144.374 193.242 144.555 193.483 145.097 193.363C145.399 193.303 145.76 193.483 145.821 193.785C145.881 194.086 145.7 194.447 145.399 194.508C145.158 194.568 144.977 194.568 144.796 194.568Z" fill="#121212"/>
<path d="M154.799 199.328C155.642 199.147 156.426 198.906 157.149 198.665C160.041 195.291 159.981 188.542 157.209 185.891C156.305 185.469 155.281 185.108 154.256 184.867C158.173 188 157.45 195.472 154.799 199.328Z" fill="#121212"/>
<path d="M152.147 184.505C152.147 184.505 150.581 184.505 149.978 184.505C152.509 187.639 153.895 195.833 149.255 199.389C149.918 199.449 150.581 199.509 151.304 199.569C151.485 199.569 151.665 199.569 151.846 199.569C156.365 195.11 154.859 186.735 152.147 184.505Z" fill="#121212"/>
<path d="M159.499 197.521C161.306 196.195 162.451 194.447 162.572 192.64C162.632 190.953 161.728 189.145 160.162 187.638C161.728 190.29 161.246 195.532 159.499 197.521Z" fill="#121212"/>
<path d="M151.906 199.931C151.665 199.931 151.424 199.931 151.244 199.931C146.483 199.75 143.35 198.726 141.663 196.918C140.156 195.291 140.096 193.303 140.156 191.676C140.337 187.699 144.013 183.782 151.906 184.083C157.872 184.324 163.174 188.422 162.994 192.58C162.933 194.086 162.21 195.532 160.824 196.798C158.655 198.786 155.401 199.931 151.906 199.931ZM151.003 185.289C144.555 185.289 141.482 188.482 141.362 191.736C141.241 193.785 141.603 195.05 142.567 196.074C144.013 197.641 146.845 198.485 151.304 198.665C154.738 198.786 157.932 197.762 159.981 195.894C161.126 194.869 161.728 193.724 161.788 192.519C161.969 188.663 156.606 185.469 151.846 185.289C151.545 185.349 151.304 185.289 151.003 185.289Z" fill="#121212"/>
<path d="M145.037 190.892C144.856 190.892 144.676 190.832 144.555 190.712C144.013 190.109 143.531 190.35 143.531 190.41C143.229 190.591 142.868 190.471 142.687 190.23C142.506 189.989 142.627 189.567 142.868 189.386C143.35 189.085 144.495 188.844 145.459 189.928C145.7 190.169 145.64 190.531 145.399 190.772C145.278 190.832 145.158 190.892 145.037 190.892Z" fill="#121212"/>
<path d="M148.713 191.796C148.532 191.796 148.351 191.736 148.231 191.615C147.749 191.073 147.267 191.254 147.146 191.314C146.845 191.495 146.483 191.374 146.303 191.073C146.122 190.772 146.242 190.41 146.483 190.23C146.965 189.928 148.11 189.687 149.074 190.772C149.315 191.013 149.255 191.374 149.014 191.615C149.014 191.736 148.894 191.796 148.713 191.796Z" fill="#121212"/>
<path d="M153.654 185.228C149.978 185.228 147.447 184.445 146.242 182.999C145.579 182.215 145.399 181.312 145.579 180.347C145.82 179.203 147.086 177.274 149.858 177.756C153.473 178.359 154.859 180.589 154.256 184.746L153.654 184.686V185.228ZM149.014 178.841C147.206 178.841 146.785 180.348 146.724 180.589C146.604 181.191 146.724 181.733 147.146 182.276C148.05 183.36 150.159 184.023 153.111 184.083C153.533 180.167 151.665 179.323 149.617 178.962C149.436 178.841 149.195 178.841 149.014 178.841Z" fill="#121212"/>
<path d="M158.655 186.253C157.269 186.253 155.522 185.951 153.352 185.168L152.87 184.987L152.991 184.505C154.015 179.022 157.57 178.962 160.101 179.323C163.717 179.865 163.777 182.577 163.717 183.119C163.717 183.601 163.234 184.626 162.15 185.349C161.427 185.831 160.342 186.253 158.655 186.253ZM154.256 184.204C158.233 185.59 160.342 185.047 161.427 184.385C162.27 183.842 162.511 183.18 162.511 183.059C162.511 182.396 162.331 180.83 159.92 180.528C156.667 179.986 154.979 181.071 154.256 184.204Z" fill="#121212"/>
<path d="M163.656 135.878L184.927 208.728L164.741 176.973L167.814 168.899L157.028 162.873L147.387 140.819L163.656 135.878Z" fill="#F8F9F9"/>
<path d="M184.927 209.331C184.746 209.331 184.505 209.21 184.445 209.03L164.259 177.274C164.138 177.094 164.138 176.913 164.199 176.732L167.091 169.14L156.787 163.355C156.667 163.295 156.606 163.174 156.546 163.054L146.905 141C146.845 140.819 146.845 140.639 146.905 140.518C146.965 140.337 147.086 140.217 147.267 140.217L163.476 135.276C163.656 135.215 163.777 135.276 163.958 135.336C164.078 135.396 164.199 135.517 164.259 135.697L185.529 208.547C185.59 208.849 185.469 209.15 185.228 209.271C185.108 209.331 185.047 209.331 184.927 209.331ZM165.404 176.973L183.179 204.872L163.235 136.662L148.231 141.241L157.51 162.512L168.115 168.417C168.356 168.537 168.477 168.899 168.356 169.14L165.404 176.973Z" fill="#121212"/>
<path d="M198.846 134.733L185.047 208.728L200.835 175.226L197.219 167.332L207.583 160.644L215.176 138.469L198.846 134.733Z" fill="#F8F9F9"/>
<path d="M185.047 209.331C184.987 209.331 184.927 209.331 184.867 209.331C184.565 209.21 184.385 208.969 184.445 208.668L198.244 134.613C198.244 134.432 198.364 134.312 198.485 134.191C198.605 134.131 198.786 134.071 198.967 134.131L215.296 137.867C215.477 137.927 215.597 137.987 215.718 138.168C215.778 138.289 215.838 138.469 215.778 138.65L208.186 160.824C208.126 160.945 208.065 161.065 207.945 161.126L198.003 167.573L201.377 174.985C201.437 175.165 201.437 175.346 201.377 175.467L185.59 208.969C185.469 209.21 185.288 209.331 185.047 209.331ZM199.328 135.456L186.494 204.209L200.112 175.165L196.617 167.513C196.496 167.212 196.617 166.91 196.858 166.73L207.041 160.162L214.332 138.831L199.328 135.456Z" fill="#121212"/>
<path d="M201.317 224.274C202.642 228.673 207.282 231.204 211.741 229.878C216.14 228.553 218.67 223.913 217.345 219.454C216.26 215.839 212.946 213.488 209.391 213.488L207.101 205.896L204.631 197.581L201.618 195.833L199.87 199.027L200.533 201.196L203.124 202.221L201.497 204.51L204.088 205.535L202.461 207.824L205.052 208.849L203.425 211.138L204.631 215.055C201.678 216.983 200.232 220.659 201.317 224.274ZM209.331 221.864C210.596 221.503 211.861 222.226 212.223 223.431C212.584 224.696 211.861 225.962 210.656 226.323C209.391 226.685 208.125 225.962 207.764 224.756C207.342 223.551 208.065 222.286 209.331 221.864Z" fill="#96B6C5"/>
<path d="M209.27 230.842C207.824 230.842 206.318 230.481 204.992 229.758C202.883 228.613 201.377 226.745 200.654 224.455C199.569 220.84 200.835 216.983 203.787 214.754L202.702 211.199C202.642 211.018 202.703 210.837 202.763 210.656L203.908 209.03L202.04 208.306C201.859 208.246 201.738 208.065 201.678 207.945C201.618 207.764 201.678 207.583 201.738 207.403L202.883 205.776L201.015 205.053C200.835 204.992 200.714 204.812 200.654 204.691C200.594 204.51 200.654 204.33 200.714 204.149L201.859 202.522L199.991 201.799C199.81 201.739 199.69 201.558 199.629 201.437L198.967 199.268C198.906 199.087 198.967 198.967 199.027 198.786L200.774 195.592C200.835 195.472 200.955 195.351 201.136 195.291C201.317 195.231 201.437 195.291 201.618 195.351L204.631 197.099C204.751 197.159 204.872 197.28 204.932 197.46L209.572 212.946C213.308 213.127 216.561 215.658 217.706 219.333C218.369 221.623 218.128 224.033 216.983 226.142C215.838 228.251 213.97 229.758 211.681 230.481C211.018 230.722 210.174 230.842 209.27 230.842ZM204.028 211.139L205.113 214.814C205.173 215.055 205.113 215.356 204.872 215.477C202.1 217.405 200.835 220.84 201.799 224.094C202.401 226.082 203.727 227.709 205.535 228.673C207.342 229.637 209.451 229.878 211.44 229.276C213.428 228.673 215.055 227.347 216.019 225.54C216.983 223.732 217.224 221.623 216.622 219.635C215.658 216.321 212.645 214.091 209.21 214.091C208.969 214.091 208.668 213.91 208.608 213.669L203.908 198.003L201.618 196.677L200.292 199.087L200.774 200.714L203.124 201.618C203.305 201.678 203.426 201.859 203.486 201.98C203.546 202.16 203.486 202.341 203.426 202.522L202.281 204.149L204.149 204.872C204.329 204.932 204.45 205.113 204.51 205.233C204.57 205.414 204.51 205.595 204.45 205.776L203.305 207.403L205.173 208.126C205.354 208.186 205.474 208.367 205.535 208.487C205.595 208.668 205.535 208.849 205.474 209.03L204.028 211.139ZM209.994 227.106C209.511 227.106 209.029 226.986 208.608 226.745C207.945 226.383 207.402 225.721 207.161 224.997C206.92 224.214 207.041 223.431 207.403 222.768C207.764 222.105 208.427 221.563 209.15 221.322C209.933 221.081 210.717 221.201 211.379 221.563C212.042 221.924 212.585 222.587 212.826 223.31C213.067 224.094 212.946 224.877 212.585 225.54C212.223 226.203 211.56 226.745 210.837 226.986C210.536 227.046 210.235 227.106 209.994 227.106ZM209.994 222.406C209.813 222.406 209.632 222.406 209.511 222.467C209.09 222.587 208.668 222.889 208.487 223.31C208.306 223.732 208.246 224.214 208.367 224.636C208.487 225.058 208.788 225.48 209.21 225.66C209.632 225.901 210.114 225.901 210.536 225.781C210.958 225.66 211.379 225.359 211.56 224.937C211.741 224.515 211.801 224.033 211.681 223.612C211.56 223.19 211.259 222.768 210.837 222.587C210.536 222.467 210.295 222.406 209.994 222.406Z" fill="#121212"/>
<path d="M252.113 245.485C241.749 239.519 218.49 217.465 214.754 213.85C214.272 213.368 213.549 213.067 212.886 213.187C212.042 213.308 211.259 213.91 211.741 216.08C212.585 220.056 218.008 225.54 217.947 225.48C217.947 225.48 213.971 223.732 207.704 224.937C207.644 224.937 206.197 225.359 206.137 225.359C204.45 225.781 204.149 226.564 203.847 228.191C203.727 228.914 203.727 231.023 203.908 231.806C204.028 232.228 204.209 232.771 204.45 233.373C204.39 234.518 204.088 239.097 204.39 240.423C204.691 241.93 205.655 246.569 206.258 247.292C206.86 248.015 208.306 247.955 208.306 247.955L211.259 247.594C211.259 247.594 213.609 247.895 215.718 248.256C215.899 248.317 216.14 248.196 216.321 248.076C217.706 248.497 219.092 249.04 220.478 249.522C222.406 250.185 224.335 250.787 226.383 251.209C227.106 251.33 227.709 251.631 228.372 251.872C228.492 251.932 228.613 251.932 228.733 251.992C231.385 251.812 233.132 251.33 233.132 251.33C233.132 251.33 241.929 261.091 242.291 261.694C242.291 261.694 249.16 267.599 254.824 261.151C254.824 261.151 257.355 258.5 257.897 254.101C258.319 249.763 252.113 245.485 252.113 245.485Z" fill="#F4C8BD"/>
<path d="M248.678 264.827C244.882 264.827 241.809 262.236 241.749 262.236C241.688 262.176 241.628 262.115 241.628 262.055C241.327 261.573 236.145 255.789 232.831 252.113C231.324 252.595 225.961 253.86 218.55 249.582C217.164 248.799 212.765 248.317 208.608 248.498C208.608 248.498 206.86 248.498 206.318 248.076C205.956 247.774 205.776 247.473 205.655 247.232C204.992 246.087 204.269 244.822 204.751 243.617C205.113 242.833 205.956 242.291 207.282 241.93C211.62 240.845 216.441 240.965 216.682 240.965C217.044 240.965 217.285 241.267 217.285 241.568C217.285 241.869 216.983 242.171 216.682 242.171C216.622 242.171 211.801 242.05 207.583 243.074C206.92 243.255 206.077 243.556 205.836 244.039C205.595 244.641 206.137 245.665 206.619 246.509C206.74 246.75 206.86 246.871 207.041 247.051C207.222 247.112 208.186 247.232 208.487 247.232C212.404 247.051 217.285 247.413 219.092 248.498C227.106 253.137 232.65 250.787 232.65 250.787C232.891 250.667 233.192 250.727 233.313 250.908C235.301 253.137 241.628 260.127 242.472 261.272C243.135 261.814 249.1 266.454 254.161 260.79C254.222 260.73 256.572 258.199 257.054 254.101C257.536 250.124 251.691 245.967 251.631 245.967C241.749 240.242 220.478 220.298 214.151 214.272C213.729 213.91 213.247 213.73 212.765 213.79C212.524 213.85 212.283 213.91 212.163 214.091C211.922 214.453 211.922 215.115 212.102 215.959C212.765 219.092 216.501 223.31 218.068 224.937C218.188 225.058 218.55 225.419 218.188 225.841C218.008 226.082 217.646 226.142 217.405 225.962C217.345 225.962 213.79 223.672 206.077 226.082C204.932 226.444 204.088 227.468 204.028 228.673V228.733C204.028 229.396 204.088 229.999 204.329 230.782L204.45 231.264C204.51 231.385 204.51 231.565 204.57 231.686C205.896 230.481 207.945 229.637 209.572 229.637H210.295C210.656 229.637 210.958 229.637 211.259 229.637C212.524 229.637 213.729 229.698 214.814 230.119C215.115 230.24 215.296 230.541 215.176 230.842C215.055 231.144 214.754 231.324 214.452 231.264C214.452 231.264 212.826 230.842 210.897 230.842C210.777 230.842 210.596 230.842 210.476 230.842C208.849 230.903 207.101 231.204 205.836 232.228C205.113 232.771 204.631 233.674 204.51 234.639C204.329 235.603 204.329 236.567 204.45 237.531C205.715 236.567 208.547 235.362 215.115 235.542C215.477 235.542 215.718 235.844 215.718 236.145C215.718 236.446 215.417 236.748 215.115 236.748C205.715 236.567 204.691 239.037 204.691 239.098C204.57 239.339 204.329 239.519 204.088 239.519C203.847 239.519 203.606 239.339 203.546 239.098C203.185 237.591 203.124 236.024 203.365 234.518C203.426 233.976 203.606 233.494 203.847 233.072C203.606 232.831 203.486 232.349 203.305 231.746L203.185 231.264C202.944 230.36 202.823 229.577 202.823 228.854V228.794C202.944 227.046 204.088 225.6 205.715 225.058C210.415 223.612 213.669 223.792 215.658 224.214C213.729 221.985 211.5 218.912 210.958 216.321C210.717 215.055 210.777 214.091 211.259 213.489C211.56 213.067 212.042 212.765 212.645 212.705C213.488 212.585 214.332 212.886 214.995 213.549C219.454 217.827 242.17 239.278 252.233 245.063C252.535 245.304 258.741 249.642 258.199 254.342C257.656 258.922 255.126 261.633 255.005 261.754C253.017 264.044 250.727 264.827 248.678 264.827Z" fill="#121212"/>
<path d="M205.173 244.641C204.932 244.641 204.691 244.521 204.631 244.28C203.908 242.472 203.426 239.097 203.847 238.133C203.968 237.832 204.209 237.712 204.329 237.712C204.631 237.591 204.992 237.832 205.052 238.133C205.113 238.374 205.052 238.615 204.872 238.736C204.691 239.338 204.992 241.99 205.715 243.797C205.836 244.099 205.655 244.46 205.354 244.581C205.354 244.641 205.233 244.641 205.173 244.641Z" fill="#121212"/>
<path d="M241.206 237.41C241.206 237.41 255.487 233.494 261.453 243.074C265.912 250.245 265.008 264.586 256.03 270.913C250.667 274.709 243.255 273.444 238.917 268.503C235.723 264.827 234.036 255.849 233.132 251.45C233.132 251.45 241.447 262.477 248.076 253.86C254.162 246.027 241.206 237.41 241.206 237.41Z" fill="#FCC018"/>
<path d="M248.919 273.805C245.063 273.805 241.206 272.118 238.435 268.924C235.181 265.189 233.494 256.572 232.59 251.932L232.529 251.631C232.469 251.33 232.59 251.089 232.891 250.968C233.132 250.847 233.433 250.908 233.614 251.149C233.674 251.209 237.772 256.572 242.291 256.572C244.219 256.572 246.027 255.548 247.594 253.499C248.799 251.932 249.281 250.124 248.979 248.317C248.076 242.954 241.267 238.254 240.845 237.953C240.664 237.832 240.604 237.712 240.544 237.531C240.483 237.23 240.664 236.928 240.965 236.868C241.086 236.808 255.728 232.951 261.874 242.833C266.695 250.606 265.309 265.128 256.27 271.515C254.101 273.022 251.51 273.805 248.919 273.805ZM234.217 253.559C235.181 258.259 236.747 265.128 239.399 268.141C243.556 272.962 250.727 273.986 255.728 270.491C264.224 264.526 265.55 250.787 260.97 243.436C256.331 235.964 246.268 237.049 242.653 237.712C244.822 239.399 249.462 243.436 250.245 248.076C250.606 250.305 250.064 252.354 248.618 254.222C246.81 256.572 244.701 257.777 242.351 257.777C238.977 257.777 235.904 255.306 234.217 253.559Z" fill="#121212"/>
<path d="M246.931 270.19C246.509 270.19 246.027 270.19 245.545 270.13C245.183 270.13 244.942 269.828 245.002 269.467C245.002 269.105 245.304 268.864 245.665 268.924C250.425 269.226 254.101 267.96 256.632 265.189C258.5 263.14 258.982 261.031 258.982 260.971C259.042 260.669 259.404 260.428 259.705 260.489C260.006 260.549 260.247 260.91 260.187 261.212C260.187 261.392 258.078 270.19 246.931 270.19Z" fill="#121212"/>
<path d="M209.369 286.098L180.386 287.122C178.759 287.182 177.373 285.917 177.313 284.23L176.469 261.091C176.409 259.464 177.674 258.078 179.361 258.018L208.345 256.994C209.972 256.933 211.358 258.199 211.418 259.886L212.261 283.024C212.322 284.651 211.056 286.037 209.369 286.098Z" fill="#96B6C5"/>
<path d="M180.325 287.724C179.422 287.724 178.578 287.363 177.915 286.76C177.192 286.098 176.831 285.254 176.77 284.29L175.927 261.151C175.866 259.163 177.433 257.536 179.361 257.476L208.345 256.451C210.333 256.391 211.96 257.958 212.02 259.886L212.864 283.024C212.924 285.013 211.357 286.64 209.429 286.7L180.446 287.724C180.386 287.724 180.325 287.724 180.325 287.724ZM208.465 257.596H208.405L179.422 258.621C178.096 258.681 177.072 259.765 177.132 261.091L177.975 284.23C177.975 284.892 178.277 285.435 178.759 285.857C179.241 286.278 179.843 286.519 180.446 286.519L209.429 285.495C210.755 285.435 211.779 284.35 211.719 283.024L210.875 259.886C210.815 258.621 209.731 257.596 208.465 257.596Z" fill="#121212"/>
<path d="M197.234 269.316C197.295 270.943 196.029 272.269 194.402 272.329C192.775 272.389 191.45 271.124 191.39 269.497C191.329 267.87 192.595 266.544 194.222 266.484C195.788 266.424 197.174 267.689 197.234 269.316Z" fill="#121212"/>
<path d="M194.282 272.932C192.414 272.932 190.847 271.425 190.787 269.557C190.727 268.593 191.088 267.75 191.751 267.026C192.414 266.364 193.258 265.942 194.222 265.882C195.186 265.821 196.029 266.183 196.752 266.846C197.415 267.509 197.837 268.352 197.897 269.316C197.958 271.244 196.451 272.871 194.523 272.932C194.402 272.932 194.342 272.932 194.282 272.932ZM194.282 267.087H194.222C192.956 267.147 191.932 268.232 191.992 269.497C192.052 270.762 193.077 271.787 194.402 271.726C195.005 271.726 195.608 271.425 196.029 271.003C196.451 270.582 196.692 269.979 196.632 269.376C196.632 268.774 196.331 268.171 195.909 267.75C195.427 267.328 194.884 267.087 194.282 267.087Z" fill="#121212"/>
<path d="M194.387 272.314L194.568 278.159L194.387 272.314Z" fill="#96B6C5"/>
<path d="M194.628 278.761C194.327 278.761 194.026 278.52 194.026 278.159L193.845 272.314C193.845 271.952 194.086 271.711 194.448 271.711C194.749 271.711 195.05 271.952 195.05 272.314L195.231 278.159C195.231 278.46 194.93 278.701 194.628 278.761Z" fill="#121212"/>
<path d="M205.52 257.084L199.735 257.265L199.494 250.757C199.374 247.925 197.024 245.696 194.131 245.816L192.745 245.876C189.913 245.997 187.684 248.347 187.804 251.239L188.045 257.747L182.261 257.928L182.08 252.083C181.839 245.635 186.901 240.273 193.288 240.032C199.735 239.79 205.098 244.852 205.339 251.239L205.52 257.084Z" fill="#96B6C5"/>
<path d="M182.261 258.53C181.959 258.53 181.658 258.289 181.658 257.928L181.477 252.083C181.357 248.829 182.502 245.696 184.731 243.285C186.961 240.875 189.974 239.489 193.227 239.369C196.481 239.248 199.615 240.393 202.025 242.623C204.435 244.852 205.821 247.865 205.941 251.119L206.122 256.964C206.122 257.325 205.881 257.566 205.52 257.566L199.735 257.747C199.554 257.747 199.434 257.687 199.313 257.566C199.193 257.446 199.133 257.325 199.133 257.144L198.891 250.637C198.831 249.431 198.349 248.287 197.445 247.443C196.541 246.599 195.397 246.178 194.191 246.238L192.806 246.298C191.6 246.358 190.456 246.84 189.612 247.744C188.768 248.648 188.347 249.793 188.407 250.998L188.648 257.506C188.648 257.867 188.407 258.108 188.045 258.108L182.261 258.53ZM193.649 240.634C193.529 240.634 193.408 240.634 193.227 240.634C190.275 240.755 187.563 241.96 185.515 244.129C183.526 246.298 182.441 249.07 182.562 252.023L182.743 257.265L187.322 257.084L187.141 251.179C187.081 249.612 187.624 248.166 188.708 247.021C189.733 245.876 191.179 245.274 192.745 245.214L194.131 245.153C195.698 245.093 197.144 245.635 198.289 246.72C199.434 247.805 200.036 249.19 200.097 250.757L200.277 256.662L204.857 256.481L204.676 251.239C204.556 248.287 203.35 245.575 201.181 243.526C199.133 241.658 196.481 240.634 193.649 240.634Z" fill="#121212"/>
<path d="M193.423 258.741C193.965 257.415 193.061 255.728 191.435 254.342L190.41 255.487L193.423 258.741Z" fill="#F4C8BD"/>
<path d="M193.604 259.826L189.567 255.487L191.435 253.559L191.856 253.921C193.845 255.608 194.628 257.476 193.965 258.982L193.604 259.826ZM191.254 255.487L192.881 257.235C192.7 256.572 192.218 255.849 191.495 255.186L191.254 255.487Z" fill="#121212"/>
<path d="M181.914 268.262C182.818 266.514 181.914 264.947 180.649 263.501L178.841 265.851L181.914 268.262Z" fill="#FFB67C"/>
<path d="M187.759 264.285C188.542 261.995 188 260.248 186.012 259.163L182.698 262.356L187.759 264.285Z" fill="#F4C8BD"/>
<path d="M188.12 265.068L181.613 262.598L185.891 258.44L186.253 258.681C188.482 259.886 189.205 261.935 188.301 264.526L188.12 265.068ZM183.782 262.115L187.337 263.441C187.699 261.874 187.337 260.73 186.072 259.886L183.782 262.115Z" fill="#121212"/>
<path d="M143.169 246.75C143.29 243.858 141.964 241.267 144.856 241.206C144.856 241.206 166.368 241.809 172.936 242.894C180.106 244.099 187.397 244.701 193.724 248.256C195.231 249.1 196.496 249.883 197.159 250.546C199.509 252.715 196.798 256.391 193.544 255.126C191.615 254.342 184.987 250.667 184.505 251.51C184.023 252.354 191.133 254.463 192.76 256.331C194.387 258.139 193.122 260.428 190.953 260.971C188.783 261.513 181.312 257.114 181.01 257.958C180.709 258.801 184.987 259.826 187.277 261.754C189.145 263.381 187.156 267.117 183.963 265.851C181.432 264.887 176.009 262.176 175.828 262.778C175.647 263.381 180.046 264.706 181.432 265.791C182.818 266.876 182.095 269.587 179.986 269.527C178.058 269.467 170.526 266.213 164.922 263.381C159.8 260.79 154.618 260.428 148.894 259.826C147.508 259.705 146.182 259.585 144.977 259.645C141.783 259.765 142.868 257.476 142.989 254.282L143.169 246.75Z" fill="#F4C8BD"/>
<path d="M179.986 270.13C179.926 270.13 179.926 270.13 179.986 270.13C177.696 270.069 169.501 266.394 164.56 263.923C159.86 261.573 155.1 261.091 149.978 260.549L148.713 260.428C147.267 260.248 146.001 260.247 144.856 260.247C143.772 260.308 143.049 260.067 142.567 259.585C141.844 258.801 141.964 257.596 142.145 256.09C142.205 255.487 142.265 254.885 142.265 254.282L142.567 246.63C142.567 245.906 142.506 245.183 142.446 244.46C142.326 243.135 142.205 241.99 142.868 241.206C143.29 240.724 143.892 240.544 144.796 240.483C145.7 240.483 166.428 241.086 172.936 242.171C174.081 242.351 175.286 242.532 176.431 242.713C182.336 243.617 188.482 244.581 193.905 247.594C195.652 248.558 196.797 249.341 197.46 249.944C198.665 251.089 198.846 252.715 198.003 254.101C197.159 255.367 195.351 256.391 193.242 255.548C193.061 255.487 192.82 255.367 192.579 255.246C192.82 255.427 193.001 255.608 193.122 255.728C193.965 256.632 194.206 257.777 193.845 258.801C193.483 260.006 192.338 260.971 190.952 261.332C189.988 261.573 188.542 261.151 186.614 260.428C186.915 260.609 187.217 260.85 187.458 261.091C188.482 261.995 188.663 263.562 187.879 264.827C187.156 266.092 185.469 266.996 183.481 266.213C183.059 266.032 182.577 265.851 182.035 265.61C182.517 266.273 182.637 267.237 182.336 268.081C182.155 269.467 181.191 270.13 179.986 270.13ZM145.76 259.103C146.724 259.103 147.688 259.163 148.833 259.283L150.099 259.404C155.281 259.946 160.222 260.428 165.103 262.899C171.008 265.851 178.178 268.924 179.926 268.985C179.926 268.985 179.926 268.985 179.986 268.985C181.01 268.985 181.311 268.201 181.432 267.96C181.613 267.418 181.552 266.755 181.07 266.333C180.468 265.912 179.263 265.309 178.118 264.827C176.009 263.863 174.985 263.441 175.226 262.658C175.286 262.477 175.406 262.296 175.587 262.236C176.19 261.935 177.274 262.417 181.191 264.104C182.336 264.586 183.36 265.068 184.144 265.369C185.59 265.912 186.614 265.249 187.036 264.465C187.458 263.803 187.518 262.839 186.855 262.236C185.831 261.332 184.204 260.609 182.938 260.006C181.191 259.223 180.046 258.681 180.408 257.777C180.468 257.596 180.649 257.415 180.829 257.355C181.372 257.114 182.276 257.476 184.806 258.56C186.795 259.404 189.808 260.73 190.832 260.428C191.796 260.187 192.579 259.524 192.82 258.681C193.001 258.018 192.881 257.355 192.338 256.753C191.615 255.909 189.386 254.945 187.578 254.101C185.047 252.956 184.144 252.535 183.963 251.872C183.902 251.631 183.902 251.45 184.023 251.209C184.565 250.245 186.132 250.847 191.254 253.378C192.338 253.921 193.242 254.342 193.785 254.583C195.231 255.186 196.496 254.463 197.099 253.619C197.52 252.896 197.701 251.872 196.737 251.028C196.195 250.486 195.05 249.763 193.423 248.859C188.181 245.906 182.456 245.063 176.37 244.099C175.226 243.918 174.02 243.737 172.876 243.556C166.428 242.472 145.097 241.869 144.917 241.869C144.435 241.869 144.073 241.99 143.892 242.171C143.531 242.532 143.651 243.496 143.772 244.46C143.832 245.183 143.892 245.967 143.892 246.81L143.591 254.463C143.591 255.126 143.47 255.789 143.41 256.391C143.29 257.536 143.169 258.56 143.531 258.922C143.772 259.163 144.194 259.223 144.917 259.223C145.158 259.103 145.459 259.103 145.76 259.103Z" fill="#121212"/>
<path d="M140.879 238.615L140.638 263.803L155.883 262.839L155.944 240.303L140.879 238.615Z" fill="#FCC018"/>
<path d="M140.578 264.405C140.397 264.405 140.277 264.345 140.156 264.224C140.036 264.104 139.976 263.923 139.976 263.803L140.217 238.615C140.217 238.435 140.277 238.254 140.397 238.194C140.518 238.073 140.699 238.013 140.879 238.073L155.944 239.76C156.245 239.821 156.486 240.062 156.486 240.363L156.426 262.899C156.426 263.2 156.185 263.501 155.883 263.501L140.578 264.405C140.638 264.405 140.638 264.405 140.578 264.405ZM141.482 239.278L141.241 263.14L155.281 262.296L155.341 240.845L141.482 239.278Z" fill="#121212"/>
<path d="M149.617 242.713L143.049 242.291C142.687 242.291 142.446 241.99 142.506 241.628C142.506 241.267 142.808 241.086 143.169 241.086L149.677 241.508C150.038 241.508 150.279 241.809 150.219 242.171C150.219 242.472 149.978 242.713 149.617 242.713Z" fill="#121212"/>
<path d="M130.515 241.689C131.419 242.05 132.865 242.532 135.155 242.894C139.734 243.677 133.468 263.08 133.468 263.08L131.841 263.26L129.069 263.501C129.069 263.501 129.611 241.327 130.515 241.689Z" fill="#F8F9F9"/>
</g>
<path d="M253.077 339.063C250.667 339.063 248.317 338.701 245.967 337.978L107.859 294.594L108.221 293.449L246.328 336.833C249.1 337.677 251.932 338.039 254.764 337.797L254.885 339.003C254.282 339.063 253.68 339.063 253.077 339.063Z" fill="#121212"/>
<path d="M190.651 291.701L297.727 291.641C306.223 291.641 313.092 298.45 313.092 306.826V307.971C313.092 316.346 306.223 323.155 297.727 323.155L190.651 323.215C182.155 323.215 175.286 316.406 175.286 308.031V306.886C175.286 298.51 182.155 291.701 190.651 291.701Z" fill="#FCC018"/>
<path d="M190.651 323.818C181.854 323.818 174.683 316.708 174.683 308.031V306.886C174.683 298.149 181.854 291.099 190.651 291.099L297.727 291.039C306.524 291.039 313.695 298.149 313.695 306.826V307.971C313.695 316.708 306.524 323.758 297.727 323.758L190.651 323.818ZM190.651 292.304C182.517 292.304 175.888 298.872 175.888 306.886V308.031C175.888 316.045 182.517 322.613 190.651 322.613L297.727 322.553C305.862 322.553 312.49 315.985 312.49 307.971V306.826C312.49 298.812 305.862 292.244 297.727 292.244L190.651 292.304Z" fill="#121212"/>
<path d="M202.341 307.971L200.112 308.212L201.919 310.803C202.221 311.285 202.341 311.646 202.341 311.947C202.341 312.369 202.221 312.671 201.98 312.912C201.739 313.153 201.377 313.394 200.955 313.635C200.714 313.755 200.473 313.876 200.292 313.936C200.112 313.996 199.931 314.056 199.75 314.056C199.087 314.056 198.605 313.695 198.183 313.032L196.798 310.562L195.412 313.032C194.99 313.695 194.508 313.996 193.845 313.996C193.664 313.996 193.483 313.996 193.303 313.936C193.122 313.876 192.881 313.815 192.58 313.695C191.736 313.153 191.254 312.61 191.254 312.008C191.254 311.706 191.435 311.285 191.736 310.803L193.423 308.212L191.194 307.971C190.591 307.85 190.169 307.669 189.868 307.428C189.567 307.187 189.446 306.765 189.446 306.223V305.44C189.446 304.897 189.567 304.476 189.868 304.174C190.169 303.873 190.531 303.753 191.013 303.753C191.254 303.753 191.616 303.813 192.037 303.873L194.809 304.355C194.749 303.873 194.749 303.451 194.689 302.969C194.628 302.547 194.628 302.126 194.628 301.644C194.628 300.439 195.231 299.836 196.436 299.836H197.099C198.304 299.836 198.967 300.439 198.967 301.644C198.967 302.005 198.967 302.367 198.967 302.728C198.967 303.09 198.907 303.632 198.907 304.355L201.618 303.873C202.04 303.813 202.341 303.753 202.582 303.753C203.125 303.753 203.486 303.873 203.848 304.174C204.149 304.476 204.33 304.897 204.33 305.44V306.223C204.33 306.826 204.149 307.247 203.848 307.488C203.426 307.669 202.944 307.85 202.341 307.971Z" fill="#121212"/>
<path d="M221.262 307.971L219.032 308.212L220.84 310.803C221.141 311.285 221.262 311.646 221.262 311.947C221.262 312.369 221.141 312.671 220.9 312.912C220.659 313.153 220.297 313.394 219.876 313.635C219.635 313.755 219.394 313.876 219.213 313.936C219.032 313.996 218.851 314.056 218.671 314.056C218.008 314.056 217.526 313.695 217.104 313.032L215.718 310.562L214.332 313.032C213.91 313.695 213.428 313.996 212.765 313.996C212.585 313.996 212.404 313.996 212.223 313.936C212.042 313.876 211.801 313.815 211.5 313.695C210.656 313.153 210.174 312.61 210.174 312.008C210.174 311.706 210.355 311.285 210.656 310.803L212.344 308.212L210.114 307.971C209.512 307.85 209.09 307.669 208.789 307.428C208.487 307.187 208.367 306.765 208.367 306.223V305.44C208.367 304.897 208.487 304.476 208.789 304.174C209.09 303.873 209.451 303.753 209.933 303.753C210.174 303.753 210.536 303.813 210.958 303.873L213.73 304.355C213.669 303.873 213.669 303.451 213.609 302.969C213.549 302.547 213.549 302.126 213.549 301.644C213.549 300.439 214.151 299.836 215.356 299.836H216.019C217.224 299.836 217.887 300.439 217.887 301.644C217.887 302.005 217.887 302.367 217.887 302.728C217.887 303.09 217.827 303.632 217.827 304.355L220.539 303.873C220.96 303.813 221.262 303.753 221.503 303.753C222.045 303.753 222.406 303.873 222.768 304.174C223.069 304.476 223.25 304.897 223.25 305.44V306.223C223.25 306.826 223.069 307.247 222.768 307.488C222.406 307.669 221.924 307.85 221.262 307.971Z" fill="#121212"/>
<path d="M240.243 307.971L238.013 308.212L239.821 310.803C240.122 311.285 240.243 311.646 240.243 311.947C240.243 312.369 240.122 312.671 239.881 312.912C239.64 313.153 239.278 313.394 238.857 313.635C238.616 313.755 238.375 313.876 238.194 313.936C238.013 313.996 237.832 314.056 237.652 314.056C236.989 314.056 236.507 313.695 236.085 313.032L234.699 310.562L233.313 313.032C232.891 313.695 232.409 313.996 231.746 313.996C231.566 313.996 231.385 313.996 231.204 313.936C231.023 313.876 230.782 313.815 230.481 313.695C229.637 313.153 229.155 312.61 229.155 312.008C229.155 311.706 229.336 311.285 229.637 310.803L231.325 308.212L229.095 307.971C228.493 307.85 228.071 307.669 227.769 307.428C227.468 307.187 227.348 306.765 227.348 306.223V305.44C227.348 304.897 227.468 304.476 227.769 304.174C228.071 303.873 228.432 303.753 228.914 303.753C229.155 303.753 229.517 303.813 229.939 303.873L232.71 304.355C232.65 303.873 232.65 303.451 232.59 302.969C232.53 302.547 232.53 302.126 232.53 301.644C232.53 300.439 233.132 299.836 234.337 299.836H235C236.205 299.836 236.868 300.439 236.868 301.644C236.868 302.005 236.868 302.367 236.868 302.728C236.868 303.09 236.808 303.632 236.808 304.355L239.519 303.873C239.941 303.813 240.243 303.753 240.484 303.753C241.026 303.753 241.387 303.873 241.749 304.174C242.05 304.476 242.231 304.897 242.231 305.44V306.223C242.231 306.826 242.05 307.247 241.749 307.488C241.327 307.669 240.845 307.85 240.243 307.971Z" fill="#121212"/>
<path d="M259.163 307.971L256.933 308.212L258.741 310.803C259.042 311.285 259.163 311.646 259.163 311.947C259.163 312.369 259.042 312.671 258.801 312.912C258.56 313.153 258.199 313.394 257.777 313.635C257.536 313.755 257.295 313.876 257.114 313.936C256.933 313.996 256.753 314.056 256.572 314.056C255.909 314.056 255.427 313.695 255.005 313.032L253.619 310.562L252.233 313.032C251.812 313.695 251.33 313.996 250.667 313.996C250.486 313.996 250.305 313.996 250.124 313.936C249.944 313.876 249.703 313.815 249.401 313.695C248.558 313.153 248.076 312.61 248.076 312.008C248.076 311.706 248.257 311.285 248.558 310.803L250.245 308.212L248.015 307.971C247.413 307.85 246.991 307.669 246.69 307.428C246.389 307.187 246.268 306.765 246.268 306.223V305.44C246.268 304.897 246.389 304.476 246.69 304.174C246.991 303.873 247.353 303.753 247.835 303.753C248.076 303.753 248.437 303.813 248.859 303.873L251.631 304.355C251.571 303.873 251.571 303.451 251.51 302.969C251.45 302.547 251.45 302.126 251.45 301.644C251.45 300.439 252.053 299.836 253.258 299.836H253.921C255.126 299.836 255.789 300.439 255.789 301.644C255.789 302.005 255.789 302.367 255.789 302.728C255.789 303.09 255.728 303.632 255.728 304.355L258.44 303.873C258.862 303.813 259.163 303.753 259.404 303.753C259.946 303.753 260.308 303.873 260.669 304.174C260.971 304.476 261.151 304.897 261.151 305.44V306.223C261.151 306.826 260.971 307.247 260.669 307.488C260.308 307.669 259.826 307.85 259.163 307.971Z" fill="#121212"/>
<path d="M278.144 307.971L275.914 308.212L277.722 310.803C278.023 311.285 278.144 311.646 278.144 311.947C278.144 312.369 278.023 312.671 277.782 312.912C277.541 313.153 277.18 313.394 276.758 313.635C276.517 313.755 276.276 313.876 276.095 313.936C275.914 313.996 275.733 314.056 275.553 314.056C274.89 314.056 274.408 313.695 273.986 313.032L272.6 310.562L271.214 313.032C270.792 313.695 270.31 313.996 269.647 313.996C269.467 313.996 269.286 313.996 269.105 313.936C268.924 313.876 268.683 313.815 268.382 313.695C267.539 313.153 267.056 312.61 267.056 312.008C267.056 311.706 267.237 311.285 267.539 310.803L269.226 308.212L266.996 307.971C266.394 307.85 265.972 307.669 265.671 307.428C265.369 307.187 265.249 306.765 265.249 306.223V305.44C265.249 304.897 265.369 304.476 265.671 304.174C265.972 303.873 266.333 303.753 266.815 303.753C267.056 303.753 267.418 303.813 267.84 303.873L270.612 304.355C270.551 303.873 270.551 303.451 270.491 302.969C270.431 302.547 270.431 302.126 270.431 301.644C270.431 300.439 271.033 299.836 272.239 299.836H272.901C274.106 299.836 274.769 300.439 274.769 301.644C274.769 302.005 274.769 302.367 274.769 302.728C274.769 303.09 274.709 303.632 274.709 304.355L277.421 303.873C277.842 303.813 278.144 303.753 278.385 303.753C278.927 303.753 279.289 303.873 279.65 304.174C279.951 304.476 280.132 304.897 280.132 305.44V306.223C280.132 306.826 279.951 307.247 279.65 307.488C279.228 307.669 278.746 307.85 278.144 307.971Z" fill="#121212"/>
<path d="M297.064 307.971L294.835 308.212L296.642 310.803C296.944 311.285 297.064 311.646 297.064 311.947C297.064 312.369 296.944 312.671 296.703 312.912C296.462 313.153 296.1 313.394 295.678 313.635C295.437 313.755 295.196 313.876 295.016 313.936C294.835 313.996 294.654 314.056 294.473 314.056C293.81 314.056 293.328 313.695 292.907 313.032L291.521 310.562L290.135 313.032C289.713 313.695 289.231 313.996 288.568 313.996C288.387 313.996 288.207 313.996 288.026 313.936C287.845 313.876 287.604 313.815 287.303 313.695C286.459 313.153 285.977 312.61 285.977 312.008C285.977 311.706 286.158 311.285 286.459 310.803L288.146 308.212L285.917 307.971C285.314 307.85 284.892 307.669 284.591 307.428C284.29 307.187 284.169 306.765 284.169 306.223V305.44C284.169 304.897 284.29 304.476 284.591 304.174C284.892 303.873 285.254 303.753 285.736 303.753C285.977 303.753 286.339 303.813 286.76 303.873L289.532 304.355C289.472 303.873 289.472 303.451 289.412 302.969C289.351 302.547 289.351 302.126 289.351 301.644C289.351 300.439 289.954 299.836 291.159 299.836H291.822C293.027 299.836 293.69 300.439 293.69 301.644C293.69 302.005 293.69 302.367 293.69 302.728C293.69 303.09 293.63 303.632 293.63 304.355L296.341 303.873C296.763 303.813 297.064 303.753 297.305 303.753C297.848 303.753 298.209 303.873 298.571 304.174C298.872 304.476 299.053 304.897 299.053 305.44V306.223C299.053 306.826 298.872 307.247 298.571 307.488C298.149 307.669 297.727 307.85 297.064 307.971Z" fill="#121212"/>
</g>
<defs>
<clipPath id="clip0_14543_1084">
<rect width="376" height="376" fill="white"/>
</clipPath>
</defs>
</svg>
