<svg width="376" height="376" viewBox="0 0 376 376" fill="none" xmlns="http://www.w3.org/2000/svg">
<path d="M51.7603 199.147L61.1603 267.9C61.4013 269.226 61.5821 270.551 62.0641 271.937C62.1846 272.178 62.3051 272.48 62.3051 272.721C62.5462 273.263 62.6667 273.745 62.8474 274.287C63.0885 274.709 63.2692 275.312 63.5103 275.733C66.2821 281.096 71.2231 285.133 76.9474 286.881L244.882 339.665C250.606 341.473 256.632 340.991 261.995 338.34C262.356 338.219 262.537 337.978 262.899 337.918C263.321 337.677 263.923 337.376 264.345 337.014C264.706 336.773 265.008 336.592 265.369 336.351C266.695 335.327 267.96 334.242 269.045 332.977L269.165 332.856C269.527 332.435 269.828 332.073 270.19 331.651C270.31 331.531 270.431 331.41 270.551 331.23C270.913 330.808 271.214 330.326 271.455 329.904L327.433 240.303C328.88 237.832 330.024 235.181 330.567 232.349C330.567 232.108 330.687 231.806 330.687 231.565C330.928 230.421 330.928 229.336 330.928 228.191C330.928 227.95 330.928 227.649 330.928 227.408C330.808 222.828 329.362 218.49 326.71 214.814L258.741 118.404C258.199 117.621 257.596 116.837 256.933 116.174C256.572 115.813 256.271 115.512 255.909 115.15C255.668 115.03 255.547 114.788 255.367 114.728C255.005 114.367 254.704 114.065 254.342 113.824C253.8 113.403 253.197 112.921 252.655 112.619C251.51 111.836 250.305 111.173 248.98 110.631C248.558 110.39 248.076 110.269 247.654 110.088C247.232 109.968 246.75 109.727 246.328 109.667C244.099 109.004 241.749 108.642 239.399 108.642L136.481 110.209C128.768 110.33 121.477 113.463 116.054 118.826L59.8346 174.985C55.2551 179.564 52.3628 185.469 51.5795 191.856C51.459 192.399 51.459 193.001 51.459 193.544C51.459 195.231 51.5192 197.28 51.7603 199.147Z" fill="#C1D9FD"/>
<path d="M251.811 341.353C249.461 341.353 247.051 340.991 244.701 340.268L76.7666 287.483C70.8615 285.615 65.8602 281.458 63.0281 276.035C62.9076 275.794 62.7871 275.553 62.6666 275.251C62.5461 275.01 62.4256 274.769 62.3653 274.528C62.2448 274.167 62.1243 273.926 62.064 273.685C62.0038 273.444 61.8833 273.203 61.823 272.962L61.7628 272.841V272.721C61.7628 272.66 61.7025 272.419 61.582 272.238L61.5217 272.178C61.0397 270.792 60.7987 269.406 60.6179 268.081L51.1576 199.208C50.9166 197.4 50.8564 195.472 50.7358 193.664V193.363C50.7358 192.76 50.7358 192.158 50.8564 191.555C51.6397 185.168 54.6525 179.022 59.2923 174.382L115.511 118.223C121.176 112.68 128.587 109.546 136.36 109.426L239.278 107.859C241.688 107.859 244.099 108.221 246.388 108.883C246.629 108.944 246.87 109.004 247.111 109.124C247.353 109.185 247.533 109.305 247.714 109.305L247.835 109.365C248.015 109.486 248.256 109.546 248.437 109.606C248.678 109.667 248.919 109.787 249.16 109.908C250.486 110.45 251.751 111.173 252.896 111.956C253.438 112.318 254.041 112.74 254.583 113.222C254.885 113.463 255.246 113.764 255.608 114.126C255.728 114.246 255.849 114.306 255.969 114.427C256.029 114.487 256.09 114.547 256.09 114.547L256.15 114.608L257.235 115.692C257.958 116.415 258.5 117.199 259.102 117.982L327.072 214.392C329.783 218.128 331.29 222.647 331.41 227.347V228.131C331.41 229.215 331.41 230.36 331.169 231.565C331.169 231.686 331.109 231.867 331.109 231.987C331.109 232.108 331.049 232.168 331.049 232.288V232.409C330.506 235.121 329.422 237.832 327.855 240.544L271.877 330.205C271.636 330.627 271.335 331.109 270.973 331.531C270.853 331.772 270.672 331.953 270.611 332.073C270.431 332.314 270.25 332.495 270.129 332.676C269.949 332.856 269.828 333.037 269.647 333.278L269.467 333.459C268.322 334.664 267.056 335.869 265.731 336.894L264.706 337.556C264.285 337.858 263.682 338.219 263.2 338.46L263.14 338.521C263.019 338.581 262.959 338.641 262.838 338.701C262.718 338.762 262.537 338.882 262.296 338.942C258.922 340.509 255.367 341.353 251.811 341.353ZM62.8474 272.6C62.9679 272.841 63.0281 273.082 63.0884 273.323C63.1487 273.564 63.2692 273.805 63.3294 274.046C63.4499 274.227 63.5102 274.468 63.6307 274.769C63.7512 275.01 63.8717 275.251 63.932 275.492C66.5833 280.614 71.3435 284.591 77.0076 286.339L244.942 339.123C250.486 340.871 256.391 340.388 261.573 337.797L261.633 337.737C261.754 337.677 261.814 337.617 261.935 337.556C262.055 337.496 262.236 337.376 262.477 337.315C262.899 337.074 263.441 336.773 263.802 336.472L264.827 335.809C266.092 334.845 267.297 333.76 268.382 332.555L268.503 332.435C268.683 332.194 268.864 332.013 268.985 331.832C269.165 331.651 269.286 331.471 269.467 331.23L269.527 331.169C269.647 331.049 269.708 330.988 269.768 330.868L269.828 330.747C270.129 330.326 270.491 329.904 270.672 329.482L326.71 239.821C328.217 237.29 329.241 234.699 329.723 232.168C329.723 232.047 329.783 231.867 329.783 231.746C329.783 231.626 329.844 231.565 329.844 231.445V231.324C330.085 230.24 330.085 229.215 330.085 228.071V227.287C329.964 222.828 328.518 218.61 325.927 215.055L258.138 118.705C257.596 117.922 257.054 117.199 256.391 116.536L255.427 115.572C255.306 115.451 255.186 115.391 255.065 115.271C255.005 115.21 254.945 115.15 254.945 115.15L254.885 115.09L254.824 115.03C254.523 114.728 254.222 114.427 253.92 114.186C253.318 113.704 252.776 113.282 252.294 112.981C251.209 112.197 250.004 111.535 248.678 110.992C248.437 110.872 248.256 110.812 248.015 110.751C247.774 110.691 247.594 110.571 247.352 110.45C247.111 110.39 246.87 110.33 246.69 110.209C246.509 110.149 246.268 110.028 246.087 110.028C243.918 109.365 241.628 109.064 239.278 109.064L136.36 110.631C128.888 110.751 121.778 113.704 116.295 119.067L60.0756 175.226C55.6166 179.685 52.7243 185.53 52.0012 191.736C51.8807 192.278 51.8807 192.821 51.8807 193.363V193.604C52.0012 195.412 52.1217 197.28 52.3025 199.087L61.7025 267.84C61.8833 269.105 62.1243 270.431 62.5461 271.696C62.7269 271.937 62.8474 272.299 62.8474 272.6Z" fill="#121212"/>
<mask id="mask0_14543_1083" style="mask-type:luminance" maskUnits="userSpaceOnUse" x="35" y="34" width="296" height="308">
<path d="M326.59 215.176L258.62 118.705C258.078 117.922 257.476 117.138 256.813 116.476C256.451 116.114 256.15 115.813 255.788 115.451C255.547 115.331 255.427 115.09 255.246 115.029C254.885 114.668 254.583 114.367 254.222 114.126C253.679 113.704 253.077 113.222 252.535 112.921C251.39 112.137 250.184 111.474 248.859 110.932C248.437 110.691 247.955 110.571 247.533 110.39C247.111 110.269 246.629 110.028 246.208 109.968C243.978 109.305 241.628 108.944 239.278 108.944L236.084 99.5436L238.254 34.9487L160.161 35.491L132.684 69.4154L118.404 116.897C117.56 117.56 78.9358 116.536 78.1525 117.319L37.4191 175.467C32.8396 180.046 39.2871 204.088 38.5037 210.476C38.3832 211.018 38.5037 229.818 38.5037 230.421C38.6242 232.288 61.1601 268.322 61.1601 268.322C61.4012 269.647 61.5819 270.973 62.064 272.359C62.1845 272.6 62.305 272.901 62.305 273.142C62.546 273.685 62.6666 274.167 62.8473 274.709C63.0884 275.131 63.2691 275.733 63.5101 276.155C66.2819 281.518 71.223 285.555 76.9473 287.303L244.882 340.087C250.606 341.895 256.632 341.413 261.995 338.762C262.356 338.641 262.537 338.4 262.899 338.34C263.32 338.099 263.923 337.797 264.345 337.436C264.706 337.195 265.008 337.014 265.369 336.773C266.695 335.749 267.96 334.664 269.045 333.399L269.165 333.278C269.527 332.856 269.828 332.495 270.19 332.073C270.31 331.953 270.431 331.832 270.551 331.651C270.913 331.23 271.214 330.747 271.455 330.326L327.433 240.724C328.879 238.254 330.024 235.603 330.567 232.771C330.567 232.529 330.687 232.228 330.687 231.987C330.928 230.842 330.928 229.758 330.928 228.613C330.928 228.372 330.928 228.071 330.928 227.829C330.687 223.19 329.241 218.851 326.59 215.176Z" fill="white"/>
</mask>
<g mask="url(#mask0_14543_1083)">
<path d="M189.446 146.604L198.665 161.246L176.852 170.526L157.209 161.487L165.223 145.459C165.584 145.459 189.446 146.604 189.446 146.604Z" fill="#C68F79"/>
<path d="M176.852 171.128C176.792 171.128 176.672 171.128 176.611 171.068L156.968 161.969C156.847 161.909 156.727 161.788 156.667 161.608C156.606 161.427 156.606 161.306 156.667 161.126L164.681 145.097C164.801 144.856 165.042 144.736 165.283 144.796C165.645 144.796 181.251 145.58 189.446 146.001C189.627 146.001 189.808 146.122 189.928 146.303L199.147 160.945C199.268 161.065 199.268 161.306 199.208 161.427C199.147 161.608 199.027 161.728 198.846 161.788L177.093 171.068C177.033 171.128 176.973 171.128 176.852 171.128ZM157.992 161.186L176.852 169.863L197.701 161.005L189.024 147.206C185.71 147.026 168.417 146.182 165.524 146.062L157.992 161.186Z" fill="#121212"/>
<path d="M205.414 112.68C205.414 112.68 207.402 102.617 214.693 105.087C222.045 107.558 220.659 114.367 219.695 116.415C218.731 118.464 215.838 120.995 212.705 121.959C209.572 122.923 205.896 122.742 205.896 122.742C201.136 142.506 192.941 148.773 174.864 148.291C152.509 147.749 150.822 122.742 150.822 122.742C136.722 122.381 132.383 109.667 139.976 105.69C147.568 101.713 151.786 112.86 151.786 112.86" fill="#C68F79"/>
<path d="M176.672 148.954C176.069 148.954 175.527 148.954 174.924 148.954C154.196 148.412 150.761 127.081 150.34 123.345C141.904 122.983 137.023 118.223 135.938 113.644C135.095 110.088 136.541 106.835 139.734 105.208C141.723 104.183 143.711 104.003 145.579 104.726C149.978 106.413 152.328 112.438 152.449 112.68C152.569 112.981 152.388 113.342 152.087 113.463C151.786 113.583 151.424 113.403 151.304 113.101C151.304 113.041 149.074 107.317 145.157 105.81C143.651 105.208 142.024 105.388 140.337 106.232C137.625 107.618 136.42 110.33 137.143 113.342C138.107 117.56 142.747 121.959 150.942 122.14C151.243 122.14 151.484 122.381 151.545 122.682C151.545 122.742 152.027 128.888 155.16 135.035C159.318 143.169 166.006 147.447 174.984 147.688C193.061 148.171 200.774 141.844 205.414 122.562C205.474 122.26 205.775 122.08 206.016 122.08C206.077 122.08 209.632 122.26 212.645 121.356C215.718 120.453 218.429 117.982 219.273 116.114C219.815 114.969 220.478 112.137 219.393 109.606C218.61 107.738 216.983 106.413 214.633 105.63C213.006 105.087 211.5 105.147 210.234 105.931C207.161 107.738 206.137 112.74 206.137 112.8C206.077 113.101 205.775 113.342 205.414 113.282C205.113 113.222 204.872 112.921 204.932 112.559C204.992 112.318 206.077 106.955 209.632 104.906C211.199 104.003 213.006 103.882 214.995 104.545C217.706 105.449 219.574 107.015 220.478 109.185C221.743 112.137 220.96 115.391 220.357 116.656C219.393 118.705 216.501 121.477 213.006 122.501C210.475 123.285 207.643 123.285 206.499 123.285C201.799 142.085 193.905 148.954 176.672 148.954Z" fill="#121212"/>
<path d="M208.306 119.067C207.945 119.067 207.704 118.765 207.704 118.464C207.704 117.681 207.945 110.751 210.656 108.944C211.379 108.462 212.283 108.341 213.187 108.703C213.488 108.823 213.669 109.185 213.548 109.486C213.428 109.787 213.066 109.968 212.765 109.847C212.223 109.667 211.741 109.667 211.319 109.968C209.451 111.233 208.969 116.536 208.909 118.524C208.909 118.826 208.668 119.067 208.306 119.067Z" fill="#121212"/>
<path d="M151.846 112.86C151.846 112.86 149.074 90.9872 160.704 86.1065C172.333 81.2257 181.01 78.7552 192.76 80.2013C213.368 82.7321 205.474 112.619 205.474 112.619" fill="#C68F79"/>
<path d="M151.846 113.463C151.545 113.463 151.304 113.222 151.243 112.921C151.243 112.68 150.581 107.317 151.304 101.231C152.328 93.0359 155.461 87.6128 160.402 85.5641C172.273 80.6231 180.889 78.1526 192.76 79.659C197.641 80.2616 201.377 82.4308 203.907 86.1064C210.415 95.6872 206.197 112.137 206.016 112.86C205.956 113.162 205.595 113.403 205.293 113.282C204.992 113.222 204.751 112.86 204.872 112.559C204.932 112.378 209.15 95.9282 202.943 86.7693C200.654 83.3949 197.219 81.4064 192.7 80.8641C181.131 79.418 172.634 81.8282 160.945 86.709C149.918 91.3487 152.448 112.619 152.448 112.8C152.509 113.101 152.268 113.403 151.906 113.463C151.906 113.463 151.906 113.463 151.846 113.463Z" fill="#121212"/>
<path d="M212.404 115.994C212.103 115.994 211.801 115.753 211.801 115.451C211.801 115.09 212.042 114.849 212.344 114.788C214.151 114.668 214.332 112.197 214.332 112.197C214.332 111.836 214.633 111.595 214.995 111.655C215.356 111.655 215.597 111.956 215.537 112.318C215.537 113.463 214.754 115.813 212.404 115.994C212.464 115.994 212.464 115.994 212.404 115.994Z" fill="#121212"/>
<path d="M148.713 117.922C148.472 117.922 148.231 117.741 148.17 117.5C147.508 115.632 145.278 110.751 143.169 110.149C142.687 110.028 142.265 110.149 141.783 110.51C141.542 110.751 141.12 110.691 140.94 110.45C140.699 110.209 140.759 109.787 141 109.606C141.783 109.004 142.627 108.763 143.47 109.004C146.604 109.847 149.014 116.355 149.315 117.078C149.436 117.38 149.255 117.741 148.954 117.862C148.833 117.922 148.773 117.922 148.713 117.922Z" fill="#121212"/>
<path d="M143.169 116.415C141.361 116.415 140.216 114.788 139.795 113.764C139.674 113.463 139.795 113.101 140.156 112.981C140.458 112.86 140.819 112.981 140.94 113.342C141 113.463 141.904 115.632 143.651 115.15C143.952 115.09 144.314 115.271 144.374 115.572C144.434 115.873 144.254 116.235 143.952 116.295C143.711 116.355 143.47 116.415 143.169 116.415Z" fill="#121212"/>
<path d="M151.906 113.101C148.893 104.183 142.868 104.545 142.868 104.545C142.024 101.653 141.18 83.9372 142.868 81.3462C143.651 80.141 144.856 77.8513 146.784 76.2244C148.893 74.4167 150.821 72.368 152.328 69.9577C155.642 64.6551 159.197 62.6064 167.211 58.6897C174.02 55.3756 179.624 53.9898 182.215 53.5077C183.059 53.3269 183.842 53.9295 183.963 54.7731L184.264 57.1231C184.445 58.509 185.589 59.5333 186.975 59.5936C191.013 59.7141 199.207 59.5936 205.655 56.5808C206.378 56.2795 207.221 56.4603 207.643 57.1231C208.306 58.1474 209.15 60.0154 209.15 62.9077C209.15 62.9077 209.511 63.5705 210.897 63.5103C212.343 63.45 214.392 64.4744 214.513 69.9577C214.693 75.441 211.138 104.846 211.138 104.846C206.197 106.714 205.233 113.041 205.233 113.041L204.269 102.978C204.269 102.978 199.509 103.219 199.388 98.7603C199.268 94.3013 199.268 91.2885 199.268 91.2885C199.268 91.2885 199.509 87.7936 196.857 85.9256C194.266 84.118 190.591 82.0692 184.384 82.0692C178.178 82.0692 173.598 80.6833 168.356 85.6846C163.114 90.6859 161.668 91.3487 161.668 91.3487C161.668 91.3487 158.354 92.4936 157.209 96.591C156.064 100.688 152.087 101.351 152.087 105.69C152.207 109.908 151.906 113.101 151.906 113.101Z" fill="#121212"/>
<path d="M151.906 113.704C151.665 113.704 151.424 113.523 151.364 113.282C148.532 104.967 143.169 105.087 142.928 105.087C142.687 105.087 142.386 104.906 142.325 104.665C141.482 101.773 140.518 83.8167 142.386 80.9846C142.566 80.7436 142.687 80.5026 142.868 80.2013C143.651 78.9359 144.796 77.1282 146.363 75.7423C148.652 73.7538 150.46 71.7654 151.786 69.5962C155.16 64.2333 158.836 62.0641 166.91 58.0872C173.719 54.7731 179.323 53.3872 182.095 52.8449C182.637 52.7244 183.24 52.8449 183.661 53.2064C184.143 53.5077 184.445 54.05 184.505 54.5923L184.806 56.9423C184.927 58.0269 185.891 58.8705 186.975 58.8705C191.193 58.991 199.147 58.8103 205.354 55.918C206.318 55.4359 207.523 55.7372 208.065 56.641C208.788 57.7256 209.632 59.5936 209.632 62.5462C209.752 62.6667 210.114 62.7872 210.777 62.7872C211.379 62.7872 212.283 62.9077 213.127 63.691C214.332 64.7756 214.995 66.8846 215.055 69.8974C215.236 75.3808 211.861 103.641 211.681 104.846C211.681 105.087 211.5 105.268 211.319 105.328C206.8 107.076 205.775 112.981 205.775 113.041C205.715 113.342 205.474 113.523 205.173 113.523C204.872 113.523 204.631 113.282 204.57 112.981L203.666 103.46C202.823 103.4 201.256 103.159 200.111 102.074C199.207 101.231 198.725 100.086 198.725 98.7C198.605 94.3013 198.605 91.2282 198.605 91.168C198.605 91.1077 198.786 87.9141 196.496 86.3474C193.845 84.4795 190.29 82.6115 184.324 82.6115C183.179 82.6115 182.095 82.5513 181.01 82.491C176.431 82.3103 172.815 82.1295 168.718 86.0462C163.596 90.9872 162.029 91.7705 161.849 91.8308H161.788C161.668 91.891 158.775 92.9154 157.751 96.6513C157.209 98.6397 156.004 99.9051 154.979 100.99C153.714 102.315 152.69 103.46 152.69 105.569C152.69 109.847 152.388 113.101 152.388 113.101C152.388 113.403 152.147 113.583 151.846 113.644C151.966 113.704 151.966 113.704 151.906 113.704ZM143.35 103.942C144.736 104.063 148.713 104.846 151.484 110.45C151.545 109.185 151.605 107.497 151.605 105.629C151.605 103.038 152.931 101.592 154.256 100.206C155.281 99.1821 156.305 98.0372 156.727 96.35C157.872 92.1923 161.065 90.8667 161.487 90.7462C161.668 90.6256 163.234 89.7821 167.995 85.2026C172.454 80.9244 176.491 81.1051 181.191 81.2859C182.215 81.3462 183.3 81.3462 184.445 81.3462C190.711 81.3462 194.447 83.3346 197.279 85.3231C200.111 87.3115 199.931 91.0474 199.931 91.168C199.931 91.168 199.931 94.241 200.051 98.6397C200.051 99.7244 200.413 100.568 201.075 101.171C202.341 102.315 204.269 102.255 204.329 102.255C204.631 102.255 204.932 102.496 204.932 102.797L205.595 109.787C206.438 107.859 207.945 105.449 210.656 104.304C211.078 100.929 214.091 74.959 213.97 69.8372C213.85 66.5231 213.066 65.0769 212.404 64.4744C211.982 64.1128 211.5 63.8718 210.957 63.9321C209.21 63.9923 208.668 63.0885 208.607 62.968C208.547 62.9077 208.547 62.7872 208.547 62.7269C208.547 60.0154 207.764 58.268 207.161 57.3038C206.92 56.9423 206.378 56.8218 205.956 57.0026C199.509 60.0154 191.314 60.1962 186.975 60.0756C185.288 60.0154 183.902 58.75 183.661 57.1231L183.36 54.7731C183.3 54.5321 183.179 54.3513 182.999 54.1705C182.818 54.05 182.577 53.9897 182.336 54.05C179.624 54.5923 174.141 55.918 167.452 59.1718C159.378 63.1487 156.004 65.1372 152.81 70.259C151.364 72.4885 149.556 74.5974 147.146 76.6462C145.7 77.9115 144.615 79.5987 143.832 80.8039C143.651 81.1051 143.47 81.4064 143.29 81.6474C141.964 83.8167 142.566 100.086 143.35 103.942Z" fill="#121212"/>
<path d="M193.664 100.086C193.483 100.086 193.302 100.026 193.182 99.8449C193.061 99.7244 190.711 96.8923 187.156 99.1821C186.855 99.3628 186.493 99.3026 186.313 99.0013C186.132 98.7 186.192 98.3385 186.493 98.1577C191.013 95.2654 194.086 99.0615 194.086 99.0615C194.266 99.3026 194.266 99.7244 193.965 99.9051C193.965 100.026 193.784 100.086 193.664 100.086Z" fill="#121212"/>
<path d="M171.188 100.086C171.008 100.086 170.827 100.026 170.706 99.8449C170.586 99.7244 168.236 96.8923 164.681 99.1821C164.379 99.3628 164.018 99.3026 163.837 99.0013C163.656 98.7 163.717 98.3385 164.018 98.1577C168.537 95.2654 171.61 99.0615 171.61 99.0615C171.791 99.3026 171.791 99.7244 171.49 99.9051C171.429 100.026 171.309 100.086 171.188 100.086Z" fill="#121212"/>
<path d="M179.865 138.108C179.684 138.108 179.443 138.108 179.263 138.108C171.309 137.746 169.14 131.841 169.079 131.6C168.959 131.299 169.14 130.937 169.441 130.817C169.742 130.696 170.104 130.877 170.224 131.178C170.284 131.419 172.273 136.601 179.323 136.903C186.433 137.204 188.964 131.6 189.084 131.359C189.205 131.058 189.566 130.937 189.868 131.058C190.169 131.178 190.29 131.54 190.169 131.841C190.109 131.841 187.337 138.108 179.865 138.108Z" fill="#121212"/>
<path d="M168.115 119.127C169.546 119.127 170.706 116.834 170.706 114.005C170.706 111.176 169.546 108.883 168.115 108.883C166.684 108.883 165.524 111.176 165.524 114.005C165.524 116.834 166.684 119.127 168.115 119.127Z" fill="#121212"/>
<path d="M190.41 119.127C191.841 119.127 193.001 116.834 193.001 114.005C193.001 111.176 191.841 108.883 190.41 108.883C188.979 108.883 187.819 111.176 187.819 114.005C187.819 116.834 188.979 119.127 190.41 119.127Z" fill="#121212"/>
<path d="M179.986 125.454C179.805 125.454 179.624 125.333 179.504 125.153C179.323 124.851 179.383 124.49 179.685 124.309C182.396 122.562 183.782 120.814 183.601 119.308C183.36 116.897 179.504 115.391 179.443 115.391C179.142 115.271 178.961 114.909 179.082 114.608C179.202 114.306 179.564 114.126 179.865 114.246C180.046 114.306 184.445 115.994 184.806 119.127C185.047 121.176 183.541 123.224 180.347 125.273C180.227 125.454 180.106 125.454 179.986 125.454Z" fill="#121212"/>
<path d="M134.07 232.047C132.564 253.86 119.91 357.562 119.91 357.562L172.152 377.687L190.229 354.79L247.292 369.974C247.292 369.974 245.002 284.41 242.532 274.769C240.061 265.128 233.011 252.715 233.011 252.715C257.295 284.712 251.209 295.738 251.209 295.738L253.077 295.437C268.502 276.396 250.727 240.001 250.486 239.158C250.305 238.615 244.942 218.671 241.266 204.992C237.651 191.615 230.24 172.635 219.755 163.536C206.981 152.449 193.905 153.413 193.905 153.413C185.168 170.706 173.779 168.417 167.272 163.656C162.27 160.041 159.981 154.859 159.981 154.859C159.981 154.859 139.433 157.149 127.382 169.863C115.632 182.276 102.556 246.388 97.1331 260.91C96.41 262.838 87.4318 265.671 87.0703 267.659C86.2869 271.937 85.9254 276.336 86.0459 280.674C86.3472 291.219 94.06 312.188 110.691 300.197C115.331 296.883 119.187 292.545 122.079 287.664C127.984 277.963 136.119 202.462 134.07 232.047Z" fill="#8AA23B"/>
<path d="M172.152 378.35C172.092 378.35 172.032 378.35 171.911 378.29L119.669 358.164C119.428 358.044 119.247 357.803 119.308 357.501C119.428 356.477 131.178 260.187 133.287 234.397C133.106 235.663 132.865 236.988 132.684 238.374C130.033 255.849 126.056 282.301 122.622 288.026C119.549 293.147 115.632 297.486 111.052 300.74C105.75 304.596 100.869 305.44 96.5909 303.331C92.3729 301.282 89.7819 296.703 88.3357 293.268C86.6486 289.351 85.6242 284.651 85.5037 280.674C85.3832 276.456 85.7447 271.997 86.528 267.538C86.7691 266.273 88.7575 265.188 92.0114 263.562C93.8191 262.658 96.3498 261.392 96.5909 260.669C98.2178 256.331 100.508 247.353 103.279 236.988C109.727 212.163 118.645 178.238 126.96 169.441C139.011 156.727 159.74 154.317 159.92 154.256C160.161 154.256 160.402 154.377 160.523 154.618C160.523 154.678 162.813 159.679 167.633 163.174C169.923 164.862 174.623 167.453 180.046 166.127C185.168 164.862 189.627 160.523 193.363 153.112C193.483 152.931 193.664 152.81 193.845 152.81C194.387 152.75 207.282 151.967 220.116 163.114C232.831 174.141 239.941 197.882 241.809 204.872C247.533 226.082 250.847 238.555 251.028 238.977C251.028 239.037 251.088 239.158 251.209 239.459C255.246 248.437 267.237 278.987 253.499 295.859C253.378 295.979 253.258 296.04 253.137 296.1L251.269 296.401C251.028 296.462 250.787 296.341 250.666 296.16C250.546 295.979 250.546 295.738 250.606 295.497C250.666 295.377 255.306 285.856 237.169 259.645C239.278 264.044 241.749 269.708 243.014 274.649C245.484 284.229 247.714 366.479 247.834 369.974C247.834 370.155 247.774 370.336 247.593 370.456C247.473 370.577 247.232 370.637 247.051 370.577L190.35 355.513L172.514 378.109C172.514 378.229 172.333 378.35 172.152 378.35ZM120.573 357.2L171.972 377.024L189.808 354.488C189.928 354.308 190.229 354.247 190.41 354.308L246.69 369.251C246.449 360.514 244.279 283.988 241.929 275.01C239.519 265.55 232.529 253.258 232.469 253.137C232.288 252.836 232.409 252.535 232.65 252.354C232.891 252.173 233.252 252.233 233.433 252.474C253.92 279.469 253.016 291.701 252.052 295.136L252.655 295.015C258.5 287.664 260.127 276.818 257.415 262.778C256.451 257.717 254.342 249.703 250.064 240.062C249.943 239.76 249.823 239.579 249.823 239.519C249.642 238.977 244.701 220.599 240.604 205.354C236.747 191.073 229.155 172.815 219.273 164.199C207.945 154.317 196.315 154.136 194.206 154.196C190.35 161.728 185.65 166.187 180.227 167.513C174.322 168.959 169.32 166.127 166.85 164.319C162.511 161.186 160.222 157.028 159.559 155.703C156.606 156.124 138.59 159.077 127.743 170.465C119.609 179.022 110.811 212.826 104.364 237.47C101.652 247.895 99.3024 256.873 97.6755 261.272C97.2537 262.356 95.446 263.32 92.4934 264.827C90.6255 265.791 87.7934 267.177 87.6126 267.96C86.8293 272.359 86.4678 276.697 86.5883 280.855C86.7691 287.785 90.2037 299.053 97.0126 302.427C100.869 304.295 105.328 303.512 110.209 299.956C114.668 296.763 118.464 292.605 121.477 287.544C124.791 282 128.949 254.644 131.359 238.314C133.408 224.636 133.408 224.636 134.251 224.756C134.974 224.817 135.034 224.817 134.552 232.228C133.287 252.896 121.537 349.608 120.573 357.2Z" fill="#121212"/>
<path d="M176.611 188.904C176.844 188.904 177.033 188.715 177.033 188.482C177.033 188.249 176.844 188.06 176.611 188.06C176.379 188.06 176.19 188.249 176.19 188.482C176.19 188.715 176.379 188.904 176.611 188.904Z" fill="#121212"/>
<path d="M178.479 188.904C178.712 188.904 178.901 188.715 178.901 188.482C178.901 188.249 178.712 188.06 178.479 188.06C178.246 188.06 178.058 188.249 178.058 188.482C178.058 188.715 178.246 188.904 178.479 188.904Z" fill="#121212"/>
<path d="M177.515 191.495C175.888 191.495 174.502 190.169 174.502 188.482C174.502 186.795 175.828 185.469 177.515 185.469C179.202 185.469 180.528 186.795 180.528 188.482C180.528 190.169 179.202 191.495 177.515 191.495ZM177.515 186.674C176.551 186.674 175.708 187.458 175.708 188.482C175.708 189.506 176.491 190.29 177.515 190.29C178.54 190.29 179.323 189.506 179.323 188.482C179.323 187.458 178.54 186.674 177.515 186.674Z" fill="#121212"/>
<path d="M176.611 208.306C176.844 208.306 177.033 208.118 177.033 207.885C177.033 207.652 176.844 207.463 176.611 207.463C176.379 207.463 176.19 207.652 176.19 207.885C176.19 208.118 176.379 208.306 176.611 208.306Z" fill="#121212"/>
<path d="M178.479 208.306C178.712 208.306 178.901 208.118 178.901 207.885C178.901 207.652 178.712 207.463 178.479 207.463C178.246 207.463 178.058 207.652 178.058 207.885C178.058 208.118 178.246 208.306 178.479 208.306Z" fill="#121212"/>
<path d="M177.515 210.897C175.888 210.897 174.502 209.572 174.502 207.885C174.502 206.197 175.828 204.872 177.515 204.872C179.202 204.872 180.528 206.197 180.528 207.885C180.528 209.572 179.202 210.897 177.515 210.897ZM177.515 206.077C176.551 206.077 175.708 206.86 175.708 207.885C175.708 208.909 176.491 209.692 177.515 209.692C178.54 209.692 179.323 208.909 179.323 207.885C179.323 206.86 178.54 206.077 177.515 206.077Z" fill="#121212"/>
<path d="M176.611 227.709C176.844 227.709 177.033 227.52 177.033 227.287C177.033 227.054 176.844 226.865 176.611 226.865C176.379 226.865 176.19 227.054 176.19 227.287C176.19 227.52 176.379 227.709 176.611 227.709Z" fill="#121212"/>
<path d="M178.479 227.709C178.712 227.709 178.901 227.52 178.901 227.287C178.901 227.054 178.712 226.865 178.479 226.865C178.246 226.865 178.058 227.054 178.058 227.287C178.058 227.52 178.246 227.709 178.479 227.709Z" fill="#121212"/>
<path d="M177.515 230.3C175.888 230.3 174.502 228.974 174.502 227.287C174.502 225.6 175.828 224.274 177.515 224.274C179.202 224.274 180.528 225.6 180.528 227.287C180.528 228.974 179.202 230.3 177.515 230.3ZM177.515 225.479C176.551 225.479 175.708 226.263 175.708 227.287C175.708 228.312 176.491 229.095 177.515 229.095C178.54 229.095 179.323 228.312 179.323 227.287C179.323 226.263 178.54 225.479 177.515 225.479Z" fill="#121212"/>
<path d="M178.781 266.514C179.014 266.514 179.202 266.325 179.202 266.092C179.202 265.859 179.014 265.67 178.781 265.67C178.548 265.67 178.359 265.859 178.359 266.092C178.359 266.325 178.548 266.514 178.781 266.514Z" fill="#121212"/>
<path d="M180.649 266.514C180.882 266.514 181.07 266.325 181.07 266.092C181.07 265.859 180.882 265.67 180.649 265.67C180.416 265.67 180.227 265.859 180.227 266.092C180.227 266.325 180.416 266.514 180.649 266.514Z" fill="#121212"/>
<path d="M179.745 269.105C178.118 269.105 176.732 267.779 176.732 266.092C176.732 264.405 178.058 263.079 179.745 263.079C181.432 263.079 182.758 264.405 182.758 266.092C182.758 267.779 181.372 269.105 179.745 269.105ZM179.745 264.285C178.781 264.285 177.937 265.068 177.937 266.092C177.937 267.117 178.72 267.9 179.745 267.9C180.769 267.9 181.552 267.117 181.552 266.092C181.552 265.068 180.709 264.285 179.745 264.285Z" fill="#121212"/>
<path d="M179.925 284.169C180.158 284.169 180.347 283.98 180.347 283.747C180.347 283.514 180.158 283.326 179.925 283.326C179.693 283.326 179.504 283.514 179.504 283.747C179.504 283.98 179.693 284.169 179.925 284.169Z" fill="#121212"/>
<path d="M181.733 284.169C181.966 284.169 182.155 283.98 182.155 283.747C182.155 283.514 181.966 283.326 181.733 283.326C181.5 283.326 181.311 283.514 181.311 283.747C181.311 283.98 181.5 284.169 181.733 284.169Z" fill="#121212"/>
<path d="M180.829 286.76C179.202 286.76 177.816 285.435 177.816 283.747C177.816 282.06 179.142 280.735 180.829 280.735C182.516 280.735 183.842 282.06 183.842 283.747C183.842 285.435 182.456 286.76 180.829 286.76ZM180.829 281.94C179.865 281.94 179.022 282.723 179.022 283.747C179.022 284.772 179.805 285.555 180.829 285.555C181.854 285.555 182.637 284.772 182.637 283.747C182.637 282.723 181.793 281.94 180.829 281.94Z" fill="#121212"/>
<path d="M181.974 303.994C182.207 303.994 182.396 303.805 182.396 303.572C182.396 303.339 182.207 303.15 181.974 303.15C181.741 303.15 181.552 303.339 181.552 303.572C181.552 303.805 181.741 303.994 181.974 303.994Z" fill="#121212"/>
<path d="M183.782 303.994C184.015 303.994 184.204 303.805 184.204 303.572C184.204 303.339 184.015 303.15 183.782 303.15C183.549 303.15 183.36 303.339 183.36 303.572C183.36 303.805 183.549 303.994 183.782 303.994Z" fill="#121212"/>
<path d="M182.878 306.585C181.251 306.585 179.865 305.259 179.865 303.572C179.865 301.885 181.191 300.559 182.878 300.559C184.565 300.559 185.891 301.885 185.891 303.572C185.891 305.259 184.505 306.585 182.878 306.585ZM182.878 301.824C181.914 301.824 181.07 302.608 181.07 303.632C181.07 304.656 181.854 305.44 182.878 305.44C183.902 305.44 184.686 304.656 184.686 303.632C184.686 302.608 183.842 301.824 182.878 301.824Z" fill="#121212"/>
<path d="M184.324 323.637C184.557 323.637 184.746 323.448 184.746 323.215C184.746 322.982 184.557 322.794 184.324 322.794C184.091 322.794 183.903 322.982 183.903 323.215C183.903 323.448 184.091 323.637 184.324 323.637Z" fill="#121212"/>
<path d="M186.132 323.637C186.365 323.637 186.554 323.448 186.554 323.215C186.554 322.982 186.365 322.794 186.132 322.794C185.899 322.794 185.71 322.982 185.71 323.215C185.71 323.448 185.899 323.637 186.132 323.637Z" fill="#121212"/>
<path d="M185.228 326.168C183.601 326.168 182.215 324.842 182.215 323.155C182.215 321.468 183.541 320.142 185.228 320.142C186.915 320.142 188.241 321.468 188.241 323.155C188.241 324.842 186.855 326.168 185.228 326.168ZM185.228 321.408C184.264 321.408 183.42 322.191 183.42 323.215C183.42 324.24 184.204 325.023 185.228 325.023C186.253 325.023 187.036 324.24 187.036 323.215C187.036 322.191 186.192 321.408 185.228 321.408Z" fill="#121212"/>
<path d="M207.523 156.124L204.631 155.04C201.799 154.196 199.268 153.654 196.315 153.533H193.965C191.856 158.053 185.529 167.212 176.973 167.392C176.973 167.392 185.108 178.72 191.073 181.914C194.508 178.118 207.041 159.74 207.523 156.124Z" fill="#F8F9F9"/>
<path d="M191.013 182.396C190.892 182.396 190.832 182.396 190.711 182.336C184.746 179.142 176.792 168.115 176.431 167.633C176.31 167.453 176.31 167.212 176.37 167.031C176.491 166.85 176.672 166.729 176.913 166.669C184.987 166.488 191.193 157.751 193.363 153.172C193.483 152.931 193.664 152.81 193.905 152.81H196.255C199.087 152.991 201.618 153.413 204.751 154.377L207.704 155.462C207.945 155.582 208.126 155.823 208.065 156.124C207.583 159.92 195.05 178.359 191.434 182.155C191.314 182.336 191.193 182.396 191.013 182.396ZM178.058 167.874C180.046 170.526 186.132 178.299 190.892 181.07C194.749 176.732 205.595 160.583 206.8 156.486L204.39 155.582C201.317 154.678 198.967 154.256 196.255 154.076H194.327C193.604 155.522 191.615 159.137 188.301 162.451C184.987 165.645 181.613 167.453 178.058 167.874Z" fill="#121212"/>
<path d="M174.382 166.971C164.198 164.56 159.98 154.979 159.98 154.979C154.196 155.462 145.7 158.655 145.7 158.655C148.11 164.319 164.259 182.035 164.259 182.035C171.73 177.274 176.732 167.392 176.732 167.392C175.647 167.212 175.527 167.212 174.382 166.971Z" fill="#F8F9F9"/>
<path d="M164.259 182.637C164.078 182.637 163.957 182.577 163.837 182.456C163.174 181.733 147.628 164.621 145.157 158.896C145.097 158.715 145.097 158.595 145.157 158.414C145.218 158.233 145.338 158.173 145.519 158.113C145.881 157.992 154.075 154.919 159.92 154.437C160.161 154.437 160.402 154.558 160.523 154.799C160.583 154.919 164.741 164.138 174.502 166.488C175.587 166.73 175.707 166.73 176.732 166.85C176.913 166.85 177.154 166.971 177.214 167.151C177.274 167.332 177.334 167.513 177.274 167.694C177.093 168.115 172.092 177.817 164.62 182.577C164.5 182.577 164.379 182.637 164.259 182.637ZM146.543 158.956C149.375 164.5 162.09 178.721 164.379 181.251C170.164 177.335 174.502 170.224 175.768 167.874C175.286 167.814 174.984 167.754 174.261 167.573C164.922 165.404 160.583 157.51 159.619 155.642C154.859 156.064 148.532 158.233 146.543 158.956Z" fill="#121212"/>
<path d="M146.905 345.269C146.845 345.269 146.784 345.269 146.664 345.209L126.96 337.436C126.659 337.315 126.478 336.954 126.599 336.653C126.719 336.351 127.081 336.171 127.382 336.291L147.086 344.064C147.387 344.185 147.568 344.546 147.447 344.847C147.327 345.088 147.146 345.269 146.905 345.269Z" fill="#121212"/>
<path d="M118.464 277.119L113.523 243.797L82.8523 240.544L85.9254 275.432L86.0459 278.626" fill="#8AA23B"/>
<path d="M86.0459 279.228C85.7446 279.228 85.4433 278.987 85.4433 278.626L85.3228 275.432L82.2498 240.604C82.2498 240.423 82.31 240.242 82.4305 240.122C82.551 240.001 82.7318 239.941 82.9126 239.941L113.583 243.195C113.884 243.195 114.065 243.436 114.125 243.677L119.066 276.938C119.127 277.24 118.886 277.601 118.584 277.601C118.283 277.662 117.922 277.421 117.922 277.119L113.041 244.279L83.5754 241.146L86.5882 275.312L86.7087 278.505C86.7087 278.927 86.4075 279.228 86.0459 279.228C86.1062 279.228 86.1062 279.228 86.0459 279.228Z" fill="#121212"/>
<path d="M107.979 204.39C108.341 209.21 108.16 214.453 105.81 219.032C105.81 219.032 104.906 219.876 106.232 224.395C107.136 227.468 108.823 233.795 109.787 237.531C110.631 240.724 110.269 244.159 108.642 246.991C107.317 249.221 105.208 251.329 101.592 251.992C92.9756 253.559 91.0474 246.75 90.2038 243.858C89.5409 241.568 89.8422 230.903 90.023 226.745C90.0833 225.781 89.4807 224.877 88.5768 224.455C85.805 223.25 79.7192 220.117 75.3807 214.814L68.4512 208.065C67.2461 206.921 66.0409 205.836 64.7756 204.812C63.2692 203.546 61.0397 201.377 61.8833 199.328C62.5461 197.701 65.1371 198.244 67.1256 199.629C70.1384 201.738 72.3076 203.606 73.9345 204.51C77.0076 206.197 80.1409 206.921 74.1756 202.281C65.0768 195.231 61.0999 193.483 62.6666 189.928C63.9922 186.915 66.9448 188.181 69.5961 190.049C70.0781 190.35 76.9474 196.797 76.9474 196.797C76.9474 196.797 79.8397 199.268 81.0448 199.629C82.5512 200.112 83.8166 199.569 81.4666 197.34C77.2486 193.303 68.5115 182.818 68.5115 182.818C68.5115 182.818 66.1615 179.444 69.0538 177.997C71.9461 176.551 73.2115 177.214 75.5012 179.986C77.4897 182.336 84.4192 190.651 86.5281 193.122C87.0704 193.724 87.7935 194.206 88.5768 194.327C89.6012 194.447 90.505 194.026 89.1794 191.194L82.3102 182.577C81.3461 181.372 80.3217 180.167 79.2371 179.082C77.9717 177.756 76.3448 175.647 77.4897 174.864C79.2371 173.599 82.2499 173.177 84.5397 176.913C86.8294 180.649 96.9525 192.097 96.9525 192.097C96.9525 192.097 101.11 197.581 101.351 196.797" fill="#C68F79"/>
<path d="M99.1217 252.776C92.0717 252.776 90.3242 246.509 89.6012 244.038C88.9384 241.688 89.1794 232.168 89.3601 226.745C89.3601 226.022 88.9986 225.359 88.2755 225.058C85.1422 223.672 79.2371 220.538 74.8986 215.296L68.0294 208.487C66.8845 207.403 65.6794 206.258 64.3537 205.233C62.4255 203.667 60.3768 201.377 61.2807 199.027C61.5217 198.424 62.0037 197.942 62.6666 197.762C64.173 197.34 66.1614 198.183 67.4268 199.087C68.6319 199.931 69.7166 200.774 70.6807 201.437C72.1268 202.522 73.2114 203.365 74.1755 203.908C75.0794 204.39 75.8627 204.751 76.405 204.932C75.9832 204.51 75.1999 203.787 73.814 202.703C71.946 201.256 70.3191 200.051 68.873 198.967C63.2691 194.809 60.7384 192.881 62.1242 189.627C62.6063 188.542 63.3294 187.819 64.2332 187.578C65.6794 187.156 67.4871 187.759 69.8973 189.506C70.3794 189.868 76.164 195.231 77.3089 196.315C78.3332 197.219 80.3819 198.786 81.1653 199.027C81.6473 199.147 81.9486 199.147 82.0691 199.147C82.0089 198.967 81.8281 198.545 80.9845 197.762C76.7666 193.724 68.0896 183.3 67.9691 183.179C67.9089 183.059 66.5832 181.191 67.0653 179.383C67.3063 178.54 67.8486 177.877 68.7525 177.455C72.0063 175.828 73.573 176.732 75.923 179.564C77.7909 181.794 84.2384 189.506 86.9499 192.7C87.4319 193.242 88.0345 193.604 88.6371 193.664C88.9384 193.724 89.1191 193.664 89.1794 193.604C89.1794 193.604 89.4807 193.182 88.6371 191.435L81.8883 182.999C81.0448 181.914 80.0204 180.769 78.8153 179.504C77.1884 177.756 76.405 176.431 76.5255 175.467C76.5858 175.045 76.7666 174.623 77.1281 174.382C78.273 173.538 79.7191 173.177 81.0448 173.478C82.6114 173.779 83.9371 174.864 85.0217 176.612C87.2512 180.227 97.2537 191.555 97.3743 191.676C98.8204 193.544 100.628 195.713 101.231 196.195C101.291 196.195 101.411 196.195 101.472 196.195C101.773 196.315 101.954 196.617 101.893 196.978C101.833 197.219 101.592 197.4 101.351 197.46C100.99 197.52 100.387 197.641 96.4101 192.459C96.0486 192.037 86.2871 180.95 83.9973 177.274C83.0935 175.768 82.0089 174.924 80.8037 174.683C79.8396 174.503 78.755 174.744 77.8512 175.406C77.7909 175.467 77.7307 175.527 77.7307 175.647C77.7307 175.888 77.7909 176.732 79.7191 178.72C80.9845 180.046 81.9486 181.191 82.8525 182.276L89.6614 190.772C89.6614 190.832 89.7217 190.832 89.7217 190.892C90.505 192.579 90.6858 193.664 90.1435 194.327C89.9025 194.628 89.4204 194.99 88.5166 194.869C87.6127 194.749 86.7089 194.267 86.046 193.483C83.3345 190.29 76.8871 182.577 75.0191 180.347C72.8499 177.756 71.8858 177.214 69.2948 178.54C68.6922 178.841 68.3909 179.203 68.2704 179.745C67.9691 180.95 68.9935 182.456 68.9935 182.517C69.0537 182.577 77.7307 193.001 81.8883 196.978C82.3704 197.46 83.8166 198.846 83.214 199.87C82.8525 200.473 82.0089 200.654 80.864 200.292C79.5384 199.931 76.8871 197.581 76.5858 197.34C73.9345 194.869 69.6563 190.892 69.2948 190.591C67.246 189.145 65.6794 188.542 64.5948 188.844C63.9922 189.024 63.5704 189.446 63.2089 190.229C62.1845 192.519 63.8114 193.845 69.5358 198.123C70.9819 199.208 72.6089 200.413 74.5371 201.919C77.9717 204.631 78.4537 205.474 77.9717 206.137C77.7909 206.378 77.3089 207.162 73.573 205.173C72.5486 204.631 71.4037 203.727 69.9576 202.642C68.9935 201.919 67.9691 201.136 66.764 200.292C65.4384 199.388 63.9319 198.906 63.0281 199.147C62.7268 199.268 62.546 199.388 62.4255 199.69C61.7627 201.377 63.8717 203.426 65.1371 204.51C66.4627 205.595 67.7281 206.679 68.873 207.824L75.8025 214.573L75.8627 214.633C80.2012 219.936 86.3473 223.009 88.8178 224.094C89.9627 224.576 90.6255 225.72 90.5653 226.926C90.2037 235.964 90.264 242.291 90.746 243.858C91.5896 246.87 93.3973 253.017 101.411 251.57C104.304 251.028 106.533 249.462 108.04 246.87C109.546 244.279 109.968 241.026 109.124 237.892C108.22 234.337 106.533 227.829 105.569 224.756C104.364 220.659 104.906 219.273 105.208 218.911C107.618 214.211 107.618 208.788 107.256 204.631C107.256 204.269 107.497 204.028 107.799 203.968C108.1 203.968 108.401 204.209 108.461 204.51C108.763 208.849 108.823 214.453 106.232 219.454C106.232 219.514 106.172 219.514 106.172 219.574C106.111 219.635 105.629 220.659 106.714 224.335C107.618 227.408 109.365 233.915 110.269 237.47C111.173 240.905 110.691 244.52 109.064 247.353C107.377 250.245 104.846 251.992 101.592 252.595C100.688 252.715 99.8448 252.776 99.1217 252.776Z" fill="#121212"/>
<path d="M88.5164 224.455C88.5164 224.455 91.1676 225.66 92.6741 225.721L88.5164 224.455Z" fill="#C68F79"/>
<path d="M92.7344 226.323C92.6742 226.323 92.6742 226.323 92.7344 226.323C91.1075 226.323 88.396 225.058 88.2754 224.997C87.9742 224.877 87.8536 224.515 87.9742 224.214C88.0947 223.913 88.4562 223.792 88.7575 223.913C89.4806 224.214 91.5895 225.118 92.6742 225.118C93.0357 225.118 93.2767 225.419 93.2767 225.721C93.2767 226.022 93.0357 226.323 92.7344 226.323Z" fill="#121212"/>
<path d="M97.1934 224.817C97.1934 224.817 98.8805 224.696 100.447 223.913L97.1934 224.817Z" fill="#C68F79"/>
<path d="M97.1934 225.419C96.8921 225.419 96.5908 225.178 96.5908 224.877C96.5908 224.515 96.8318 224.274 97.1331 224.214C97.1331 224.214 98.6998 224.094 100.146 223.371C100.447 223.19 100.809 223.31 100.929 223.612C101.05 223.913 100.99 224.274 100.688 224.395C99.0613 225.299 97.3139 225.359 97.1934 225.419Z" fill="#121212"/>
<path d="M58.7499 200.051C52.182 189.928 55.0743 176.431 65.1973 169.863C75.3204 163.295 88.8179 166.187 95.3858 176.31C95.4461 176.371 95.4461 176.431 95.5063 176.491C102.074 186.614 99.182 200.112 89.0589 206.679C78.9358 213.247 65.4384 210.355 58.8704 200.232C58.8102 200.172 58.7499 200.112 58.7499 200.051Z" fill="#F8F9F9"/>
<path d="M77.0076 167.573C84.0576 167.573 90.505 171.068 94.3614 176.973C94.3614 176.973 94.3614 176.973 94.4217 177.033V177.094L94.4819 177.154C100.688 186.674 97.9165 199.509 88.396 205.655C85.0217 207.824 81.1652 208.969 77.1883 208.969C70.1383 208.969 63.6909 205.474 59.8345 199.569C59.8345 199.569 59.8345 199.569 59.7742 199.509V199.449L59.714 199.388C53.5075 189.868 56.2793 177.033 65.7999 170.887C69.1742 168.718 73.0306 167.573 77.0076 167.573ZM77.0076 166.368C72.9704 166.368 68.8127 167.513 65.137 169.863C55.014 176.431 52.1217 189.928 58.6896 200.051C58.7499 200.112 58.7499 200.172 58.8101 200.232C62.9678 206.679 70.0178 210.174 77.1281 210.174C81.1652 210.174 85.3229 209.029 88.9986 206.679C99.1217 200.112 102.014 186.614 95.446 176.491C95.3858 176.431 95.3858 176.37 95.3255 176.31C91.1678 169.863 84.1781 166.368 77.0076 166.368Z" fill="#121212"/>
<path d="M62.9076 197.34C57.9063 189.567 60.1358 179.142 67.9088 174.081C75.6217 169.019 85.9858 171.188 90.9268 179.022C90.9268 179.082 90.9871 179.082 90.9871 179.142C95.9883 186.915 93.7589 197.34 85.9858 202.401C78.273 207.463 67.9089 205.294 62.9678 197.46C62.9076 197.46 62.9076 197.4 62.9076 197.34Z" fill="#F8F9F9"/>
<path d="M76.9473 172.574C82.1896 172.574 87.0102 175.226 89.9025 179.685L89.9627 179.805C94.6025 187.036 92.4935 196.737 85.323 201.437C82.7922 203.064 79.8999 203.968 76.8871 203.968C71.6448 203.968 66.8243 201.317 63.932 196.858L63.8717 196.737C59.232 189.506 61.3409 179.805 68.5114 175.105C71.0422 173.478 73.9345 172.574 76.9473 172.574ZM76.9473 171.369C73.814 171.369 70.6807 172.273 67.8486 174.081C60.1358 179.142 57.9063 189.567 62.8473 197.34C62.8473 197.4 62.9076 197.4 62.9076 197.46C66.1012 202.401 71.4038 205.113 76.8268 205.113C79.9602 205.113 83.0935 204.209 85.9256 202.401C93.6384 197.34 95.8679 186.915 90.9268 179.142C90.9268 179.082 90.8666 179.082 90.8666 179.022C87.7332 174.02 82.3704 171.369 76.9473 171.369Z" fill="#121212"/>
<path d="M82.2498 190.049C81.7678 189.205 80.8639 188.422 79.5383 187.759L76.8267 186.253C76.1037 185.831 75.6216 185.469 75.3203 185.047C75.019 184.626 74.9588 184.204 75.019 183.782C75.0793 183.36 75.3203 183.059 75.6216 182.758C75.9229 182.456 76.3447 182.336 76.8267 182.215C77.3088 182.155 77.7908 182.155 78.3332 182.276C78.8755 182.396 79.4178 182.637 79.8396 182.999C80.2614 183.3 80.5626 183.722 80.8037 184.204C81.0447 184.686 81.105 185.168 81.105 185.77L83.9973 185.891C83.9973 184.806 83.7562 183.903 83.3947 183.059C82.9729 182.215 82.4306 181.553 81.6473 181.01C81.2857 180.709 80.8037 180.468 80.3216 180.287L80.7434 178.238L78.0319 177.636L77.6101 179.624C76.9473 179.564 76.3447 179.624 75.8024 179.745C74.8985 179.926 74.1152 180.347 73.4524 180.95C72.8498 181.553 72.428 182.336 72.187 183.3C71.7652 185.349 72.6088 186.976 74.7178 188.181L78.3934 190.229C78.996 190.591 79.3575 190.892 79.5985 191.254C79.8396 191.615 79.8998 192.037 79.7793 192.519C79.6588 193.182 79.237 193.664 78.5139 194.026C77.7908 194.327 77.0075 194.387 76.0434 194.206C75.0793 194.026 74.296 193.544 73.6934 192.82C73.0908 192.097 72.8498 191.314 72.7896 190.29L70.0178 190.109C69.9575 191.194 70.1383 192.218 70.4998 193.062C70.9216 193.965 71.5242 194.688 72.3075 195.351C72.7896 195.713 73.2716 196.014 73.8742 196.195L73.4524 198.244L76.1639 198.846L76.5857 196.858C77.3088 196.918 77.9716 196.858 78.5742 196.737C79.5985 196.496 80.4421 196.074 81.105 195.412C81.7678 194.749 82.1896 193.905 82.4306 192.941C82.8524 191.917 82.7319 190.892 82.2498 190.049Z" fill="#FCC018"/>
<path d="M76.2845 199.629C76.2242 199.629 76.2242 199.629 76.164 199.629L73.4524 199.027C73.2717 198.967 73.1511 198.906 73.0909 198.786C73.0306 198.665 72.9704 198.485 73.0306 198.304L73.3922 196.737C72.9704 196.556 72.5486 196.255 72.187 196.014C71.2832 195.351 70.6204 194.508 70.1986 193.544C69.7768 192.579 69.5358 191.495 69.6563 190.29C69.6563 189.988 69.9575 189.687 70.3191 189.747L73.0909 189.928C73.3922 189.928 73.6332 190.229 73.6332 190.531C73.6332 191.374 73.8742 192.097 74.3563 192.64C74.8383 193.242 75.5011 193.604 76.3447 193.785C77.1281 193.965 77.8511 193.905 78.3934 193.664C78.9358 193.423 79.237 193.122 79.2973 192.579C79.3576 192.278 79.3575 191.977 79.1768 191.796C78.996 191.555 78.6947 191.254 78.1524 190.953L74.4768 188.844C72.1268 187.518 71.1627 185.65 71.6447 183.3C71.8858 182.215 72.3678 181.312 73.0306 180.649C73.6934 179.926 74.5973 179.504 75.6217 179.263C76.0434 179.142 76.5255 179.082 77.0678 179.142L77.3691 177.636C77.4293 177.455 77.4896 177.335 77.6101 177.274C77.7306 177.214 77.9114 177.154 78.0922 177.214L80.8037 177.817C81.105 177.877 81.346 178.238 81.2858 178.54L80.9242 180.106C81.2858 180.287 81.587 180.468 81.8883 180.709C82.7319 181.312 83.3345 182.095 83.8165 182.999C84.2383 183.903 84.4793 184.927 84.4793 186.072C84.4793 186.253 84.4191 186.373 84.2986 186.494C84.1781 186.614 83.9973 186.674 83.8768 186.674L80.9845 186.554C80.6832 186.554 80.3819 186.253 80.3819 185.951C80.3819 185.469 80.3217 185.047 80.1409 184.686C79.9601 184.264 79.7191 183.963 79.3575 183.722C78.996 183.421 78.5742 183.24 78.0922 183.119C77.6101 182.999 77.1883 182.999 76.8268 183.059C76.4652 183.119 76.164 183.24 75.9229 183.481C75.6819 183.662 75.5614 183.842 75.5011 184.144C75.4409 184.445 75.5011 184.686 75.6819 184.927C75.9229 185.228 76.3447 185.59 77.0076 185.951L79.7191 187.458C81.1652 188.241 82.1293 189.085 82.6114 189.988C82.6114 190.049 82.6716 190.049 82.6716 190.109C83.1537 191.073 83.2742 192.158 83.0332 193.423C82.7922 194.568 82.3101 195.472 81.5268 196.195C80.8037 196.918 79.8396 197.4 78.755 197.641C78.2729 197.762 77.6704 197.822 77.1281 197.822L76.8268 199.328C76.8268 199.388 76.5858 199.629 76.2845 199.629ZM74.296 197.942L75.8627 198.304L76.164 196.858C76.2242 196.556 76.5255 196.376 76.7665 196.376C77.4293 196.436 78.0319 196.376 78.5742 196.255C79.4781 196.074 80.2011 195.653 80.8037 195.11C81.4063 194.568 81.7678 193.785 81.9486 192.941C82.1896 191.917 82.0691 191.073 81.7076 190.41C81.7076 190.41 81.6473 190.35 81.6473 190.29C81.2255 189.567 80.4422 188.904 79.237 188.301L76.5255 186.795C75.7422 186.373 75.1396 185.891 74.7781 185.409C74.4165 184.867 74.2358 184.264 74.4165 183.662C74.537 183.119 74.8383 182.697 75.2601 182.336C75.6819 182.035 76.164 181.794 76.7665 181.673C77.3088 181.553 77.9114 181.613 78.5742 181.733C79.237 181.914 79.7793 182.155 80.2614 182.577C80.7434 182.938 81.105 183.421 81.4063 183.963C81.587 184.324 81.7075 184.746 81.7678 185.168L83.455 185.228C83.3947 184.505 83.214 183.903 82.9127 183.3C82.5511 182.577 82.0691 181.974 81.346 181.432C80.9845 181.191 80.6229 180.95 80.2011 180.769C79.9601 180.649 79.7793 180.347 79.8396 180.106L80.1409 178.66L78.5742 178.299L78.2729 179.745C78.2127 180.046 77.9716 180.227 77.6704 180.227C77.0678 180.167 76.5255 180.227 76.0434 180.347C75.1999 180.528 74.537 180.89 73.9947 181.432C73.4524 181.974 73.0909 182.697 72.9101 183.481C72.5486 185.288 73.2716 186.674 75.1396 187.759L78.8152 189.808C79.4781 190.169 79.9601 190.591 80.2614 191.073C80.5627 191.555 80.6832 192.158 80.5024 192.76C80.3217 193.604 79.7793 194.267 78.8755 194.688C78.0319 195.05 77.1281 195.11 76.0434 194.869C74.9588 194.628 74.055 194.086 73.3922 193.303C72.8499 192.64 72.4883 191.856 72.4281 190.953L70.8011 190.892C70.8011 191.676 70.9819 192.338 71.2832 193.001C71.6447 193.785 72.187 194.508 72.9101 195.05C73.3319 195.351 73.814 195.653 74.296 195.833C74.5973 195.954 74.7178 196.255 74.6575 196.496L74.296 197.942Z" fill="#121212"/>
<path d="M94.0601 211.5C93.5178 206.499 95.687 203.004 97.1331 201.256L97.0729 200.955C95.5062 195.894 93.9998 190.41 93.3973 186.554C92.7947 182.517 96.8319 183.42 96.8319 183.42C101.411 185.047 107.618 201.015 107.979 204.209" fill="#C68F79"/>
<path d="M94.06 212.103C93.7587 212.103 93.5177 211.862 93.4574 211.56C92.9151 206.499 95.0241 202.883 96.4703 201.076C95.1446 196.797 93.3972 190.832 92.7946 186.614C92.5536 185.228 92.8549 184.144 93.5779 183.481C94.8433 182.336 96.892 182.758 96.9523 182.818H97.0126C102.014 184.565 108.22 200.955 108.522 204.149C108.582 204.45 108.341 204.751 107.979 204.812C107.618 204.812 107.377 204.631 107.316 204.269C107.136 202.703 105.569 198.003 103.4 193.483C100.869 188.121 98.3985 184.686 96.5908 184.023C96.1087 183.903 94.9036 183.842 94.301 184.445C93.8792 184.867 93.7587 185.529 93.8792 186.494C94.4818 190.651 96.2292 196.556 97.5549 200.774V200.835L97.6151 201.136C97.6151 201.317 97.6151 201.497 97.4946 201.618C96.169 203.185 94.06 206.559 94.6023 211.44C94.6626 211.741 94.4215 212.042 94.06 212.103Z" fill="#121212"/>
<path d="M89.4203 226.564C89.4203 226.564 87.1908 236.808 97.4947 238.133C107.799 239.459 107.678 228.974 107.678 228.974L107.618 227.829C110.51 229.276 115.21 243.436 111.655 248.015C108.1 252.595 104.183 257.174 89.6613 253.318C80.6229 250.908 82.4908 240.965 84.1177 236.145C84.9613 233.735 89.4203 226.564 89.4203 226.564Z" fill="#F8F9F9"/>
<path d="M89.4204 226.564C89.4204 226.564 87.1909 236.808 97.4947 238.133C98.0973 238.194 98.6998 238.254 99.2422 238.254C107.859 238.254 107.678 228.974 107.678 228.974L107.618 227.829C110.51 229.276 115.21 243.436 111.655 248.015C109.004 251.39 106.172 254.764 99.0614 254.764C96.5306 254.764 93.4575 254.342 89.6614 253.318C80.6229 250.908 82.4909 240.965 84.1178 236.145C84.9614 233.735 89.4204 226.564 89.4204 226.564ZM89.4204 225.359C88.9986 225.359 88.637 225.54 88.396 225.901C88.2152 226.203 83.8768 233.192 83.0332 235.723C81.9486 238.977 80.4422 245.063 82.9127 249.642C84.1781 252.053 86.3473 253.679 89.3601 254.463C93.096 255.427 96.2293 255.909 99.0614 255.909C106.895 255.909 110.088 251.932 112.619 248.678C114.909 245.786 114.186 240.363 113.523 237.35C112.499 232.831 110.39 227.769 108.22 226.685C108.04 226.624 107.859 226.564 107.678 226.564C107.437 226.564 107.256 226.624 107.015 226.745C106.654 226.986 106.473 227.347 106.473 227.769L106.533 228.914C106.533 228.914 106.533 232.831 104.243 235.181C103.038 236.386 101.411 236.988 99.3024 236.988C98.8204 236.988 98.278 236.928 97.7357 236.868C95.0845 236.506 93.096 235.482 91.8909 233.795C89.7819 230.842 90.6255 226.745 90.6857 226.685C90.8063 226.082 90.505 225.54 89.9627 225.299C89.7216 225.359 89.5409 225.359 89.4204 225.359Z" fill="#121212"/>
<path d="M100.929 250.185C98.9409 250.185 97.555 249.582 97.555 249.582C97.2537 249.462 97.1332 249.1 97.2537 248.799C97.3742 248.497 97.7358 248.377 98.037 248.497C98.2781 248.618 104.123 251.149 108.883 244.159C109.064 243.858 109.426 243.797 109.727 243.978C110.028 244.159 110.088 244.521 109.908 244.822C106.895 249.221 103.46 250.185 100.929 250.185Z" fill="#121212"/>
<path d="M266.454 340.931H112.318C111.776 340.931 111.233 340.81 110.751 340.63C110.269 340.449 109.787 340.087 109.426 339.726C109.064 339.364 108.763 338.882 108.582 338.34C108.401 337.858 108.341 337.315 108.401 336.773L115.512 235.301C115.632 234.156 116.114 233.132 116.958 232.349C117.801 231.565 118.886 231.144 119.97 231.144H274.167C274.709 231.144 275.251 231.264 275.733 231.445C276.215 231.626 276.697 231.987 277.059 232.349C277.42 232.71 277.722 233.192 277.903 233.735C278.083 234.277 278.144 234.759 278.083 235.301L270.973 336.773C270.853 337.918 270.37 338.942 269.527 339.726C268.683 340.509 267.599 340.931 266.454 340.931Z" fill="#FCE076"/>
<path d="M112.258 341.533C111.655 341.533 111.052 341.413 110.51 341.172C109.968 340.931 109.426 340.569 109.004 340.087C108.582 339.605 108.281 339.123 108.04 338.521C107.799 337.918 107.738 337.315 107.799 336.713L114.909 235.301C115.029 234.036 115.572 232.831 116.536 231.987C117.44 231.144 118.705 230.601 119.97 230.601H274.167C274.769 230.601 275.372 230.722 275.974 230.963C276.577 231.204 277.059 231.565 277.481 232.047C277.902 232.53 278.204 233.012 278.445 233.614C278.626 234.217 278.746 234.819 278.686 235.422L271.515 336.833C271.395 338.099 270.852 339.304 269.888 340.147C268.984 340.991 267.719 341.533 266.454 341.533H112.318C112.318 341.533 112.318 341.533 112.258 341.533ZM274.227 231.806C274.167 231.806 274.167 231.806 274.227 231.806H120.031C119.067 231.806 118.102 232.168 117.44 232.891C116.717 233.554 116.295 234.458 116.234 235.422L109.064 336.833C109.004 337.315 109.064 337.737 109.245 338.159C109.365 338.581 109.606 339.003 109.908 339.304C110.209 339.605 110.57 339.906 110.992 340.087C111.414 340.268 111.836 340.388 112.318 340.328H266.454C267.418 340.328 268.382 339.967 269.045 339.244C269.768 338.581 270.19 337.677 270.25 336.713L277.36 235.301C277.42 234.819 277.36 234.397 277.179 233.976C277.059 233.554 276.818 233.132 276.517 232.831C276.215 232.53 275.854 232.228 275.432 232.047C275.07 231.867 274.649 231.806 274.227 231.806Z" fill="#121212"/>
<path d="M192.338 302.849C201.057 302.849 208.125 295.781 208.125 287.062C208.125 278.343 201.057 271.274 192.338 271.274C183.619 271.274 176.551 278.343 176.551 287.062C176.551 295.781 183.619 302.849 192.338 302.849Z" fill="#FCC018"/>
<path d="M192.338 303.451C183.3 303.451 175.948 296.1 175.948 287.062C175.948 278.023 183.3 270.672 192.338 270.672C201.377 270.672 208.728 278.023 208.728 287.062C208.728 296.1 201.377 303.451 192.338 303.451ZM192.338 271.877C183.963 271.877 177.154 278.686 177.154 287.062C177.154 295.437 183.963 302.246 192.338 302.246C200.714 302.246 207.523 295.437 207.523 287.062C207.523 278.686 200.714 271.877 192.338 271.877Z" fill="#121212"/>
</g>
<path d="M251.811 341.353C249.461 341.353 247.051 340.991 244.701 340.268L76.1038 287.182L76.4653 286.037L245.063 339.123C250.606 340.871 256.511 340.388 261.693 337.797L261.754 337.737C261.874 337.677 261.935 337.617 262.055 337.556C262.176 337.496 262.356 337.376 262.597 337.315C263.019 337.074 263.561 336.773 263.923 336.472L264.947 335.809C266.213 334.845 267.418 333.76 268.502 332.555L268.623 332.435C268.804 332.194 268.985 332.013 269.105 331.832C269.286 331.651 269.406 331.471 269.587 331.23L269.647 331.169C269.768 331.049 269.828 330.988 269.888 330.868L269.949 330.747C270.25 330.326 270.611 329.904 270.792 329.482L277.722 318.335L278.746 318.997L271.877 330.205C271.636 330.627 271.335 331.109 270.973 331.531C270.852 331.772 270.672 331.953 270.551 332.073C270.37 332.314 270.19 332.495 270.069 332.676C269.888 332.856 269.768 333.037 269.587 333.278L269.406 333.459C268.261 334.664 266.996 335.869 265.67 336.894L264.646 337.556C264.224 337.858 263.622 338.219 263.14 338.46L263.079 338.521C262.959 338.581 262.899 338.641 262.778 338.701C262.658 338.762 262.477 338.882 262.236 338.942C258.922 340.509 255.367 341.353 251.811 341.353Z" fill="#121212"/>
<path d="M311.043 90.4449C314.237 81.1052 310.561 77.55 305.319 75.6218C300.077 73.6936 297.546 77.2488 296.943 78.6949C295.377 82.6718 297.968 87.9744 311.043 90.4449Z" fill="#F8F9F9"/>
<path d="M311.465 91.1077L310.983 91.0475C301.523 89.2398 298.028 86.1064 296.763 83.7564C295.859 82.0693 295.738 80.2616 296.461 78.4539C297.425 76.2846 300.378 73.1513 305.62 75.0795C309.959 76.6462 315.322 80.0205 311.706 90.6257L311.465 91.1077ZM302.487 75.6821C299.113 75.6821 297.727 78.5141 297.546 78.9359C297.004 80.3218 297.064 81.8282 297.847 83.1539C298.992 85.2026 302.125 88.0346 310.682 89.7218C313.634 80.6231 309.537 77.7911 305.138 76.1641C304.114 75.8026 303.27 75.6821 302.487 75.6821Z" fill="#121212"/>
<path d="M310.923 90.3244C314.538 81.1052 320.323 80.9244 326.288 82.9731C332.254 85.0218 331.953 89.3603 331.591 90.8667C331.229 92.3731 326.047 99.3629 310.923 90.3244Z" fill="#F8F9F9"/>
<path d="M324.119 95.4462C320.926 95.4462 316.527 94.3616 310.622 90.8064L310.2 90.5654L310.381 90.0834C314.538 79.5988 321.588 80.6834 326.529 82.3705C333.338 84.7205 332.435 89.9629 332.254 90.9872C332.073 91.8308 330.868 93.6385 328.458 94.6026C327.313 95.0847 325.927 95.4462 324.119 95.4462ZM311.706 90.0834C320.203 95.0244 325.204 94.7231 327.976 93.5782C330.205 92.6141 330.988 91.1077 331.049 90.7462C331.35 89.5411 331.772 85.5039 326.108 83.5154C317.19 80.4423 313.755 85.0218 311.706 90.0834Z" fill="#121212"/>
<path d="M326.65 109.606C324.902 117.259 313.152 122.2 300.74 119.308C280.734 114.668 279.891 106.774 281.699 99.1821C283.446 91.5296 292.304 85.3231 307.729 88.8783C320.142 91.7706 328.397 102.014 326.65 109.606Z" fill="#FCC018"/>
<path d="M307.97 120.754C305.56 120.754 303.09 120.453 300.619 119.91C290.918 117.681 284.892 114.487 282.181 110.149C279.831 106.353 280.373 102.255 281.156 99.0616C282 95.5065 284.229 92.3731 287.604 90.2641C291.159 88.0347 297.546 85.9257 307.91 88.2757C319.961 91.1077 329.241 101.291 327.313 109.667C326.65 112.619 324.601 115.21 321.468 117.199C317.672 119.549 312.972 120.754 307.97 120.754ZM299.293 88.4565C294.051 88.4565 290.496 89.8424 288.206 91.2885C285.133 93.2167 283.084 96.0488 282.301 99.3026C281.578 102.436 281.096 106.051 283.205 109.426C285.736 113.463 291.52 116.476 300.92 118.645C308.151 120.332 315.623 119.368 320.805 116.114C323.697 114.306 325.565 111.956 326.168 109.365C327.795 102.315 320.202 92.3129 307.669 89.4206C304.475 88.7577 301.704 88.4565 299.293 88.4565Z" fill="#121212"/>
<path d="M287.905 105.991C285.796 105.991 284.892 104.605 284.711 103.882C284.651 103.581 284.832 103.219 285.133 103.159C285.435 103.099 285.796 103.28 285.856 103.581C285.917 103.701 286.278 104.906 288.086 104.786C288.387 104.786 288.688 105.027 288.688 105.388C288.688 105.75 288.447 105.991 288.086 105.991C288.026 105.991 287.965 105.991 287.905 105.991Z" fill="#121212"/>
<path d="M308.151 120.633C309.959 120.633 311.646 120.453 313.333 120.151C320.805 114.246 323.215 99.9654 318.515 93.3975C316.768 92.0718 314.84 90.9872 312.671 90.0834C319.66 98.3385 315.201 113.644 308.151 120.633Z" fill="#121212"/>
<path d="M308.392 88.577C308.392 88.5167 305.138 87.9744 303.873 87.7936C307.97 95.3257 307.549 113.162 296.582 118.705C297.908 119.127 299.294 119.489 300.86 119.85C301.282 119.971 301.644 120.031 302.005 120.091C313.032 112.439 313.153 94.2411 308.392 88.577Z" fill="#121212"/>
<path d="M318.696 118.705C323.095 116.656 326.168 113.463 327.011 109.667C327.855 106.112 326.65 101.954 323.878 98.218C326.288 104.485 323.095 115.271 318.696 118.705Z" fill="#121212"/>
<path d="M290.014 97.977C289.833 97.977 289.592 97.8565 289.472 97.6757C288.327 95.6872 286.7 96.2295 286.519 96.2898C286.218 96.4103 285.856 96.2295 285.736 95.9283C285.615 95.627 285.796 95.2654 286.097 95.1449C287.001 94.7834 289.11 94.7231 290.496 97.0731C290.677 97.3744 290.556 97.736 290.255 97.9167C290.255 97.977 290.134 97.977 290.014 97.977Z" fill="#121212"/>
<path d="M296.582 100.749C296.401 100.749 296.16 100.628 296.04 100.447C294.895 98.459 293.268 99.0013 293.087 99.0616C292.786 99.1821 292.424 99.0013 292.304 98.7001C292.183 98.3988 292.364 98.0372 292.665 97.9167C293.569 97.5552 295.678 97.4949 297.064 99.8449C297.245 100.146 297.124 100.508 296.823 100.689C296.763 100.749 296.642 100.749 296.582 100.749Z" fill="#121212"/>
<path d="M311.767 141.241C319.961 137.144 323.275 127.201 319.178 119.006C315.081 110.812 305.138 107.497 296.943 111.595C296.883 111.595 296.883 111.655 296.823 111.655C288.628 115.753 285.314 125.695 289.411 133.89C293.509 142.085 303.451 145.399 311.646 141.301C311.646 141.301 311.706 141.241 311.767 141.241Z" fill="#F8F9F9"/>
<path d="M304.355 111.053C310.2 111.053 315.502 114.306 318.093 119.549C321.89 127.141 318.756 136.36 311.164 140.156L311.104 140.217H311.043C308.874 141.301 306.584 141.844 304.174 141.844C298.329 141.844 293.027 138.59 290.436 133.347C286.64 125.755 289.773 116.536 297.365 112.74L297.426 112.68H297.486C299.655 111.595 301.945 111.053 304.355 111.053ZM304.355 109.847C301.884 109.847 299.354 110.39 297.004 111.595C296.943 111.595 296.943 111.655 296.883 111.655C288.688 115.753 285.374 125.695 289.472 133.89C292.364 139.735 298.209 143.049 304.295 143.049C306.765 143.049 309.296 142.506 311.646 141.301C311.706 141.301 311.706 141.241 311.767 141.241C319.961 137.144 323.276 127.201 319.178 119.006C316.286 113.162 310.441 109.847 304.355 109.847Z" fill="#121212"/>
<path d="M310.079 137.867C316.406 134.733 318.937 127.021 315.804 120.754C312.67 114.427 304.957 111.896 298.691 115.03C298.631 115.03 298.631 115.09 298.57 115.09C292.243 118.223 289.713 125.936 292.846 132.203C295.979 138.53 303.692 141.06 309.959 137.927C310.019 137.867 310.019 137.867 310.079 137.867Z" fill="#F8F9F9"/>
<path d="M304.355 114.849C308.754 114.849 312.731 117.319 314.719 121.236C317.551 126.96 315.261 133.89 309.537 136.782L309.477 136.842C307.85 137.626 306.102 138.047 304.295 138.047C299.896 138.047 295.919 135.577 293.931 131.66C291.098 125.936 293.388 119.006 299.113 116.114L299.233 116.054C300.8 115.271 302.547 114.849 304.355 114.849ZM304.355 113.644C302.427 113.644 300.498 114.065 298.691 114.969C298.631 114.969 298.631 115.03 298.57 115.03C292.243 118.163 289.713 125.876 292.846 132.142C295.075 136.601 299.595 139.192 304.295 139.192C306.223 139.192 308.151 138.771 309.959 137.867C310.019 137.867 310.019 137.806 310.079 137.806C316.406 134.673 318.937 126.96 315.804 120.694C313.574 116.235 309.055 113.644 304.355 113.644Z" fill="#121212"/>
<path d="M307.97 125.635C307.368 125.273 306.464 125.092 305.319 125.153L302.969 125.213C302.367 125.213 301.884 125.153 301.523 125.032C301.161 124.912 300.981 124.671 300.86 124.309C300.74 124.008 300.74 123.706 300.86 123.405C300.981 123.104 301.161 122.863 301.463 122.622C301.764 122.381 302.065 122.2 302.487 122.08C302.909 121.959 303.331 121.899 303.752 121.959C304.174 122.019 304.536 122.14 304.837 122.381C305.138 122.622 305.44 122.923 305.62 123.285L307.549 122.2C307.127 121.537 306.645 120.995 306.042 120.573C305.44 120.212 304.837 119.971 304.114 119.91C303.752 119.85 303.391 119.85 302.969 119.91L302.487 118.404L300.499 119.067L300.981 120.573C300.559 120.814 300.137 121.055 299.836 121.356C299.293 121.838 298.932 122.441 298.811 123.044C298.631 123.706 298.691 124.369 298.932 125.092C299.414 126.599 300.619 127.382 302.487 127.322L305.681 127.262C306.223 127.262 306.584 127.322 306.886 127.442C307.187 127.623 307.368 127.864 307.488 128.165C307.669 128.647 307.549 129.13 307.247 129.612C306.886 130.094 306.404 130.455 305.681 130.636C305.018 130.877 304.295 130.877 303.632 130.636C302.969 130.395 302.487 129.973 302.065 129.31L300.197 130.274C300.559 130.997 301.041 131.6 301.704 132.022C302.367 132.444 303.029 132.685 303.752 132.805C304.174 132.865 304.656 132.865 305.078 132.805L305.56 134.312L307.549 133.649L307.067 132.142C307.549 131.901 307.97 131.6 308.332 131.299C308.874 130.756 309.296 130.154 309.477 129.491C309.658 128.828 309.658 128.105 309.417 127.322C309.055 126.599 308.633 125.996 307.97 125.635Z" fill="#FCC018"/>
<path d="M302.487 118.404L302.969 119.91C303.21 119.85 303.391 119.85 303.632 119.85C303.813 119.85 303.933 119.85 304.114 119.85C304.837 119.91 305.44 120.151 306.042 120.513C306.645 120.874 307.127 121.417 307.549 122.14L305.62 123.224C305.44 122.863 305.138 122.562 304.837 122.321C304.536 122.079 304.174 121.959 303.752 121.899C303.632 121.899 303.511 121.899 303.391 121.899C303.09 121.899 302.788 121.959 302.547 122.019C302.125 122.14 301.824 122.321 301.523 122.562C301.222 122.803 301.041 123.044 300.92 123.345C300.8 123.646 300.8 123.947 300.92 124.249C301.041 124.55 301.282 124.791 301.583 124.972C301.884 125.092 302.306 125.153 302.788 125.153C302.849 125.153 302.969 125.153 303.029 125.153L305.379 125.092C305.5 125.092 305.62 125.092 305.741 125.092C306.705 125.092 307.488 125.273 308.031 125.574C308.633 125.936 309.115 126.538 309.416 127.382C309.658 128.105 309.718 128.828 309.477 129.551C309.236 130.274 308.934 130.817 308.332 131.359C307.97 131.721 307.549 131.962 307.066 132.203L307.549 133.709L305.56 134.372L305.078 132.865C304.837 132.926 304.536 132.926 304.295 132.926C304.114 132.926 303.933 132.926 303.752 132.865C302.969 132.745 302.306 132.504 301.704 132.082C301.101 131.66 300.619 131.058 300.197 130.335L302.065 129.371C302.427 130.033 302.969 130.455 303.632 130.696C303.933 130.817 304.295 130.877 304.596 130.877C304.958 130.877 305.319 130.817 305.681 130.696C306.343 130.455 306.886 130.094 307.247 129.672C307.609 129.19 307.669 128.708 307.488 128.226C307.368 127.864 307.187 127.623 306.886 127.503C306.645 127.382 306.223 127.262 305.801 127.262C305.741 127.262 305.741 127.262 305.681 127.262L302.487 127.322C302.427 127.322 302.427 127.322 302.366 127.322C300.559 127.322 299.414 126.599 298.932 125.092C298.691 124.369 298.691 123.706 298.811 123.044C298.992 122.381 299.354 121.838 299.836 121.356C300.137 121.055 300.559 120.814 300.981 120.573L300.499 119.067L302.487 118.404ZM302.487 117.5C302.366 117.5 302.306 117.5 302.186 117.56L300.197 118.223C299.956 118.283 299.775 118.464 299.655 118.645C299.534 118.886 299.534 119.127 299.595 119.308L299.836 120.091C299.595 120.272 299.354 120.453 299.173 120.633C298.51 121.236 298.088 121.959 297.847 122.742C297.666 123.586 297.666 124.429 297.968 125.273C298.39 126.599 299.474 128.105 302.246 128.105H302.366L305.56 128.045H305.62C306.042 128.045 306.223 128.105 306.283 128.165C306.283 128.165 306.404 128.226 306.464 128.406C306.524 128.587 306.524 128.768 306.343 129.069C306.102 129.371 305.741 129.612 305.259 129.792C305.018 129.853 304.716 129.913 304.475 129.913C304.234 129.913 303.993 129.853 303.813 129.792C303.391 129.612 303.029 129.31 302.728 128.888C302.547 128.587 302.246 128.467 301.945 128.467C301.824 128.467 301.643 128.527 301.523 128.587L299.655 129.551C299.233 129.792 299.052 130.335 299.293 130.756C299.715 131.66 300.318 132.323 301.041 132.865C301.764 133.347 302.608 133.709 303.511 133.769C303.752 133.769 303.933 133.829 304.174 133.829C304.234 133.829 304.295 133.829 304.355 133.829L304.656 134.673C304.716 134.914 304.897 135.095 305.078 135.215C305.199 135.276 305.319 135.336 305.5 135.336C305.62 135.336 305.681 135.336 305.801 135.276L307.79 134.613C308.031 134.553 308.211 134.372 308.332 134.191C308.452 133.95 308.452 133.709 308.392 133.528L308.151 132.745C308.452 132.564 308.693 132.323 308.934 132.142C309.597 131.479 310.079 130.756 310.32 129.913C310.561 129.069 310.501 128.165 310.2 127.262C309.838 126.237 309.296 125.454 308.513 124.972C308.513 124.972 308.452 124.912 308.392 124.912C307.669 124.49 306.765 124.309 305.62 124.309C305.5 124.309 305.379 124.309 305.199 124.309L302.849 124.369C302.788 124.369 302.728 124.369 302.608 124.369C302.125 124.369 301.884 124.309 301.764 124.249C301.643 124.188 301.583 124.128 301.583 124.068C301.523 123.947 301.523 123.887 301.583 123.767C301.643 123.586 301.764 123.465 301.884 123.345C302.065 123.164 302.306 123.044 302.608 122.983C302.849 122.923 303.029 122.863 303.21 122.863C303.27 122.863 303.391 122.863 303.451 122.863C303.692 122.923 303.933 122.983 304.174 123.164C304.355 123.285 304.536 123.526 304.716 123.767C304.897 124.068 305.199 124.249 305.5 124.249C305.62 124.249 305.801 124.188 305.922 124.128L307.85 123.044C308.091 122.923 308.211 122.742 308.272 122.501C308.332 122.26 308.272 122.019 308.151 121.778C307.669 120.995 307.066 120.332 306.404 119.91C305.741 119.428 304.897 119.187 304.054 119.067C303.873 119.067 303.692 119.006 303.451 119.006L303.15 118.163C303.21 117.741 302.849 117.5 302.487 117.5Z" fill="#121212"/>
</svg>
